<mxfile host="app.diagrams.net" agent="Mozilla/5.0 (Windows NT 10.0; Win64; x64; rv:130.0) Gecko/20100101 Firefox/130.0" version="24.7.14">
  <diagram name="Page-1" id="edXwYXBU7xjTUjnTitJa">
    <mxGraphModel dx="1194" dy="744" grid="1" gridSize="10" guides="1" tooltips="1" connect="1" arrows="1" fold="1" page="1" pageScale="1" pageWidth="850" pageHeight="1100" math="0" shadow="0">
      <root>
        <mxCell id="0" />
        <mxCell id="1" parent="0" />
        <mxCell id="LIb8iuB4E54POhkS-eWw-1" value="" style="shape=image;verticalLabelPosition=bottom;labelBackgroundColor=default;verticalAlign=top;aspect=fixed;imageAspect=0;image=data:image/png,iVBORw0KGgoAAAANSUhEUgAAAigAAAD1CAYAAAB6Mg5dAAAAAXNSR0IArs4c6QAAAARzQklUCAgICHwIZIgAAAAEZ0FNQQAAsY8L/GEFAAAACXBIWXMAAA7CAAAOwgEVKEqAAAD/lUlEQVR4XuxdBYBdxdWemWvP113i7kaAYEGDFSgQKFZKaYEKUAoFKkhbatDSQvnb0pZCkUIp7hYgRAgR4i6bzbo+f+/azH/OfW9DAslmIxvjfsnsve/q3LHzzZkzZ4gLFy5cuHDhwoULFy5cuHDhwoULFy5cuHDhwoULFy5cuHDhwoULF3sJmt26cHHYQwgR6GzozG/d2Dq4YdHqka3r6/rJSTOPGoYiODftPvktgby82v6DhqysGj1wnaevp4Uxlsre7sKFCxcu9iNcguLisAfn3JtY1jJw5UtzT92yct0J8frI6ELhDeUyn0e2OJMEBMZEjdewCWFpk/AmK6AsmXTGlFcqpg3+wF9dWJ99lAsXLly42E9wCYqLwxqJRKJ8y3vLz3j7hZemj60JTRA6z5OJRqjNCJUVogub6JQTWyYkP2wSSZKIDbXCDEp2vRzZ7BtX/MqUq858JH9o1XJKqcg+1oULFy5c9DJcgnKQQQjBYNOVL13bzwtG/L1DYekK0c/AG/WRG/7w+rdaZ2w8j8qBSkuKZc/sGJrFiS7JQFAk2GdEszlJaHrEGBx6c8I3z78v55jCRW76unDhwsX+gUtQDjCAkFAIvtbNrcF0S7og0dxeGI9GfYwIybItiXBKJQashTFBmCQUTbNln8eSqOBMUWxVUkyPJAtLoVSWJUEtqaXoyMrNIEiN7Cu+lEg1pfq/+ofHb2YLm79WHPflyMJDLLl7cxKJc0hu4IdCgX1GbK4T7qek1u5IFg6rfPLYn13xc3+13x3uceHChYv9AJegHECEN4fzls5dOnz1/OVH65vbRgXj1sAcW8nTZK/GbQ7yUjCb24xhLlEmoPMudNvmaW7ZFH4jabFtiwtBYJ8aELYYFdKss6694LGCowY3AknhmTd9ucBjvOTTB1+/Zd2bC7+eowQLlLQgObZE0szKXrFjWIw7mhMZrrWBqJgeSuIkSTQPI3oiVldw9Ym/OOLKE56EdE1mb3HhwoULF70El6AcAKDWJDJ7Xf8PH39jeufalrOLWWiIN02DfoNKQrcoVxXnOhCETgAigoaeeJ9jH2FjJx/2vwAhEptzOmeceMOFd1acOXYZ3Gtnz3xpAOkid76/6dIFdz39i0Izp7KF6kTxMuKLJomlqNmrdoy0zInfYMRjAiGRKelUbWLLNtESaVIp+8SyodorZ9x86U+DwwuWZ29x4cKFCxe9BLR3cLGf0TlrY9W7j772dbas9fujooHJVR1SXk5KkQWRKfd4CJHgIgiCCcIpJ5awnC3+ZlQQBcgJitovBEq9ecRTHNsSzoWfX07yqZOB8/737vklRrDSGweyQRRiWRYhkLq7Qpd1iWAciCCkNRBDSUgkIGmEpixKNobHx5fUTgQSlGGQLly4cOGi1+ASlP0MFG4zXn3/xJZ1DRflqjkl3BQ4NkNiGiGtfkLa/Bx67zsPhgSEZeeBiaSpSZwGyYovX95C2krxJTXjO1fVjgJqAWmFdiXATTikTQ9SQ4VrkQjqcB8HkqLYOOQDJwQjKUkixSmtoGnlppEiIoKZO1y4cOHCRW/BJSifAwg5NFql4v33ZSGWq/X1C3yiuTmAgfNGP5xTITC8JnvLbmHtouUD7eUN0ytYaADllFo+lSRUm5iSBYLUIqptOwJxZwH69cTuJjCLKqosqxDLL50GBfIkp+7jTRNDSbkwJnQS9ehw1CQqkAwTkm9X0EwkKIQkFSQ0nHhNTnwG2qYw0uFhpMjye5tWbR5hGEZB9hYXLly4cNFL6EGz/eWAQ0oEkpLGQr3+o0GpEmtS7ezFp3cs/Pj8JXP+c9HSWU9evP6NV89pnP3MycnGNRNEy/oBIlpfiPdkH7FLwDukpfMXTugXkccVRG2mWYLYAggJFcQDvfXClE2KktBzBym5syAB72Bk50FligVbmw768k2HpTrNbV/f0K9A9StteswhfhQonYyaEUidXUHKphhqW3AXR4UcrQrsJxVKfFQh6Y5ElRFLljoXunDhwoWLXsOX005hG2Q0ITWaaGmrMJrXDd28eNa4otiaUamkXiksu0iSJA9c4KQTiHz4J9ItNK8zJxDYouWXLgiOOW6ud9jk+ZRW7HJmB4/yohcu+vkvKzr8X+eEqo6xa1cOgDBkEPAn33PaKNrV5CdHXnvuz0oGjvqQTqRm9viXAlznIz+6+I9/rN7MjqvThNzpAcIHpM9ryKTTIxGZdD+LZ1eQgKAYNLFl4B+vuLlyYuWz2cMuXLhw4aIX8KXWoKBGg7TUlCTmLThu3RtPf3v1i4/fEWyp+Z6IdJ7nsdJHeoUxUDYSlaqdrsCg8HSlxvWBZSI2yR9rOjuxadW3ojUbzhBpuSz7yJ0CidDmdZsLzZTRD2jIF4wsu3jK3sISJvflBQwywVECfLlgEgkSUjIEBzKBBq54kAMJ5JDAqAfZO1D0k6JbMrOEJ3vIhQsXLlz0Er60BIXztZponju85ZMnrqj78NG7cuvnXzVciU4sjDUWey1d9nOdBqhFgswmQEoyQehEIToJWe0k1worBTzaJ7Zp5RSS7uwDBGRXQz20pb6lXLZpCYpL5wBqTLpoBBxBbQrfS6YiUyLb0ZhCFu4zznPoQCG25PeYaOSqMIUokNCYvDb6P9kHM64lIDsKWihxYEAuXLhw4aJX8aUkKKJ+gc/asGVCzfvPXZVa/cG3K6z6iXlmawGzY5RKNlElhTCbEm7axDY5YcAc8J/IBgv+Gnoc5KHBRKKtgsda+sBjA5mn7xRSIhot9FA15PwC+oAMYluSggRl65DPnoF6U6KgqWbzIJLX6cse+/KAk5SUGwgnFXQbg7Nw4Bikp+WoUvZueAeB07xlRdIljxrPHnLhwoULF72ELx1B4bzWK5pWHtf+0fPf0WqXfq3Y6ujv4wmZATFJgwCKqSoxuEwsphLOPERIHmJRNRNIJkRlHzE8XjhmEYmmQx0Na6qE6Ahm7Fl2CiXWHCnyMc3bdRUSE8fuBOVnlqTsLfK4Vrp01qLT57/78Vjeyr9U02Gph0YGHDlqfStJpw3TJLKNs56I49Nk73hfBujITQSU1mBp0HV378KFCxe9jC8VQcFpw6Ru06jIB89dxuqWnZFjdhbLtuG4NTck1IfIxGQSkBMK5AMCbG0IHPZ5Rt/hBJMpcI8EiccJroJDjBQQgTj6SutODqp22gwonEk4jLMtH9mqQcmGvQHVmS8o/MeueG/eN1Y//uZRfC0P7YI4HU6IFE4YstLKUZqFxAQqTnBtHZtBMd8HSdDOU1bxwOr1wFGbsodcuHDhwkUv4UtDUEBIS6K5Y2jzJy9/jcRqTsv1GLlCcJLmKtGpj3ChOkMCftMgnNkgz3B8IBOYsIGIfBZUbhAvEBvNsojHtgk1uUxpTrf8At9vm5YiE5SWn12YoTyfYW8JiubPJ1aHlVvcIX9ly6sf37D6+TfPqJu3rgLe3+Pp0IcqKKUmqfB8OnDCqE8sSejUISUS5CCQSfQjs5dI+1hL0aSx830FvrbsIRcuXLhw0Uv4EhGU1uLkp7POTG9acKbPJxfoZpoQWSZCVtD0ES5gROHCcZRGkZhQizCQdxIxIZEsIuHMEBB4uMqtBtdJjv8SCJwbjMopIRQdBORO+QWNUyqlTWYDU8BZJRbcn1lXJ6OhwTszXk+zN+whOpNJElJCxBOXcgt0z/ErX/no+6senXFp84urh/FG7s9edtiCBuimAUeMfFfK8ayXJMgtE3VflFgS2g8B8A8ETG8Gac0gL6nIBIlDfkI+YxZs1Zg52jOHsOrePjkLgiNKP4J8hsLjwoULFy56E18KgsJ5a5As//DYyMoF5wXNZF/TxA+XCAWBhEQD+9goiyyG7tEVOK6C4JJhi67PUJ7hIn1IW/BK2bnXkBjRPQpJeP2dam5JE6W+SOZtO0GQ2EpST6W9lsm5icaWDjkxQFAC9QEBCU91HLFlr99DyB6JCN0kXPaQhJB9VTz3CLG44doP/v3yDfOeem9a+7r2KqBIOBy1z4HUa9uQPbxfAeQh6Tm6/J1+08Y825Bu3eKTFS4BSTEdQpgZqnPISTY4bAXICZKSDDHF3GZwCPIZ8oTbFrFVK53QkkuGfv2oJ+jE3JV4lwsXLly46F0c9gRFiE0eumnumM75b5wjReuHe2VgA7uAbGtAUDxwr5dYRCMm2qZI0I+WUkTICaJZaThPScxUdO4pXu+vGLgabtuVo7aUVpy3aWO6Y4NPU9PEAJKSMkguVZ3psOi0LaFSklD2Tq5zmh2eAkGLT+JpUyqQAn28benzNr3zyfUz/vSfy2ufWDiZb+Ale0NU4F5096+iVoaHeT5fk6gQyyP9SY0+RNSIoaJGH8o38iF8bWqAaBR9eSsv5xFewNt4iHPuxXshSBD2OZFhRayh8qzJ/x15/rFPt2ip9ULYeiEH4ukQEBvSSBAL3oru700kmpKUDbJDQpEoeixONCE487FowmcvnHD2Cf8cOmziO672xIULFy72Dw5IL3d/AYSfYtTPHkE+ePrK+MY501XZLBG2THGV2u7AhJExjKUSCDIZ+9xOrxsXnWOCA4FJk5TqS7X5StYWjj/7X8FjLn2GsWBz9vadov2TuqpPXvrgK+Ljmotkk47KsbUgjxlMUT0kLaM7dSQqggRMp2u/R6BcgNDNuGtXbEHy0HNLIkksj0x0lZpxI95CgtqnoeGVc4afeMS8giHVa8gQbzvab0DY6QBTlkzINEp9oj4VMls68ng0WbRm4aelqXCyONYeKzBNw28bth+igGomuMdJxrTX6zUCPl9ckbVI3qDycCA/GMsrLoqoOd4w8fujxC+nSYFmEJMYBCdHhSiOhGFcbIgTsApHwYGJ0rVFOFs4v9PE4p28X+sby89a8dyH08yWxAgP5wVwtZcKKAGCOVorQdHUmTo2tJhejgEzFRxITFJXrQZeri0c+9WpzxWfPGYGzaPh7KNduHDhwkUv47AlKI5ATbf0E28/dZm+7LWv2WRzf0NRJGoGiOrIvJ2Dy53wFyWs6gSFakQAaUDfKDKItrhMohFvzgppwBEvlR932fM0Z9Cm7oR7FyBOjLSQ4uWPvTVl2dyFZ2mdxpRi218lJ7kmqyrhikSiqQTxKHs+AiPbtkNOTCmTtYoJgUiONLdAOueYwBhkkW6Tkm1WoWelWhFcOPiokYv7HT1+o1BII632JZAc0Fa4uBjiHBEqTdCA2R4patlcV1Hz4rwBqXiqOhVLlLKUVSrbtFixSFChsldhqpwWaefNjl4EJD2wQWGDvOc2t2wqjJjKU0xmKcWrRqkqdcItYSKLpKSwlCypSb8nmJIV2VC9zAjl5KTyC/JTfr8vzfzBNMn36ERTTeLRTMJkC77IIKpswOdZjh97NBhSiEltakHuJ2kBjYmYKLTWxocufm3W5PiiVeOTydRAWzdKNCF7VSGrCuQuRlZwYTOb6zFiJYyQ3ExztPX5/cpmjZt+4mJvVcFKVsYSmJ4uXLhw4WL/4LAkKEgEhKgr57PeP9uc887Vir5xeMITVpOSTFXTRzRuZK/cMQwQsY6mBAJuQbgSiga1VNK5YC3N3n4Ly8dNeNM39Oh3Sckxm7O9/B4D/ZPULVw5bMWbn5zctnjjSaU0MEJLizyiW4rf7ydJeN+eAgkKagG6pkg7QG0BagnwPJyExIFfOGRlpg1NhCMkWasW5awr71e90V9R0OLze1OahEssc9qypSk33R4t7mhqq4yEO6sKRV6VqRs5QAE8XiKrkpBkhjamQOhw1owpf7b8z1ZVx9ZSRoVFHe2VEJRzCJYgwgZuZ3MKCS2EZXNhwaOAfHAbHwfX6LYQBqNUB+pjWDI1GJNMCIaqqrqqyGlGmQFUwzD81MhhJJmrKvF0gNQOPvu4GYHJ/ZqgPCiiCdJ3c0f/tpq6vo0bt/TpbGgpjDR35DJdaKhNkQlLFxUWdLCinJaiEdUbCof226wW59aQviS2u/nrwoULFy72HocdQQFhBN/UUmLMf+v0yJzXr/BGNh9BFcsDUoziTA1F4LTh7j9bJ3lATnS4NkUYRSNJxezgtNX05az05+bMzR9zxUy5X/kSEpyAQyM7HWLoDhBPObm0vbRx0foxy977+HijIXxUAfMMlVI8JAvo2O8h4BOd4SgkJBmikhm2QOAGpLtj84JTqhX0tkrR54ttG5SnuUSTMZpKCEYNgkJZMKYS5gVa4PdwyeOXVTXJZRmTksC9BGc8MQmej4alQCngBR6gHF3oSmbcZo7iUFmXCRAecSIK/7P7ONNGwUfbxMZ1bziuzYhsCu5j6NeEcsg7xwQX7kKP88jk4Crn1Tzm4SKkW5aXc73NZ68rPOeIe4+4/sw38G0ITHMImLZe0kF8JAzbtKHgOBHxKCZwthQpIgmag3OuIA1cuHDhwsUBQ1aEHB4A4YOzRwrTH784NbrwtSvk8KKjJH8yN8m91KeHiM8AuStHQEh37wUeuudE5SYQFBMkoBTuoP61ZunQBXnDJ34QHDZ4sQid1MgYS2Uv32Nk4+szlsUq1707f9y62QuPkcLm+Py0ZwDI6xDkzq6cv30BOsQdpyurQEBwlorNuGOAi/NUcIaQgi78QR7jN+I0Z9QOabLqGIbqiRQJ+lShA4kDwiJMZxITkDomUQVYBoVrkYqgPEctDNzt/LaBxOEKzEhUVEv9jJhkNg66SBK+P/PUzDEMXdehVgf9zDjPp0hkMifRGgVfh0zESQ0475AWCE4Msg9IAafK1YFrQEQac+zmlnG5v7n8D9c8BNe5GhAXLly4OMSAzf1hARD0khCrS/h7S04OL/7PhZrZejTjsRxTsplNvUQ1VRB+OL84BcJYdoZxdAgoIKlhkYAEAtE0CRrQ2rLFU0SNpOWc9TxQsrR04Lh3WfmI5aT46FpWVBTLvnKfAeLOxGrhN+raymoWLRretLjmiOaWpgleiw7KIZ4CRRc+Ba1fqEzTqF0AMgCkwZHcqG2AHYcc4Legh1v01yLDYRmFO57N5nJGswL3gGBHOxXHBwuegD9oCizBvdSygMRJOCrkTM2lkB4QP4wkvA4IBF4P+/hI5AlIUJD8fEZKMvYun0fX+S4/L/jbiVt2H2OGozwSvAP2nN/OUYwzDgvBy/BLnfzCF8N/gRqWbd8GFzNbhmcwktCseEM1/78rnrjl53D9rmZYuXDhwoWLgwwZKXCII0NOUuV84dMnRhe89jU1vHGixK1cImTGnZnUuCYLSjqUjqhJEI6NBrqzx7MephE7ESdMBeJC7GinCNSw3JLlnj4jPvINOfZTX/GQtSS3b6/bIiBRIS3EJ2ojJZtXrhpSt3Dl6M51jaOVFB8kmaxUokquxmVNsZjEbZzgAtnnEA38HuEQF9VCJ3Ik608FhDpcgrN6DDhnwdZvHhZZvkNQIKAmRW2QQjgz9PqS1KOXPPLT293ZNy5cuHBx6OGQl1Yg1FURjfbhC988Pbz8xXOt9MLxfpsGZK4BK5GBjuAnZqwcnO447KFAR+NXBSS6bDFCIaQkNRH2a1vMgGeRWn7sB2UD+iymBWU1pPyECBCBzyw/9wPEnUBU7iIqWZHITdS2ltWvWNdv0/pNw1rbOkZ5263q/LRarilqgSSYR1iCceHoFeA/akZMknHTD4BDqPzIfr2TEswxwTg8IXEgKGg1YytESIZZkx/7z2UP33kLK2et2UtcuHDhwsUhApRZhyw451pn59JBZNGLp7MlM8/3xjuGpQKeAHSeqewYLKB+5DPxLByCgquz6M6WgLAWwqMLKa8hqoaWpQpL5pWNHj7HO/D4FSQ4ZL8Tk88DyBfmj0RaiIe0pvKbG+srWpfUVLdubBzaVFc/gsbNvrlcK/MZNNdrMo/MGdNlmxqSICngITiMg/YofviKoC6I1yKk1Y+2HYcnkKDgqtOUOwTF2hjsePbr//7xD2lJwF3cz4ULFy4OMRyyBAWEt0+0rRnR9N5jF5KNr5xexJoGcBHQUvZAKpEUUJOU83VoLcFwpokzizXzuT5qkIRti7g/tzVCAp+qeQNmFfUbMzPQb/gGUlXcztjgLIM5eJAlKzKQFU2kk6HW1S3F7ZtqK1pWbhwR29I00mqKDvQIuaLEzsknNvUYClrxOuar8P0yUSlz6BrHGbyHKT5HUIzVWvMLVz9z502sONCYvcSFCxcuXBwiOCQJCudrQ6S5YULLuy+fK69ddGauJ14ZV8NKmsk0mPAhJSEcp7Bkv86yLWc6LGU4vMEITel6Ki9v/WYt9FHhiInv9h0yfhEpHQq97L7dLvh3sGCrZqWBqMJK5po1raUN6zZVb1izYYi+OjbKDicH+HTSp1AO5lppU9MVRmMeRhLwacXG4UtQWNcQT9YGZUOw45mrnrvnNhqgrgbFhQsXLg4xHFIExRHMsYYCvX7uUVvmvHRRoGHd8UXMLjUNW+r0+4igBsnXw3Chl9gUyAgIZJxhgrYZ6EiMC0aEzeJN3qpPpNKy58uOPPLDeKCgprT01BQQk+z8kkMLWbLirItDmkjArO8srVlXW93w6fJJ0dX1IwNxMkI2WAUhsl+WVcpxFefDFiYxskaytmQk26vsf17w5C0/Z4y1Zy9w4cKFCxeHCA4ZggICGIRwU+GWJQtPSMx9+fyK6NrjVBIvTJCEZCsy0XSNKLZE0sBL0O7CsUFBX2M4a0eWiWHBQaHEVM37yZYRZ/1z0MTjPqRFE1uBmBw2KoUsWcGZwIpoFEWxzfWlK99fONysaT/GXNM4yhcj/SyPJw/O42jPYQeBBIVtJSgxY7j/T9P+cs29QFD2+dRwFy5cuHDRuzgkCIpDTpKLy/icV09uWvT+JX4rMQFEUC6cYhwICI7JOM7cQT7jfJYUEJagESeWbJKIEiSFupfYyXh6XemQmXkjpv2jzwnnvEtILhrBHvTDOXuKLFmRRJvwknC0pH1jXfXsT+edxF9cfWTQFxgWVHMKkx1JWWUex0bHFjaRJEY6ZYtoNiE+A73CZpRKpsxJEmiPIQs4nl0nKJtyXUynKyXRQLc79tObBc6Cp+MMrcKkTWJePbrphJJfXf7Lb/8R8tn1CuvChQsXhxgO+p40CloRaywwVyyZumXNiq8pdnqyRxYOOcHzaPopQXCce8F/PChzy3FWhr9wX+gJwv0FG3xVw5/OHTBxxuFOThD4fagdYkUsRgfmbCw4ZfjsU7/9tYePu/3y30iT+z66wWz5iPnkVmKmbWqB/IbkSAmL5KUo8cJPJHoJlZKYRklcwenLmWEyNDp2Ag6bQcBp3Bhs2MdwoAsU5nomhrjjFILDOp9duHDh4nDFQU1QMlqAmpz02ren1n864woaazgqoIqgZejdxttjGyA0ZWILD/HgwoAKDUe8xe8PPuKUD3KqRnQe7uTk84Dv5Ywx3ZvnrS0YMOrDqTee/8AZd33rF6lhoUfCxWxWp5TutIguVGI7xA49zaZkICcqgy2QPyGToC6T4rgMD0Obns9CxpX+ZwE92OIQG4YDkcpoG80pIyZlqujQ8+GQljnjwoULFy4OJRzUBIW0rPCLxbOOiCx6e7qvc+OkApYMMCNFJRCg3UGxLRS1QFI8ICgZjzN5VdG4o98j7cGGLxs52Rb47XQkNUixvzn3mL6zT/v55Q/2++aJ95BJZU/EQuJjg6U6KLG4BKnnsQXxm+g7hTrr5+A/1JBsSz4wYAHCkNFcZPe7zmW3CNzAbb0K1JygK30TV3EWkpqsbe8nko62zYULFy5cHGI4aAmKwCXyo1tG1X/89sVK6/qpQTuaI5s6pRwtDbJSb2eA0ya6UJU8ROf+Vlo+6D115KhFZMSIA+p47WCBQ1QoNVmRv2H4+ZNmTLv9qnuOufmC2+oHaH+Ps+RcTtKtfmqZgVRa+A1MMpvEPZR05MpQYDiQDqB/3CYq8ABUT6BVCm4x8Izr2kxAopD5n/kJoXfBicLRUzBOM5dYKE4GRWZtHJy1x3HhwoULF4cQDkqCAgJFEuE1leGV806mnTUnhqiZh2vLcGeFW+eK7HYnYB5CJZlwi/OEWrzO22/8LJrvb/oya092BkgTzspYS95Jg2ed+6/bfl/wk2k/bj+x7I8r8mJv1Hli62zN6gzI1ApYplDDMUI15bOgyEAEccHCz4IlZxYidBYjhHzCBN9fiY40hHF4N2rYhEyK02qfxoVrJkN5CmYvceHChQsXhwgOyp6l6NiQY2+ed9rGt5+4sUJ0HMH0OLMkv2NboIg0RJpn/JzsBBIIJ1MVJKXLHXrphMdDR53x0P0j5m68m97d26MMhzxAmLMIITnJ5TWlzZ+sG7V+xsIJUlt6kBwzyxUhlwuPzw/XBCSggCqTKLdQm7JVUUK4pOIziLBR0yKIhB5sgaHsj4JmUYuEdInEFInYEiW5uikayuzXJ//hspuKB1aty17mwoULFy4OARx0BMXRntTMGb3lwye/KzcsO7+QR3Nsi5C0kkNsRokm4kQW6MB95wTFtBUi+WxhGNoyOvTU3+Yde8GrrGiY6wtjNwF5oYiYyG2ri+XVrttU2VazpS+bVdcvndZLjHiiUFhWMKB6vJKgMgUuwtA8hSpMcA5ZZMvEsr2aLPsYpzlwHv2z9GqJMxjOQpJIVFMce5mypEU25ES2aN+YfPspV5zxLA5rZS914cKFCxcHOQ4qggICkYrYp4Xht/99ib1h/veYsAZkpgzbEFEcLsBprjixGHvnnHAcRgBBZEMv3THjhJ48zkLR0u0kFSiObPQPemngtG/eFxhwwmoQToevj/f9AMgbHA6UYOuBLbJDJZVKKfG2uMa4pdi2rTDOZN2UVN3gcqQ17LHbo4XrP1w4VKqLjCiM04kBUyqXLKK2BWSS1C1SbKpEtSmQTw4PzjjXQ18rewy41RneoRLxmZT4JYk0iU67uZo9d949P7jFN8i3JXulCxcuXLg4yHGwERRVbHp/3KY3/3ZbMFZ7hsS5gtqSzxMU3GdCOL46QL7BVwA5AWKCFib4U7NTpF0KrY9XjHtowPHTH6P9poadF7joFSCxzO5uCzzGRESEogvX5y16a/YJ6xYuPafMzDsuZMmhIPOSpGETW0a7IsxVRMbLyp6Cce7M4BFAUDRLIiydJlaAkI2eWO3o6Sf9bMy3T3ja1aK4cOHCxaGBjFw4COBoT9pqCxvXfnqU3lY3VhJcQVsTFFoZp2CZqDqSEOQh9LlhB+0bIABTYQJ74ZlgyQErKQVri6r7r4eLDufFZw4KoPHxDgKHYLFc1pF70uANJ9xy1n+n3fPtu/WBuU/ZwmhSkjrcKBzPswgLMjbdZQO9h8Dp0ahdQ9/C6JNFAFlhFiGVck5VzZsLL0w3pSuzl7pw4cKFi4McBw1BAVCrfW3/jlWfHFfi4WWSsBxhk6Ekn+ugO2r8zPHMP+yqf3ZlXA6GeU7lklB5vw2kb6vbYz4IwIqKYtWThy6a8tWpDyb6+h9v9KZamCpI0OBE20eDb6hBQ6KK5QZd3uNMI4YqtjadhtrtI5Y9/fY5QIQD2ctduHDhwsVBjIOHoIRrQk0rZo3OszpGKkZC7dKGdJGUjAkEBuxxZzQrDmBjm9BzlhWSNkHSybLdYXs2h/qPmS+Yr4HS6XbmQhcHGqhZKTtz5Jqx3z/37xurpf+lNLsjCHnn5YKoghIFx+z2Al0DTWifhLCgcDAmkyDzkGBKKl7/zvwLoh/VjdjJkJQLFy5cuDiIcFAQFBAYTKQ6yoz6tRN8emcpChgK4gU9aWwFiBS0QsnYKOBeZou/FVUhHId6VC+xqBIR/rwFWtWgRXTQ6QnnXhcHDXDoZ4NeVzPhnJMe61CMty2FphxtmGETbS8Jiun4yZGA2OLQH3cIC/pjweFBHAoMxaSxi15492ukgRRk7nDhwoULFwcrDhaCojVvWjWAxBrGeJkRkCQtaxib0ZTg30yfGIGkBH7hpBxqg/DB85QkLZvocFeKyPVllZUfB4v6N4IwdLUnByGmTp1qTRrYd8WQqUc/s0lNL0tKXChSxlh2b2ADQcE1mIiQoETAhnJiSJ8Fny75IktrTm2as+RIKHN7afHiwoULFy56EwcFQSHJttyGus0TvdSspJZFbKcnzR27kh0DKQlyj8wFHDboOVbILCb7PUuDpbmraOHQlHPSxcGJCeWpkmNHfewZXvVmlJgtOOpifcZC9wi4/pKgmRWV0Xlc1ywvE6iIBSEke4nPlgbNffnNK9I14arMXS5cuHDh4mDEAScoaA+Q3jS3f37tx8f4pFQhYQrxGjgfww80RCMUOro40QMDmsOK7Owd1VKIRw/CAzQi0TgJGWFuGFpdeuDp75MjL1mPM0gyb3BxMALtUUqOLGnrf9aYF1rKyUzbY6f8BpAJohKDysRC3zbAMGQbMl5wYuBqyWgF2w1UgobVNuHOysqZMqMCUcEFBBEtKiV5MVkKrUkcs/CFj85r4zyUOePChQsXLg42HAwaFC1Wu2mwKqxqJjiaCkCsuhdEOMhjShkHXwJ4CBKXpOaJWaHQwvx+fRdR2uJ6jT0EgENwg44au2nwyEFvh0VirQlsQuYQBOQwFgEKeY3KNMC+KKgKECCmqMQneUqb56w8X1/SOMo1mHXhwoWLgxMHXoMSb85pWbtmlM/UC9CCwKbox2RXpiMSMRkDgmKCEDNxho+ISL4Grf/Aj5WSklpKJ7pTiw8R0AIaH3vy0XNJX//ciDcdkQWSFOEM0SBHweUNkKigFiTrMmWP4ScK0aHIy0Im+U3G2DX/fP2yeFO8KHvahQsXLlwcRDigBAV7r9Hm9VWeRNsIL9dz0LYEVfPotKs7MJ5xziaAnOCy/xL1Jg01f2Xh8AnLac5RrvbkEALO6lEHlW6uOn74ax1SYjnkqU3RBw7OwgFmgksZ4BRzXKV4FyM8uwQ3OdFViejAfwvTqo+vqD95w4xPT4RyqGYvceHChQsXBwkONEHxNKyePyiHpSoUO83Q2hUNR3Ylh9DZvWRzotkWkalMEmmlpaRyzMdy6eANIPBc7cluAoliNsic8yBsc2GbjyG7H4JtALYabBUIuCbPPhsaYWUsUT5p5JL8wZWz0gHSmrDR+W9mUQMc48E3ITnZW4IiJEZS8CxLVQm1ZeJPq/2XvjH7sg1LNgzOXuLChQsXLg4S7DMhsyfg8Zqyxf/7w3f71S25OmS1Fyc1TkyqEdWCDm03Nq7UZkTGmTwsTdJcTUW9fT4on/q135PxR81lrNqdvdMDZAmGF0IoqouQbpn+ZMrIW2ulCnVbeA1dVywbpDgOiUiy5feoSUmSEoNDuR1eicQVlXbmCBEFQhhBWxLnoXsBiI9a+++5x8186s0fVojgVNKmqx7VT0yg0DiRXOH4Cko4DvnsIZDypGQgtxw+WsffFtnsT7TnnzzivpMuP+Vh2ie3M3upCxcuXLg4wDigBKVjy9zR6176009HJTafpemdnoSigKDyEM1UiCWDBNkJLCGIBjGXTZ10qqE6vc/4xyqmff1hVnCEu1rtLoDEBEJws2FU1ETNsbM21B1d0xwb3twSz4tEE8F6ZmuCc4VzLsN1joaNMSaAnJiwNYuoRy/O9TcPqSxcMrTEt3hMZcniSlmuK/LTdrjUBLKyx3oOviVR+fJ9T15pr26+riTuKZMMiZgyc9bVkYGgYGHFacR7ConjECIjluPQjZGAKYhgJqnNSS8ce81X7hhw3ui39wXZcuHChQsXe48DRlBA+Ck1i54/qXnWoz8Zkag52menaUz2EMr9xG/IJK3uXBFiQC9aYYJ40km7PVi6xBx27J8qp333BUpL4tlLXOwAmObhtKhc0NJx3EvLVp01o65x9BaiFieoX+NyiBIuWcyUIOGFDSyGQMBV/2RCmUwYZZQyZklcpbYhvEbMDhgdsQEB2ji2LG/x0SMGzRxZWTJvrKrWwatQs7LbRAWHkOpfXnL07L++entFwnu8kmKKKUsE3kmYszYTYs+LrGajzZJEkrICQSbBhE0q4PPW0Tarc0zRS2c++I0f+ny+2uzlLly4cOHiAOKAEZRazvOtJ6+9NL9h0U1cePqodorYlBEd/aDwGAjHndstCuhRM+jncikv0lpY/WLfsy7+Cy09bREIRdf3STeIc1726/dX/PC5TxZf3OAvLkwr+aaasuP9/KSxbwFtqChW6qpKgrUlBjESksrDCqSzkQ61RQP5rXFaaLfOLF8ZLS5o0a28dqLmW6pPVTQfkaMJOyelR/vn528+ZZz0+tlDB70zIagsg1ciUcl6IekZ+JpExdwHnvpOcnHTN3yWv9SQGLEli6g2Gs4y0rWqdS+gTZxa8adjb7z4/2gudYd6XLhw4eIA44ARlDbOK9v+dsn1pZF1VzEpmC/rEUf1rksq8dqoCFEyF+4IwEOELYQhFW3Shh/1N98pZ/2H+Y/EnruLbhDh6UHHP7v+X5vqa6rzAp74Uf2rF5w1uGDm2ICypswjb87zeqNwmYHX4lAQpWFZJKK+BbHQxHoSKhjuTaUbKPWubovmfrKpccyy1siAdS2R/lzx50uyphppU+SkSarMa2257NjBz5wxoOKFIQF1LTwIrV57BF7Lvck5q6a+//cXbwjp3hOoTRVc0iCzNhOSk14jKKQpFF0x7trzbhtwztg3Ic7uUI8LFy5cHEAcEIKCwq+mZt3YxH+v/0kfu/VsogQVNR1xppSmgaCoHId35MzFOwAFGWoLZiQ9VZ8UnHD+H+QJZ7zrDu/sGkkhqs9/eNkd/Su9HdOOKJ41oSC4pIxGgZTk4NRsSP7th2UcG5RYQ/7Vr837ybsNbMq1k4a8e/2Esue93tDmcDrtqyekclE40f/dtc3Hvb964/GdNitLWgN9itegmmhMjGKJtd8fP+ZfF43r9wI8G7hNz4Z9xKZU33kPvfrNlnnrvlVgqsXovA2HeVDDlnFk3zuQVJu3lcmvHvvrq36Q1zdvU/awCxcuXLg4AOi91r57KFKkvsRjxKtkShTbQhsDm0hoZ+AMCHQfLbSPIJKc0jV/rVxQXkNIcTJ7ykU38BLS8quTqx/+zXGl951VGHqznLHNlOZ2AnGwdkBO0JI0J6wVVkZZn4FJWjLKCOUM4GooBNcm8rze2pFe75zLSwue/+Vxw+/8y4Un3viD8cMf6+uJryHJznSC5PiW8tKxd85cd8fNby2/Z0mKTGnlPJh5+i7Q19NSOmngx1aArCHUNhUsEzi808t8WkpR5q83j1n15IeX10Ui7orHLly4cHEAcaA0KDmrXnzw0vINz/9ISXZWp+UQCVmdEBlBElKASI46f+eQgcV02mSLOvzEx/JOu+Zh5h/sDu/0EJmhm+41GXCN8vaCVVNfWrdhSprR4XMaPcd0yMHi/sGGLcWS8nGVpiy55tTJz4zOzd2YvQXvkWNC5M2KJEa/M3/Tea+taDt9PQ9Uk7yAxBKN5nH5fNn0MQMf+trwPi/nMIYzfrpFalVn39l/evZ6tqrtUn+SFtmy7GjYehVUIl7dIM1ec03ulcf97qhvHPM0Y8ydtu7ChQsXBwAHRIMCwkyTYg1VGk/78LezeDHKTGo7TrnsXUTLsgkXak7EU1jZSH3FiexhFz3ArsgJooEQZbUWqnymKXLO852pU1cTb3GrP0Tnp8OlM9N88mv1zSeu56wcyU72FnyuFWKs9fTcwIw7j6i+47dnjr3x1IrQ6zQVDlv+oLQ4roy5960ldz720ZLrtnBeCfd2m8meUG7LoCNHftwupzamJNuWqAwFJXuyl6AzXIpSJYVxNqT5pU++WfPBhuN2FU8XLly4cNE7OCCNr67rAbOjqb8szJANdARtC9AZF1AXICiwt4uZGhaRTOENtahlpQ1CRHtsgOmiZygnJH1UafGGn5545mu3H3/K20dU992kpoh1zrAT1v102pTXb/7KaS9Ve+TaHZEdPJabm9tx7qC8t/58Xr+f/Hhc4R+rW2vq9KRJGwMVVb+ZX/P9O15ffMcqIQaC8MdhpB2CVtBk1Qnjl+cMKFuSVGmcMigjdu8yFEUIkpAFoYqHlLSJSSsffvPajsVNw7KnXbhw4cLFfsQBISiM2bl2OlYhCVvFPjiuuuJoUWAPt5/1y3cM6OfqVPE2SUFfM6VVzqwTF/sOQDL4pCJl5g2jc3579UD2x0pl/SKvva59bND88PqSvH99p7DoPxN34S8EnmEMUNUVt4ws/b/fnnbMTaWab1lSC5jNJQMLX9/YfOFvnnzzpy2E4GrCOycpIa1+8PjRsyyVbk4k4lxTenfJHEk3iOGRHJIS0pkSqg1PXfjCO1fFYrHi7CUuXLhw4WI/Yb8TFBRIDXPerK4UzYVh4SFM8pAcOwrERCVpFiCqbW91a47Av2gUKwmeDTaxBEnK+f3rSM6RbSAI3emgvQDUhECIpZXgmiGCfnQE4fPTIm9pXKHrWM6ubUgQ+IxQKNR28ujSdx48v++tV9KF7+c3RfROrSj4VFQ757zn5/zsw7AxemfDKDSfRvpMHbRcLdPWejQ5hRlv4lR0xjIu8AUUYJ4Z+dEZWjDtHUxNcrwTe2xBUhKUOaqG4nNqz1//j3mX8DYeyl7mwoULFy72Aw6EBkWzYw3VIE6CbBuJsjPh4hwHlrKtcp8ymvL5PG1EY+7snX0EJI7oybUrwG8VgybajaumjZvx4DWn33H1MP9beYSgr5TdQhFjsdOLy9//zjnT7ziqQnrVH21OBgNF/oXrOk+598WPblkUN0bujKSIoLd+2MRxH8eY1cCBqapAHmQoDE7ZwXIBdyGJlZCt7CWAkzimUI4dFATBKRBmVr3kw7mXbnxn6ckQx53PfXfhwoULF/sU+52giFijXw+vKWPC9tMuuxNHxGwblW6FDaeM6R6/N0KI4tqf7AWQFAAZCbYleOWi5uYRz21YcdTPZs396j3vz7vk3ndnXXz/O7POe2dZ85SGxvYcnxCJQq83gaQle/tugVJqJnKUT68/ffxvzulf8qK1uSnpLRrkmxVlp/3ofx9+Z7kuhsCzsSBsB1oW7KiaPG6xb1DpGoOaaYXjwoGcMCAP8HcrcUXSsmvz3+4h25ln2FAULQnSB2LjJzIJRu1xnzz16jVNC9aOz17qwoULFy56GV8QCLtCtqfr9K5B6OCy+w6zgH0b9k3YRZ8auGjctkqPreCp1f2WP3bHT/p1bLwCniZnhAr8cbquuI8GswCcUgq94kwEceschS23klJgWf6xF9xHjrrsVcaK0MmYi90A5t3mdLpi/vrwiOc+XDi2LmoMa7LSfeygJzfONJ/MGZNtyYbMNQgxDB9PhkNGvG1IacmSEyYPXDW2X8XKMX4/GsnGIWQypoeAd8vvt5ljHnx18Q/fbY6cmcz1+Qt5vOFov/eJv19+zEMFO3Doxtt45cK/v35l52uLr8k1lApcldjERf9wWAcKCA79qTaHY/BjL6Yia7ZFDOe5GbKsMgm+PglkxSZcYwk2ofi/R1932d2+Ae56PS5cuHDR2+hRaw5CBa/LSTevzY+2NZSnwu0ldbVri0zbCsJJzQRqkpdf2OEPBMKFBXmxgD/Q4anq107Uok5KA7gei6PpwOck6hePWfWf23493Gg5FQ5R58nbafczM3lA7Dj7+D9DTraSFTMu+RcWn33N78jwk96mtMId5tkNRKPRwrc2bJn61JKN5y/oNCfFpaJCLjwBTmQneS0ZOKbAVaUVENQyBNRT6MRnp7jPMtO5cmerJxVbf2zfinfPnDJ+xhGloTWFjO3WsM9yIEhbGlKT/zJz/nUzI6mzVE+uV22M1k+t7PP3H1866F/DGGvIXuoACVXH3C0nzv/1M7f5OqzJkkk0tK21JInYEiUyEBSPxYkB+3tDUDyWRXQJvhYCEmWV4yrKyLNxFWSbdARIU9Hxwx8e9t2pf8rNzXXX63HhwoWLXkS3rTkSChGJ5MUalwzd/PGbE1i0bgxLNvRVhVHp8cheOK9YgjPBQSowanBC0xbnCWjPO9pCo1qVYO7yAX37Lc/v038ZrToBe51Ww9L3poRf/+19A+ymSUhOQAQ4qnpEFxFB2M6S+NhXRmyjQYFefUwOLig+89tAUC59x3Wk1XNs4Lzkvpe3XPrmsiWX1we8w4xAropLCigmJz4LjZMtwlmGoMAvZ12ktIJCH9IfzqHxsgHZW6CpxBsNRwPJ1tWnjh3w7FUnT3x+jMezeWdasx2hlnPve63J4+99fdY9azvpuCArsAtSkZWXjPU8fMm0o58ZSmlb9lIHPMEr1/zxjas3zVx6ZTAhVSk6o5YsEYNh2UCCYgGZgjKzlxoUJCeoRXEIik0cksLhswQEGwjRZhpdf+Q15/xqwKUTnu4i3i5cuHDhYt9jW9XFdhCi3idalo+umfnIVZtf/fMdxS3zfliRWHZJNW86oVLuHFxmtFaVW+2lVXZncRUJF5UYbRWlZtuAKhEeXUUjxw+Krvpqn9b518fnP3Xnsv/97iaz7p3xhNSoRnNdZY4gAfQW67isB+HiAOQK/soQkc/kXNdehp7AFkkNqvIdDYuLngLJyfOLNlz135qW61vySkdzf4GK859k0yQyN4kl6SSpmo6AtuGERNJEFTHiteJEsVIgvE2iWlBg1CBpj1PS6asINeUOPeLZtbGf3PjoW394Ym3T6ejKPqtt6xZwjdQeiWiUa3p+oKxeVQMiLROS8NCiNxcsn7hkbVN/vCZ7uQPqo01Dzj91ZipPXZpiZkpPp4TCmaOCQ/KANiNYhvYGODMoM90dvhMKHCry0GkgHk/D85WUTPpLBQOWPfXmtzve2zBVvO8azbpw4cJFb2GHBIXztpC14sPj1r704PXpT1/5Tn/RODXXaqn2U8vDFA9LUy+xLZWYlkIsSyOmqRLDAMoBW8uGc8JHC40mKTe8qSAnUTO6iLScldqy4lhCfLlWoqPQx021yzTW0Y1kdjJAwYBntp2VgbtdAU7DeVx3H4XDTgmWi8+wlnNtXZif9uQ7H11uaIlq0+6gAREnuXqS5BimQ/USskaSHj+QlCCJqLCVVSAqspNHOLtF4pITvCDBvd4QSeiMxD0FJOwvy13L/Wf+7oU37nlo3trLWkWidIckBTIaScdqIQpfX7163FNvzfzmH//vkZtWrtl8pMo0nRKjobi69JPLr/323EGDSnD4ZJsCgJlOLVImLZly2gmvp7lVm19YyAXH0oOUNvu6bcpJ1+7uwPHBk70RyTPu2sBSUMOHNi/UhLdFTeqP2ONf+9u/r9HLY4N6QshcuHDhwsXu4wuNK+e1XnvpWydHPvjvN4WRPkYy0vmo2kdNP9qGZLy+7uDGz8GQOMlNM1Ib9JDSZJrTsiEv0Cvu+cOnjz4+bULisW9aSbUc/Z6kgOwowiJ+O05kYRMDfhtUIwr04HcMYcVl//LiEy74PZl06SuMFe72tNcvE0CAsvmmmHDHm4vue3dt8xGqvz81pFpZFgbT0qVEtgPE0CLEkpJAQDQimVJmFks2oHCGrCQyhy0+z7EP+gxAHLJ7DpqvLrUf/9qZY/5xhKZtgHNoOI0kUn2lIVXc0tE69MVFK05aFdZPimlF/TujUZ5T5Wn7St/S1cdO6PfOObL2UR6lW+B6tFvaoX8bXseHrHngf9/fPGvNVz22r4RJMuWGQXIVjSSEkSEmWFbxYtjuqpzuDoCTES8kCqZHxGNFc47s8+Toa87+rbe/dwvEd/uEceHChQsXewUUHluBvcFEODkouXjeNEuPH82Ena9IjDApo0Z3Gn8IPVm0jWW7ojjDArYs2dE21GypH+vz+0VCJxTPUyAkSnYVY8RWbUq3bb2jPfFaSSNIqd67rkUPA0QIyZlf13nivCUrR5b4C+0T+4QWjyzKafVIKo8ZaFgKRQDyiHKZWMQDSYsEFIUwIwowFQ2HgSCvJKAqmeUIukXJ4w2JKx94a+W1NboYvIrz4JzOzqpbP1xw7D0vzrzxzueX/3Z5JPTteCqnX3/L1/TjqSfN/OuFJ/zp10cOu+tsWXscyMkyEPS4uvIOyQmCVtCNQy48++VQn9JPLMmKQ/kUTJVJmOIEss+GZrq2XeiuRPUUMkeCLpwhH5mT0Ob5q8/e+NqsC0VE5GUvceHChQsX+wjbE5RIJM9cP/fYRMOqUxRiFVKuw0EDKAEu4veZG/qeKLXRcZaghmN4iL3udLK9gkSaygqK8jckpIIWpCjoFVbhaSApJlATfD6q61GUdCsI4VLuSSdTeSKV9GaPudgBUHvRLsSgN1avPdn0hEI+UxFXjit54uLxw99h0XSceIJER4+pkA8yZKotfM7vLjsM9C2iQMjkpZ0xoN0FOnJChW9ubLn8F2+t+u5fPtx4wa3PvnXbU0vW3rsmLV0Z8xTl968Mrrzh4hMee+iasbfdNEG59QRGniwmZBnOBOqJFgKuMckEbfYRF5/6pCjUlkSNaBLYk0ijS9kskJxsJSgQspu9hkNQ4MGmRNCBG6kwPJXrXphzZfs7q84QzSKQvcyFCxcuXOwDbEdQTN5cpa9feLSPhyu9Ti8RhJKNQgnJAwqpDDnpmlvTHVA4cCA26PkTh4VkngrRSHOhpyQ/GpGLN9lUQcegREGDTAEkBnmHM3MHhUv3BIUJ20PTyTzoyuJMoh7QpS8t1AZOhs7euGUgC+RLPGEl+pCOTcdU+GYW2HarpsrCAhaiAgPRLBvSXRADfptAUlBLhrngBEhhnG5s4tjG5wDpv11QYs0kSdWC/66LXv74ks6frkjkn2QZRD622vPJQ9+a+M97z+1/x+XV5A+Q1XOf3rRJf3DJvHx4zG7lIWMswY6vem/o2Uc+qZYHl9lCT6NRk0NEup4Ev7CUbv25D0oJlk5MCxwCk+FPXlohVWn/0LlPv/uN9qX1R8L3ZwqwCxcuXLjYa2zHNKSWjYP5lpUjNMn2cAPnL1AiM4lwp+nPAnYzwzfdQxAZGnJ0oIVDQox4VcLsjasqc/v17ej09FljMn8c54rIcCU3DRAgjOBv1LYwkhny2RkUwn2p9sYyEm1B1borFHYO7/oOMTxikAJdMCJpkqUbKbk/Yy9NnzxukZpqN2Vqi5FDBsZKvErEq7dZhOuQBzhl1yaWRIGUQIBSgpqDngj5Yh1Igewj8UBhMKoE+pw5eUrTo9/72p/+7/wjbj0tt+3vgZR/9QeLWir//PKCK//w6kc//Whz+1UJQgqzt/cYLJd1VF40+bljp5/ysAixhaadSHIVqCvGF8oQdWZ67Vs4pR7+ILF2nm4K4jEkiTYlJn/8xDvXxFd1DHNJyr4BpCMaVUNT4wR0CPn50HUOr9v3me3ChYsDju1VIR01lZ5YR5GFNiZCgYD0Adpbp81FuoLkJKPy3xWQoFhwMQ4TmEwmjHLiTUdzTUoj5aOOXx7j3loi+7hpWkRWFIfEYK8dn4xUpTvAkzU92lhK4m0l0DhBRF3sCHFIm4ba1iJmSIopbJKSDd8ry9YOLoVT0ydWvdTXa22RrSSPt3bUXnjq+A+qPNFNfs6NAOSvCnlhwxZ1JhRyRLIlolq7lgMplusYOlNikJDVSkfk2VsqNbJkfUKxn/gkOuyu/358yR9fnn/zK6tS39voH3rOulTuKFmInD0RMjRE26TTh750wvcu/pvcL2d+jJgRUwGZJWd0crsupbsHxzYHHoo2OahRTEqc6FA1cpjfZ61vPX7lSx9dnt6crnYFZs8BaYUkQ6kXwtfGeaguwgtaE7x8c5Pou2RjdOCsxU3Dnn/r05H/e2nO6GdemTvmmefnjnn2tU9GPf/2/OEffbJx4LwlTX1r20RZfVQU4v34HHwePjf7ChcuXByi2K4h1d+6+5fm+09fZxV58+SkD3rMIJ6gNw2iCs5m1PsU6z000ruq/hbRoCXvIIFUiLR5VZLLW4kSGPYJu+a+7+phEo0/d9dNdseWrwV4JKQpjCQ5IxaVQACYRBEGvA3u3wkkaooOFlitTbjgr/knffMpxnJ6tLrulw3QYFf83wcN9z+4eNWZeSOGeVvWrbbKjbq3nrv8vJsrC4Lh3y9r/9F97y27usBI0WnDQ49Onjq+86EXVp++ual1BPGHvAnHYRsDgUyIgqtMg9hPAZnsDinFAKHjhespyTHbyMBcc0tVWe5r0RYSWL+hs097UB6mipycmOpX0t6UUUY6Zq298NTbfTl0wZ7OhOGc+5Nz609Y9peZF7XUbjnJw1lRgKmyAPKLQLqAJXhvVRtYA7psW5zZTKpM0rpONAZpYlgkpiZrJl5+1l+LzpvwGCtlzZm7XGyLLkISDlNPPN4eaGhoLFy+alPhhi2NRZ3hSF5bazg/Eovl6Yadk9ZNn27ZHts2vERwlVDHgltQJhmSRNJMUlKMsLjXz6IBrz9SkJvT6fEqnf37VbVWlJd0jB45qq3fkJJoDqXobdqA8pVpxA5RQLrJTU1NWmkpzuQHFpytL9n9L5BiPJzd3Yod1TG8P7vbLTD9IOzaEK2XAdFFFxM79UG0o+/eHewojRDbPheuwfLUfU/6c4D7UWqqDQ0NzLZtUVVVBYe2z7tt39Eduu7B+50DnwOe3/Zc1/UHGvh97e3trKCgAIfqd7lMzXaR1l/98X1k9gtXJ4pDIS2mZQkKlkdo6J26DX1ITD8IGWdp3YB7SEqLEc3wEx0kXI4dIba373zpe7+/UVGGLbTfueeczfM/urWYdo4VdhzaGS88FzUtONxjghDYOUFhdpLElGBTtOroZwac/e2/0NCw9ZD+h3Tj0xtIAEH54wd1979UU3Nc9VETCl6dMV/ypeJbbh+V//MfnnLkEx+ZZMSPnlv+64aa+il5no7GY04dc9/o0sHep19edP66cHhMxOP3G1RFc2bi0Tnx2YJEPN3ne1pNEWojQZGA2KSBPHQQTZUTPO2XvXKh0uJrZQHHXw4hpmwZxXp4zryLT7uzvEiZvaM8xAIN2GUDCtepYraYsPbF1y/avGLtaVrE6svSXFOAUKEmD+1GQDJCgcfyC8U52w44RMM5lD3XDXCFYzTDQXtcG3YMXB0A6r2XQ/pgU2UaIlwkLz7me+f/QT29zwsQb3cZBgDkDZISrTlBgosXryr6ZN6S8pqa2urWjtY+9Vs2D0gl7UpJ8hXLihxgkurlgqhcMBBADJobCaQih+z6rAhIUCIxx5xyAcEykjYUHQNaZOjZ8IRpJts8qtZaWFi8IRTI3di/qmDT4GFDGqYcPaF5xIC8MNyXgtD9OPJBiHBY9P/L4/8dk+aKItnowtuy08ISnEMCM+QOKIQ+o+HyDhg5XOokJPQ30Jgvs59NCUht5zfWza2AekwkG7qLnFs8Gb/0a5evGdbH3wSv+ixD9jMaO1N973/oX0NUT64GHEECQQdpABHCFUQB0M11rmPIp/CjcPYFoOt7t4XI2i9wXLo8Cw4p6zzLwidBkXLuUwlT/NCFNnl+UMS+8/XzP4X3dmRv6REg6fPu/+szwyNpuQjHFWwbulZO3jlZ57y/K884NHu4laQd8zBGsTXC61Cn+0Xg+W3PdV3fxes47/r9RcB37fQc1sXsrgMGVfvzxyTo1CKwjGWAzToqNgSjMmQJVyVF5jxHann2mmuu6Zbwbvdg/Y2f3ivNef6b4aCaG0j54Sy6+MZZODiLB0PmOngP3Ni9CsWnK6QxANkJDXlZMkEU+IaOokFzQlf+4keKd+jccNO8vo2v/ee7BR3Lvy7bbQVe+BjNAGECZCYKrb3X3ClBJpKVIpbmSzb7+31UccLX/ugZee5HkL+uMPgcoEIUPrS87faNjSvG+yoGjLtvViykQYaONla+dc9Xjrr12D5lq9+LWqfd8tTi22uM9vEkYK389eQRf+xXUsj+8d68C95v7TyqLacUqG6QaVGblCYFafN0zwO7mq2ustJVdPFw5pRwNGQocEziM3KoMnfmdaPvHkoI5uG2TSPGX6klJABvFH0JwYUJuxUqcL0kIul+7a8tP2X1M3MvIi3pERpR8kByMV2YxAN1HssuVqHMFoCcCGep4VRr6KDvDTSTkrRsGHRAwaxjbrjwl8SbO4eOBMb9JQTkBea8VtPSkrt48aaKefMX9V+yZPXQ5ubwcMuW+0uKpzxtGSEoBx5GFZnwzFpQe4Jtm0ekLggoXjgvHqcHJm29vVmRaV1ebmDNwAHVK06YcuSG8aNHbRoxorgVLsVytV25OxgB6cnWbQ5/9ayLrrlFSKESKMFcti1udDWTXQzbGdnMJsJn+MKBzyGbgls3WFGcH9A5gQrCcWKCyZjecc1Vl7/w3avOegyEGKbdfgemw8pNnWdf8PVrb7S5twwOoR3CznsXTnp0h67T29yefRYVMmMEV1KxBUgkkPfQ8ZJEqrpYXfz0Y7+9O9fr3YDX9RRpzod99eKbvrOxKXkc0D0/gac62BrHrVHdVX7tDbZm8lbsqme2u8DcgOKToVhYFXEPy5NzhDOgu5oM5Nri49bMeaRbLcp2ETNm3Xen9e6T11oaL1FMnMELdTw7xdjZd0gJ3oLb7tPQp1PS6scF3WxSkkxBr1MisX5jZwS/dtdPmNp/HhQ0NbrkudNq3/33Dyt4+xSfrqOFLDGAQeIsEvS/sTNIIOBsSeGNJLTBP+L4v5aedM5/qW/sF1bB/bID0tg3IyLOXbz206GkqM9Fd74XHmikm2mp2dZ2VCH74y8uPfPPfhD6MzbHv/qHF+fcXCO8AwvlLZ9cOvmYv501olz/9Qtzz3yrM35q3JNT4RF+VtiRIJ2B7od4uiMoDmAHaKtz3qKaUSCrcz68euTdgyhFDcp2BCTCecETc1aMlgKhwOghVatCHlo7ku5a4MN354oPm6fOfOLVM/Ta8LFKzO4TJLJGLAHvZI7mw0AyAnFAPz2OI0KOs5T2jqBAC0Soh5FmEY3mHtHvmanfv+RBOkBdCd/VPas7jABpj6pl34r1raX/femNwUsXLRnd2Nw6Lm3wQYZJylU5kEepV7aRIUJHzeERzqy9bEHZA+yEoGyFAm2KosrcTCeAEyXbCDdrKyvKlg4aMHDxKadMWzH1tAEbGwkJDwYJnL3loAOm65pNnZd99bLv3cflUJECtUjiJvTvd96R2xfIjOiAsMH0pJblU/jyhx741a8mjih7Ccr1fh/ugXRg67ZEvnbmRd/6vSIVFcGhPS84u4KAVKZAUKBZAoICVMgPxVXX+5V55zz31K+u9zC2Mntlj6DrfPR5l910x8bm1DQKbAcld/bUYYbuP0uSJOgXprmikYKF7z4cyR7eIbZrkVlBWZPhLYhSAygdakwccpKhdxlykg1dvc/uAJmqCJ1o3HBU6zYD1uELRKkwnUYACrcRHDT5U6N8wEzDUjtRo6bLtqNxQd8b3YFTIM2WyfJJrNisXTKR1KzuD4ddY9kvIt0nROaPKCt/vzovd6WdSpqGnSKxQEnhrEbzij+/ufA8aN7YiX0Cz19x9LgHBghlXbO/euLjsxbd9PjHK0I/vejYJ7/ap/CxPun2GqYneFsglH3sHsIRGsBDnU6PhMJEaJKwVOAqCz9XqrFBDlOas2BT47F/eWPmt/80Y+Flq+IGupbfZYsMZStMjit+/bifX3X/0HOO/CMp9c6MSmazzbjNGRJtLM04XJkJ+OJt5NkeQ/EGiKULUubNDzUvWHvmmudnXCZq0/2wUc1ectgCv7GtjYde/3DpyOtvv//8a2/46Q+ff3HGzzbWxW40SM65uvCPk7SCEiGHVIPLjHMFOpBQFnDsrZeTJwXviaY4M4jPR9S8aqYVT6lvTn/j/dnLbr/7ngfuvOobd173wZMzz1i7OTWAc36w+laiEi6G6bA62GI1cAI0e70YgHJDkB0BzUVQbm03hjzwl0cubYyJgVhHM1HbvwC+DzUZ7ZEUSIsdx3vfBGiZsgGbHRA5VEBHG9IfOfFuF1oFkpMDxbFtCxIVvZ/u6J2HS/gs7T4fdN0ihmmyzh6sB79dIou86g3JvMotIDagIceZCnAMm24shluLIt7Sg7wBYiMLi6jQO8WbE1RN0dySBmLLW8ftqK+ypXDg2Jlp7lnBmGyhvYuEzt12IS44CDfsewVpKqDFG8d2rlk4SbSuKjhQFeZgBfbcgbnVjq0oWdkvxObzeDgme3NINC2TlK9qwFsrG2785YxF09sJ0S6eWPjM9OHl92txc01MCw1/asmmH97+ykdTLj1+yNpzqwL/LjTbGiwNWgZnpd8Mtt3fHaD7fKcDDdIgoEoxLzHjE7CobQ9mCRGoNWhlg5p35KwtHZc+/urs8z9uFSjwsaXuFhA3nZWzldWXTHn62O987dfy2Op/Nnv1T+NeK8a5IfymTUKOXQ2WJEIMXMthL2HYUOYlhdhxk/RR8kvXvjf/wprXFlwiogKJ1S7jfKgCsjH43oK1E7932+2X3/Xz397+zvtzb48kxGU2CRxhcH9JXJdViyrEgI6HYVuQ/6iZxb+oMMP2YV/Qw50DZYoloPMD77GZAlsZCrLXS5VgP52rJ65eU3/dgw89+rPrf3jXrbfd9fD0TW3pYQchUcGRfuh4Y3lFep3ZZs1wei0Q5AHYIaQq5JdG8ourPDNnfTrlqWde/mpMiN12D7AvYFlUkmRF7Ci++z5kRg8yWxBR1KaGlaQGDh7uPtAaxqZoQwV37/h9h0PA9LJ3GhRZhaCRvB74395OwsglA9fL/UYuTlFvBFMSmw201dm++XCOZna7gZW1s0GDQk4UXISu1VPZfw3x9t+6jD5qUaqHT1hOCyrnJSQtjC24ZOtwQ/er2OPbKQhHZhqSj6cqk42bjrFrFw8TosmXucJFF1BQFxMShrCqSOMd2GtVQFiYtiK1yUXDX1zWdP197y9zSMrXx3me/+aJY//s0eMLbV9F1Zw685rvP/Pehd5hA+zpU8fP7p+uS5tmRqsLeYe9Zmd/94DaObgXOiNMmFZZfqgtSBJhOPF5vZnUSWkoYpG8hBLyx+ScPivrwue8vHTNiZ8Kkd9TMkrzaFg+uXDWpOvO/fvES079E6kOvZb2mBsEs0xqg8iClsYCoWnuPT8BwLdBuWcUCHRa0EBSql7x5pyLVv7t7cvERjHiIO6d7xHge7Qlq1qHXHf9PdNvvfUXNy1YsuaGtKl8xeMrHGxxLSCogkauUFclKIcgXVFlRqGRR4/E0BGhDBt8nCX4+azf17AI2hpSJEUChxfRro4TG/Y5tWTBfEVC8o3ZVNN00TszP/nhtdfe9oPH/jfjnM4U74cLbWYfcqBBiSQBp4d0h3rXFQR8W28G7KXiCBwOw2GIxJI0ECrKe+65N89evSZ2FNRD6Bbvd1Bu9v63OwGILZoyCWLAW03CZPxtSH4lG5PdBKpQsN3c4bsOm5BJr50GEBuOAe3ualAIKW0IjTpyphkoWMaJZKBnV1TxIaA6wF8MwIKcXk/30CUJqCI0TtBTNplma0V9V8jl/ReCYNvemNU/oi13+ISPmph/uRAeUxEyMXY5ZI8ZTAn2ymRh+1msZXzTytkn0MbVOG/rsO2p7imQCPoJWT+sT349FhD0EsIgX1IsoLRI+SNmrK6/8a7nP/rm2uLi/BuG5/7vB+ee9Os+jLxMTdVTZxWd+Ld3V10xf+3moq+MGxT1+XxOBesiKrsFYNcEGDQOsuBDZMITgyqLt3gIi6G2J3tVF9iWtmRe2hKFFvcohqHJ7Wr+0FdWbTx9Vas1ZHcaRni25Rvh21x29qQXp15/4e+rTxz9t7Yc88N2v92S0gRXVWD0ONSwl2CQrhw+A13h20BTPKbKvB324I3vLLnso989+V17Tvspol5Uo2DP3nJIAtKetsR52f1/femsK6+9+fYFy7b8KGUpZ3sDZQOFFPAlUjgwjNUQe1PQqAsoc5C7KF3RSzQSEidgS+VoA3oXqJDHjhID4ZB5PwheNJ+AQKkORAU7YQrVQgXBlKWO2NQYvvj3D/77x1de99Pbm5e2nxrlHG0dDjSgIcY0BXYPqZuZYbnrdnhvQaE5zdSMbHoByVQUL2tsSg773b3/vHhze+xADPXAG9HDVm8DP6vr07q2jv4KqO3WA7sFaIuwuPd2kT+44Qzp9iz5tmuVUZBpJcMXFw0fMwPkfD1W7cwl8DB8niNDoFL0oGKYTIHGGu0N0CRSbQ/2HzqfBIvWZU9vBQqP0KiJy0RZ37mW8Hfg2LQBAqM7YHOCxcSiKm6Zn6SL7fba49pXLT5SxJsLocLsvbQ5jICVIo+QpuF9StuInBCc6RmSANC8HqnNoAMX1OnX3PHE+u+s3dA25PK+vrk/PnfMn44q8Tyab3rrdbOyakm7NvmZJSt9OKzTFSCdnWfsDjINK94HOU1Fx/D+6iZComgqvx1aCJHrmxsLTMPIUySNUYMS3VfgqTPJiI9XrBjTRMhuG8SwMpZQxhcuGX7l2U8f/a3z/iiPKH8yFZQ/NXQj5tX3vs0ASo5TEh1Db0tiWE2oN8Hk/KRSFV1Rd847f/nv92r+N/OqVY/OPImvbyzO3nZIAcnV4hU1Y75/wy3XPPzYUzczOfe8SFIaaBO/N21AZwTYmeoJOM0FeoRmRIeApBjKTDZgpwUFH07AcOwoHMHbe5C4DAGNStHRHoWAcUOyhPEziaRgzgmSMmw03Kac+QNECY1YuWbL9Otv/slNf77/v1fXNumjoLx7so88EKCcOywaYo91CNtiCI4dSu+FTH5BWjmEziCaBjmqmzQ3p8z/6cI1x7759nunQ0RyMYL7EcBvISl2EN/eCWhTgVsop7AVXIau8R4Bq0Wmodnu+V+ykCETTjLsCjsQ5HkNYuiUV9MF1e91qGqLpXGBqlFqA2mwgtAL8UBFt4lqWUThqJ61HJUpz5IWlD3YY/EYSTjPSEIJJTtDpXOVfoPfo3TQDueNi9xQc6D/+Pe3kNBiXfGlVSMNuYh6GjTOwo/Cng/2+rEZwWoJb4WY63AKtxAXrSAVGWWsnn0+X/HIiSL5Xhk0Jr3b6h160EMhJSlZuHyR7MyuwsUc9TRwA9kntcu+fovCrd+48ZVlP/vtjE3TR3uU9H2XTvzzeUNKf1dBWj5gpmW08/JAh50mOoPGXvYT2VKJZspEcbLehLzYhmdkqqGDrbuwo+LwHbyfc9PM8Ya3DPSTdZRWfWH2RDwu/EvX1vWJMavQkBNUhZ6ubMWp6c0tXrA2MmZZp4lehHdQfrsHEmJWzerzzx8+Y+p1F/15yLQjficGBF5sDMTW6qqcNuGRXKdEISCLQLBB6YfGGckGDgOhG33U3GHZzOgBsJxCQjpBgR66ZnFnBhr22ImsEKZ6Cchnlsv9Rdbm2DFrX5535conP7h6w4y1Rx1qmhSIb8FfH3v1rK9f8+OfLF3dco2qFU9MJqxgwBt09F+KJDspwi0jmzrYHqC9GHZUtikQAPzlhH3QocRHdIUudD01cwgFOl6AvzGGqLXJGGvj8LNt49g4RQbgaHkkiLNtQq7TQMgytaMf/+9b373mpl/87OPl4TM6hdjfwngroEGjWG1lxxgFyyEe3fZL933I5A8mH9QDfGfW+aFhppkv6Cv+xz9mnLt8sz5lf5ZlyCpguljBvhjffRnQWzSGTC13arqzhT8OXYOfe4JMijp/D9eAyKTWjgPmHYZd4wsNPDbgat+TVxVOnf4iye83Q7dIKzPSXLXRtJGjcy2SVA0ctoHGWoVKAsIOGnCOAe7PbKEXBYTFJloyohYuKjjqrOdJsByX0t+h6gWIi5EzaNIyUTZgdlSoTRpTBa6wi40cfnCmaCAyzRyIC6cXlEkO3KfUA/JODjdOblyx4OLkyo3TRNvqgVBpgnsixA5HADMMdSaiPslGMwhonHGGFhJPNHRlMuQnobrEi1YrfU5+fFXrjbe+9N53N6/bOOTOU8s//v60fg8O8qdfUWlyVcCO6h6aIulUJ2GaRKDTnLU3yvSOdwnIUk3SBElEE2OrctaUEYLTw7crrZBntJmQ4s2R1OCUrOaYMjQUEgoPHL9UvG1xq080qaKB3h6TUHhnmo7x1PS9Ysqb46+Z9mDhaSP/L+Kx345J5haPVzMZFPwM8aIkCeTL8DLihbbZAwQE64KMQwUQ8INwWMeGYEKa4gKZAkq+Dds0SJMULr6oIqHhNGB6tLy0VpGbUiaG1zceQVKkAN9wsAPzoyMpqn9w2+8u/8vfH/8BVYOnCRYssbkkOWt1melMQwIdFwYNL4ZMjcWjmEUoWmHzhQA12AmwvxfY9pFbsc1BLOfObEQnwG80/IS4oX0MkhSHnOAelGMZ9jHGGC2JIXmhChS58prapmk3/PDWm156btZlCc4r8RX7GxAzHNiAthHjCzGG7/gsDXsnOATFSVhsdaGO4xZ/Q/k2uSGnDTb8D/c/dIFBaT+8aj8BYwCF7Ivx3Zch8+1Qx53mCQk3buEYBOioOKmyu0DFDzwIS+HW93wpg5OOu8YOJQo23nLR6NmV4896XCka+mpc8a/XVa5bMpqPpKBKGyStZHyWYC6hDwkVepgZ/xYWsWRLRJWcjrBWOKdo7ImP+oZNeYvmT9zpfGd4nwiUjGrvN2zsBwklf3aUhWKqSBEMIDrhmQQEAPZ2Mj00Gd6nQfcBFyLEaaKC4zi3yXyC59PWluNr57xwTf3bf/ouWfCvc8SWpSN4JFLAGxv90NDusUA7lIECppWQQWs2t/aBX5mK1VU+nLKC9SUTZEL8Hcw39O2w/LUr3l7/8+nPLLzZpxZU/vrS4x8/a3jwjxXpzncDkdqW/FxLRKxGkvCZJCnjgpIeopn+rY90CkYWXbv4Cp16iQryvEJRas4aN35eHiFfWKaggRDvktZ4/w1xPiBFgh6Z+KGsARnmaHCpsbiZDjWlOgN7Sz6x3LEiFss5YcCnR112/hMnf+urvyme1O+BZi3yZqeaqIvAm4SC6m34IhNJB5RFltEY4jR6Z3lLINKoUZRhi70t/HqkI7heFWr80N4HVwVH7YrXkqhqMObjcn64pnkoqbMq9/YbehsYv9Ub2sZ/+5qf/Oijj1dcb1H/JN2SAhntg8M3IS2cv4ctgMeQtG4F0mk66b4//OOGv/z1jZtiOschn/2ad8DjkSV01dwDDuBHVPbS0Ky5n57wzHMfnwnpkZM91ZtwKAMUzOzPA4GDJgsOe+y0gtH8ARFp9PFzciaf/m97+NFPb/KVLIwquc0eU035EpIlkThRIXhsCBaQCa4DQbGgUyWiuiRWdxYMe71wxDGP5E4883UaGLBLr4MgLKxg9YjVeQMmvNdBQmugGEKnHod1UKUITT5qaqC3j/UzY2yH5AR7Edi7RgJjEpVaLI/awSoSGSXVL75g44xnvtP83j+vNxb+52re/PFZovHD8Zyv6AMVKa+Nt4U45zjeoe7vhmZ/I0xIzqedZNLa+nAlpuRW9bsTuv5h2sIRsZEwo4MxuSgvIfcbP6dV/urdby+9/lcvzvnqpJLivG9PP/2dEf2rXzWTsZgnJwC5gWpQuFfIkC9oE5R98A6Az7c1v7CSnaljB/dZMqnQv7QKyHD29FZ0ElK4YH3dmDYhV3LJyyQdGA38Q0kBsl4IjcHGIpvp5p28afcAZc9m1awjNKTvosnfO/2JI6887T75yMoHOyrld1tJdIuf83RpAg2/hbM4IBJz1BwZEpB06HVnVnzOpCFqkWSOaYELLOI+9HuzRpoy9tyxS85kJR1LlsVrt1TB6w+kXUO3gHqhvP/+qmNvveV3N67b3HlR0vBUe/xFioXuz50qA8kP4gJKQOaGQxYY/50HEzpAXl8Qtqpi2/6+f/vHM5f86vf/vWlTu5i0v4Y2IC/2SVnf14gmOpnmyS158onXz1i0NDwRy0z2VK8B0hzT4sCxhIOIJB7u6FYwM1YUU4ZP+aTk2Iv/pY44475I/ujH2pWKt9NK2aeG6qvVJW9rWgm0ptW8hphWtLpZKp7VGer/rFUx+oGSo6f/wT/+rNeIv28z9lSzj+we5RPCeWOOmmvl9fkgLoUaLdlDbI4EBXqnTqnAWUEoUJCQZEQtkhb0YWGgKl3ohJpJKkViWo6ZKCkmLeNZy5wLWhb++7ub33/4Rxue++td6//vvp9ar//5hvyPXr+crHjrdNK0+GiSqB/NeWM/IZpLofDnZ4eGPBBkCOxgbRx6ApwmWS/E+P/MXnFmwvYW4odkQpeGFATr1i0lKU8uUSHdg4kwyY03KSpNhBoEHTazU77k9pnN3/vDs7OuSqtFE0cMmWwrcUb8aUa8ZkZrYEg43LF98555NpLJ7Faitk+Et5w4quqDYkJqP182IK3Vmvr04CXrNx1hKd4CZguqWSZB78GGoRNNlrmH8o7cXE+0L+m7wyHDPQW6pWcDgs1Fl034eOoPz31k2PnH/7zkyCG/SRYoz9bb4ZV+LkVUi3FFSEA4cOosDm/iMJdETFklaSDROlPhN+oYGXo7ht8ySWEZ1aTM0GiIiais62E7mWjraJPge0HaH3xA8v7OzGWn/vjn991a3xb7StpWCogSZJGYDnmIMjlTJTDzHHFxGAOXQLC5gCARSQlKXn9h8cuvvvPVW265+ycbomTq/iIpSNGzuwcJcEYPVGghqbWN4bF3/+6B6W26QKeZhz1wuezsroteRI8KPAppQlp8YvOmIiuyvqqzbtWA9qam/ozzHGeyF5UTsjenwVdUuqmwz4DNJCgaaMV5URA+ZuYJPQfntd7md148KrnyvW95U63T8hUzx0jr0NijixNKNJ4GYcdBMChwTMAWIgABh3owLo6Vvo0kHrraUhJCWtiUCVP4oY3JNW3hMxQ9koSWJsY1X8RWvFHD449IvrwWX2F5xB/MjemhgR2SR2lTvb5OEgglicdnEMW2iPCaRLVMSgsNSBPgR+i0JYgMysr8dmxsMPAek7JeBAq/LUIMe2hF/Tf+8s7ibyqeqlCa78hT/GdRVfV8oitpYstxQhmkNYdEFWhr5AHBqwovpKSd1O2A7KUKFzKHvDChdODUWlyiwCEi2Wch8LcDPA6syDKj4a8ML3rmzlNG3T+cUlzkcbt0quG87N7XF33rldX1V3X4i6vgxVS1bcfLMDIeJtT4IDXy5F2Xnvqns4N3raX0biyBvQJIP4UsiwTiG9oqazesH940Z+2RsURihNDtao8tFYaE4vdwSZUMi0KykJQXF9zNCm4OcTZN4iwzQ7iwNWp3elIR3UjXlfWvWFo6uv8HA085apY2PLQxW24OGiA5eWvmitPv+Pm913MWnBAJp/ySJ6O9dzILsgynCCPJzVie4dFDmaV0X4RwsUnH2JfjDATUFlpEA0oSi7fGRo0aOusvv//xfaW58izIx91u73oKKIvq2rrkNy48/7q7uRwsFhIOMOLQNsbpwAA1ZzgjkHAfpI3EPaqx7rYfffP/pk8b9yjrwUq1ewJs01Zs6vjmORfdeKem5eBaPL0GXCJRJknIcQP2M47qFMXWS/LJnNee/dMPNMaWZi/tEaBejZh28U0/2dgQ/4pMNB/qrL+UwDLLU8RriLyFC7t3db9bKQSFA65fAeQx7iEdPEhNqoi4YVOZmyQ3N+0E0hfth/aqweXhOfl1H350WmTVB9+spu1Hy2bKYzEPREAC5pp2GkYkKI79CV4PDSZSKGw0QWJCPIGgwDFniiPFCSJotohumzUICqFqHD+FU/R7DkGmXmQ8JtZ4btlmJBBIwUsSgtOUzZihaZ60pGlpzeNNyZpixoKDdFnzGv5ATkzWfAkaym8nihymHm9MSHKU+IpjRFaS6J8OKBOkiQqRCGG6YAOGaQNit/cJTFSIwv+tbLj01/OWfX1dShuTS4uoyeOQHDtXnOHE8qSCayhhg8xIwED7CYMYapokVBC4egEJqBoRehqIIHwKZLUFNxnQiGNDruJsL0BXwdpKUOCtlAtrgBz58N5vnfzbU2SKiwNux5ZqQTDOaE0e++tn3721VS46JpGSFY1BbjOcJYaTYhgxY/GarwytuP9Hxw15enxo/yxYho2i2AIsrbY9b0tjY3nTprqq8Ob6MZH1dX09EaMqYNKCgKT5wh7Fwy1LdgbL0Js7o1bK1uNCpp2e/ECdOrp4xeAhwxZV9OuznvQvbKTLaYpORYOWgweoDZgxa/3ZP/3FfT+IpqwJJpVVSdYIBQL2eWSOZHIazU4PXXRPUJCKZb4Tr6OQRhZRgXiCgBbplJ46evLAD37/q9vuLwzQmb1FUpCgrKtPXnXBV6+762AhKJkSgEbh2TQCjl6UF5j9zCO//WVZEZ3bG2kB6cBW10auPuuC77sE5VBFbxGUbZEhK879Yl8LWyHel0mtVV0386WL1c3zLsqT0sN0rshomIcr4cIVDtHAWRb4ZvQOgMIRY4POmFBgIj2ROJARp9eDQg74h4SeI0HICjTmhCucr7eJkQZhC2wH165kDPpKFnwcbKmiQnWQhQUlC3U0XAjYwnE9xYG4AH9RLIsx06ByQkhKSlK0FJGklFC0pKJ64qo3CMLJk8yv7BsjHl+UKIEIkVk4WjS5zef1hmVvXoRSLQVpiSwKKzMSF/zAvSZ5CCQod7255Io/rVp/uZ3Xf3ROArrxBDo2W3Pri0TFZilHE4WVx4T0SOPUUShQiiUTjyURohgkbeBijZAimkRs6E06lumY/JCeCq6skwUmr0NQMgHXq91020nDf3vpUN/z1Z9bqhzSQJ6XECPufWPW1W+3Ji5KeyoK5BilaHiNM8ewB6uoliGnorOvP+eEe67sI8/ptwP7ld5EtszjsIxCljYHY62duR0NsYKOcHthMhnP08NG0LBNRZEkChwvofkDyUBeMFyUk9+eEwi1asNKInRQMEaehfydfnBpTRCYBzM+XHHGL3/7l5s64tbkpCAaVRUC30R828XWyVmoS0BLsmQXXToeuthF3HEUzsmuTKASTrcFwixp0IbIIpFsjE097sgPfnnnDb8uDdH5UHf3eWJA3mQIyvnX3cmlYMm+IigQV6cVhOdvbRV6DLgD6zeHPhgu3i+zgEhH0q0XnnvSv++844L/81Jak71ynwGiyVZvAoJy0YEkKHzO288+eCNjbFn20h7BISgX/eCnGxsTZ7sEpZcJSm8DK6RY9p+hnbPfv4i0rz0/5Y0PMBiXCuOEeNIgPD2ZRgMXNcRpnhn7FHQshD0bnGUBbQTIE/znPA9rU6YqQshK1CzwcEYXk0GGbuGfrnu3AdZnhnM00AYG3+uouqGLDdILKAxuLR50FMLE4TPUhsprWZSkbUWkIVZprqd0r9eTVHzeMPHnRb2VA1pJYVUrLR1QJ/zFTdRf2QRvBX4RSAFn0SnNwelTsN09IghRkT6Niv7PLFpy6aMLV1/SEswfkJsoo6acBsJmON/J0CErVx3DT1yoERd3xONOmsCfLnNatE/BCsVZkuiinKi2RDRRRxK+JBCZEKFpjQyIp8mGkB+OJ9BgmugkQGzbR0KaIDkdS+pOGVX6j5+dcdzf+1DatO23YNK9S0jV7+fVXP3uyi1XMINVek0JmjuF6JZOohLkZ9AjcsLr15xWVfDIleef+vjJjDVnbz9gwHjDBgsTpB5sG5x9SFs4jlzYhm/s60g/lGwHxbDfzoDfsnJt/UnfueGe29vi5hRonFWH5GNJd8o5fur22PbYF88eSthFtmA2b826ri1+cearOTWwGYpNOWLc8/f/4Zo/BnezZ90TQP7sFUHpIiI9Abyrh+UUL8OijTptCZo76ELK1OYksfKuu3740NjRw58eXMiizqX7CBA1tmJTx9UHdojHJSh7hd0gKJnuz0EIqE8GLRi8Xh456ZWWQMm7WtpfX5lSucxMkvILEIqKE9APC3B350My4+GmU10cauK0IVCJIOC+89P5l2lauwIiczzzL3MxPNHZwpFtA1zr1W2qmRYENOAkVLFwqUNFki1VliyvomtRVVcjHlOLeW0lGhByNJdJ0RJJRKtlEh1UJPtG+nU+ibWFT+I1G89pm/Xh1xtff+G7W5786621//rDXS1P3HdX4s3HbyXLXv8mqV98loitnCRES3/Ow2jAq6EwycS6e0B87XEhuvGyI4c+ftlJU54r5Ol2HCpBwdNlZIxNDBq4YnOXSRf8bvQRkUlRrES4h7IVvcBqpgL7EaKrbcSCpPen8ogPgsw0Up+PkhqddOFLcEF4QXyQQGbL+siJw/s9fe1Jk58EcvIFo+lGIQob17SesvnjhWd700a5wm2GhKlDpiTh8REm+wWP2k1VeaVvnDJxyHsnUbpDh3/7G/gdmMYQDAhpWkGTGNBjLatmKSAnmfFFKDIQciHvKtKcD9I5HxkXYmwH56MjnA9OJBKVnZ2duZCvvT4DYmeoqQ+Pvfueh77XFokdzYmkYv5jPmJBywzT4d72Ydtfhza2/ZIdBNxs/Z2pF9mDAKcGUca0wKJFy6f99ldPXp4Uojpzbt8CaMN29aangLLZFdkeAa9HZH/2AFAWBJBZ5pAl9CbT7x//fPIMVSEjoUz3jEG5cLED7FbBPRBAo9nOuW+MI3NmXhZq2XCqXpToE6WWpFkhaDhBeKIbZqefj1sczufwD+sEdmp7Byo3nLdlBD2KYVRw4xTTzDuBkDi8yDHaheA0a1lVOFKopPASFS5VcbiJ2oJwXOEVvgC63pxR9JfLDYvZBvUnebCgkxZVNGtllZtz+vZfTXJLV5Jg4WqqlteDzMM1bLZTvu8I2OtYLMRRP3/2/V++05x7nCFxajH0mIn+a6A54ZByED0cKkMHeN2BWRoRaguxpBREu4j4zTIiGRaJeDuJ6UsQj44zXDRCMaB8jtdETx1S/N87zzvu96MzRrHbxbeV8+AHLeY5v33yre+FlYJxUWjQYopCUwpqdiziE7blb2+vGZwXeuX8KSOfPG907sr9PbSzJ8CGGboGwXZTDKqLm8O2hJOD59eEB8cT6fx42tAgvyW/V9OL80KRvhXFDf2K6PKhXrIyh9INQF5aq9m2bnl7F8lksupHdz/2izfeee9rwdxSJW0BVYW6hWUYywjWK5zmfziiSxBDfu2R8Ic74Z9FZOoVZirNQz7S8KMfXf3n88+c8Hd4NC6CuU8A0VPW1iWvuvCC6+7aXQ1K1zfuCbpPFzyF1RkaDogHLoQno/2alRYWT7V+9ZzTH73rhov+z+ejtc7l+wAQHVeDcqhjNzQoh0QK8cbF/vSmhRPDn35wgRJdP01liWrGbYVl19jAvhzSEvTiicM9mAAZf5C9g5SCqzV2JR0Sk8wWG3QcCkFbDWcfj25DTLoQ9uK6INC42DqRhUEUuATpDlpcoH8PgyaFRnEBOw8RlibStsx1SUvrihKmOYWNoT5D1vr6jFhES/p/Knz91hNvfitUFuyt7xTNQpQ++8nm226b3/Atnclex6cMCB/N8YqKNh5ItqDg7KJEJGQvKTAaicJt0qZUElvyEJ9eT3JUEGQ5JaQz3AA1Ow8+2A/koi19TH/z1VtOm/Kbo1R1KbST2xmEQmOj/rczddSdL35440ZecBpN+zXNtmlapsSWbVszwrFyo2PlUfnaC18ZO/jNMf4B6wcP7v47DzRQw9VESOnC+tSkuTUdR82vaR23oq6lutOyS/T8fGBdICwkhTIZyq4EhFRPcm4bpp8nI8MKlIYpgwd+OmVg5cyJIfIxfGjd4F3k696ijfPQU/985oY///3t7yoeT5ENotYCQYPu/bFcOwtLQuk93AlKF7oXyDsCphX0MWyo01SFlse2CvLlT3/1q1t+N2lk8avw+B1Nm9ttQLQOAYICRRviZZpp4vNrNuXJ5T+95eoHvnrGpGcgCtsvEruHgOi4BOVQx24QlIz0PMjBysYmvEedOC906rn/SuWMe8a2cpebZlKXmEUUCYiJmXIEPGoyMgsI9h45cUA1aLhlEOyMeKAx94GwDvA0CQqdhKBAp2E/LRkkrVokqukk7EsDKUmRdm+StPmSRBEYX5NIaKUraUBINJKmPrjTQ5LMDwQoh0L2gaAAysItXAxRzhWxQIHVUemNbJrYueStC+pefOBHTf+553fpOQ/fTLbMPEekNveHyvuZhernUAyyaHRZ0Vo72Rr3ASMSKYvgom6oNREgidAdOGqkdgmBRsY5xGCVxDLgHk894Ym5kQunDFtamVbDqgx5AG2abaVEqY9s/vYpxz4M5GQ5NFCfJyf0g4VrQq/855mBZnuTqoTrm/JpuCVkNdXmdmxc3KdlwxsnqNYfbzv1qJ/98sozHrlg7MCVBzM5ge+RO4XoO6Mh8rWr//HsA5c++swDf1q+/vszEuKE1lCf/nZeP7/KDEVhpiyLpMTMqERTnbLMU6qHmv606itfEPdNfGTexq/f/Mhrv7vx2dm/XZMgF9Rxjit090o9xfKy7OPV0x997PlvMs1fbAmFouaEAVHODOAAYIPGsIcjdiS48VgXsoe6B8po7H3A5bZAE3xJaWpLjrrzjnu/nRRiLJZz57oDhB5/x06w6/s/KxvQ58EyRWRZJYbOJcuWBv7j3/87PWyIofuyDHd1CXcH+B07Qva0i4MUh1QGCbFAIWv0AbWzH5+mJWvOY+nEKDkdy/HLlHLbdoZbTIZaFVRL9x4Ui0FvCasJtEw2BAUIEXY00GcI5WjYKSj2cGDfJM5ETec4ToPGrVdHD6zYriGtyqwHgj1U4COwTx0tEBonoj6FEJwlA30lCQLUSxW+UbPhKgOnWzMRsbxRXj58Q2jMSW97hh09g+SULSYk2AF1b1uljYOVYfOUUx975d44yxsd4SGiBfzENsJERQd3XIEIeZ3ZTt3Bz4F0ER9JM414tJQdbJ2z6LtnHP1qW9w/+r9z2k43gsKnCw0IcopPH1P+zl0nDbimPyFbID5faFSw0QL6nLNiS0fFhsbWyrgRD8Z5mlcVV7T3Ly9rGBLSWnMIScC9+6QX2lsIC5EH5OTIn75We+GsVStP7vB7K2JeL9QtEPSQhdBTIB4LPv8LssrJbQgCCC06ePNmNVrolK5Nr87hy86bPOLRC0ZVPjue7fsp1c2R5NGXXH7z/W2d6Um6CGSPfoaMTRc2EplZcYcjeiKkoJx+oexuBZzBWuwsLOekkUQUJHR2tP2yr53xyC3fPe9B6GnXZS7ec0AU9kiD0pPv6wl2nAZ4CENX2di+jHDouEHVbT73rKP/cs+tX/87pENj9tQeA6LBVm0MX3X2xdff3VMNSndpsOPvysDVoPQSDjcNShconWiSIUevq5529fPpAWf8vVbt/0q7r2R9hCopC+Q8EgYVhPfu8+vdA85QEcImBpCFpBLgzbYnUsfya2t8Fcs3BgfMb/UOmNOkVs9pYeUL2njR8rQo22RbRW3EKkqpRjEq0J3GzFm0DMooumNBBQNqVbAyqEACMuP+6F+EOqsHo98XApXEBkGHk4MkSQPCI9E8v5IjtW8YV/PuI99qevFXd9jLXrlCxJYPgXr3hZarICRtHNuvfLmUiNs+NGizoKzA+/E9NsQFCd4uQXUgSibx02hb39bl/733/K98v09uv6ZX5q0aFy9SfBbXiM0s+J5OMnpg6ep8QtBh3w5zBI7zXLhwSnXB8suPGPL2dcdMePGW46a8fPHQvjMn53jW4jm45qAlJ5DGdF0yWfWv5Q1fn/6H//72f7WNl9RquZUpmks9IocoaZl4TCSaOrGYTuJSCEKQJCU/BB9JOdsgScBxrIp+O+EQUx2ICi0o12pTxqAZ8xcMaYjq+3zRy3g8Xvr7P/372sa2+ASLeB1bk60BCgaGLhyu5KSn6E7AISiutYFtAktBXQZyiW2DJee++PLb015+e8kpkHcHZDmDXcV774GP7yobWMWxzHwWKLRZkhwqeG/G7GkfLlyzX1c87il6P422B5rVZ3dd9ACHXMsD5cmmFRNr+5x+0YsDjzn3AaVk4CO2x/chCPwGJoSucRtHLHoVyaDgHaoeadXo8pZQ8CUxYuxfxBHH/oZNPevnyslf/an/m7fdGvjGrT/MueKmH+ZNv+m2tjEn/bqp/9H/3JQz7OVVat+Pwx62KepBh/zEjmvccYGeVJMkrcaJqWSCoSSJrqAHXRAW8D1eQyKhlEK8tgJEQiFJ6gPBlkMiKUH8kqADtWhB7pYPjlo387/f2zLvze+K8KrR0DBuNysEMrvliNFDlmjCbnMcs6KjNYAzswdCT+wMWjXD9ij2ohOLvL99+IJzbxzuDXgffWn+heGc8n7JZDuxcT0eHC6Skjyo0nSOED1y1gT5itNwHWd2uJ89fNACCcOGeHzkXz9Y+b0/vPrpzWu0gSN1KaLm5sgkxzKIrzVO8tISkSwNiIiPRD0adBxaCcEgtREKwdnPBi63Qb6HCU4BtySbJOIJIhvcKvMF9D4hDdNwn5VqFJgfzFtx4VvvfHgqkbwsiUN1DmXGgOtffaY5QeDRwxWQFj1KVyiT3QgWeAQUWUf7CB0NC+qV5vFJ0aje/5//evzsTXUtQ7IXHrLY+ffjYUzCbMCqmw3YAUuluZxKGyP++fd/nN4ej/eD5O4mHXsGeAu+zMWXAHtdWA4koLBLItaY37BuwejwmrlT+ZaVE3JFfIhMogWSxH2KJDPb5pmRFagXOLaO0HQQxNlOPU6dxSYYh1UydRC3MehBcoJeTB3JDZ1Xw1Zs3VbjJlMbW739lsk5pSsLho1ZkDdyynoa6tcMcUE/Jdjbz7TqGXSlL77YJ1L1oZbm5kp9/kujI821Y9RU5/B8muyjGokihQgvo4ymLU5SqkT8IORVM0WEmYReCK73IhNDwkXoJIIL0CGcFznx7xoqgD1VJelOqT006OiX1NO+8ndaeuwCiJfDRLBx2GKax171r3fvftf0H0+8ucSfjpGCdBx6+IxEVBzigSdhr595iMC1RzQv0R1tEbyH2evG+N+Zecv4qY+eVjBh6cqwfvTVr370i3W+wDjFNKTKdJLUqpwERR8SFx3851eOeeC2UOhnjLEEvv9wAaQj2xw2xt704vwbXm/tPEeEykPU1Ii0F3aAuLggZqshW0SxgRJAmlMRrjt+SNGDd506+V8TKQVGs2+wsdGYfP7F3/+TbqpHoFdUBoSI0J2aL+09HJmEVQDKkFPvtg04wJWZCZcp0WhLhtdhnPA3CDoBHW9HgYTXZ56R4bDwG7aShctgfAZ84rbI1PHusXMBvD0g77d/ePcQlpFq/O61lzx05ZVTH85h7Asrd/cU8NrdHuLp6Tf1FLv57UDUGBBxhXARJ34frz3uqNH333bz158qD4X2eLgSosBW14SvPGv69b/oyRBPT9JgZ9/VG0M8p0+/6WcbmuJn9foQD9QZGe0FIe4cOp64TpiTF3qCeKF3iprubrHryaHdAL9r59+WSqaIx0OFYdD8jYfDLJ5dQYjlquhIluj1tUMaViyZ6N+ycIxmxgZK3CpWiRVUGPdS21TQ5xmxTWqizQjel/16CafRALCcIp2RaAlO9bV1LlIpmcXikqc5qoRqaV7ZmmBJ1ZLiUUcvDZblNhIyKgLlf9et3zaAd+BbtWT7usLYpk+H6bXLJ5l1y8Z7Yo1DcphRrhAjJPOUZNoasZUQNEEgOCBe6F9EdtxqwE/Yy9QobIphb2suAknhfkJlhTQIu1MZceT/qk+98vf018+sp3dn1qxpjsdLfz1r401/Xdb4fT2/QpOMFPHaOtypkhTzkRw9SeKyRkxcbESFB8ebeWW8YeMkJbXsvPHDHq86YfKbJdGo/9UVkUseXbj8O2v98mCLyRQdtRWkVNImtQJBqQRCFRc/+sqAR++uKsKK3CvrchwIYP6tjelD73zuw9s+6EhM71BzNcaCREpBGfLsRaUGAYxFQzAUzEBYJC6UZPPSK04ad+/toypfKttHJC8c5vn/fXPmLQ/86cmbBPMqjn8bKGVYpnoXXQTji7IAY5Cpi/DH2XF+wFHY4v+t5GTb+5GoZPa+qDH9rEriJT0douqpQN+ZQNsR0OesJqc+fOmFf/yqMldGV/i71V50AV55wAkKYne+nUO+MQWHpVNwY9KsKAnM+tmt1997whEDZ0DU9mjoFl6PBOXrQFB+ua8ICmJH37VzgrJnru7R/9FXpt/00/1BUDgQFAUJCiQzDt9bTCW6rtt+j2i1oh2m7FXQDZZTFuHLIZWgR7wVWAnxJ6Zdpmbij+wWkE1T7PVn0bWTSUT4Jbp6IllNQLZiwx9mmdROpaNyNKmP6Fj/ZreO/La+4HAAlDH4nnCO2DKnKtHYNCzasKlfqq2uygw3VXh5osRLzByF2B6bAZXMuHlwoFu2YJSaTGJpOBxv0Us6ZY+3UQ3mNvFAQYuveuAGpahqs6d0SF0oVIGk5LMB+r0AVjbR3h4ww/P6hDfOH5uuXXsEC9eNLow3DWWSlickn2zaECOK05YzztSw2nTF3ClRWBZgg0ObqEPxJvzE8KdIpxYlaam0MX/o9AfyR530T1ox1OmB4ztfadRPu/mfr97Zllc+KSahT394jO0FcuMFgtYqPJKky6lkawlPrxhf4lt40siKhaeMLfowFBZiYYd81r/nbTzrlabYSZ35vgIiOiBKgqhmHnQX84gp1RKvkUeYbJCLxoVevP+owd/am57jwQa0Obn17Tm3vVEf/npKK/B5SJDICZugTU9iL3od6CYPBbEMmWngoouyla4QsTd/cdHJD1ycS+bsaYO+LbB+1DSFT/jmtT9/sLEpMZzJHuhVMejZ7ZPi3A2cEprZ3Y4sYPOD5ATXc3EaRAhwHv0wY3D2oRl3hk662k8kctlndbWPXUu+7Ez278KQdFv0RKDB+7s+ZpdgECfBYw1nnDrlkd/dcc0D8Pg90oTBK3eLoPTkO/YEu/PtuAI0DvNA2wppYBFhxjonTxz22J9+f/sf8/fQNwq83iUoPQDGHZcJwVXgkaAkDSgrMt9883ev/NvwPsWztQAxLApnGMXV+gW0OwL3gbVA34hJ6H0ST+OzIAVhd/t0RDef2V0iQxG0oAmBbvTWNGTwlGyiOt7VYUdwSXBqM8vWLaanTYXazbOnTp3abePTeyl0gAEpgvYX/pToCJr1a8uNdFtJsrUjT493+Kyk7mWCKxy69pCAtqRqlkyVlKx5Y7KiRr19q1pl1dseLCwIUxpMElKMM0l6XDH3BKgFaq0z+iTrV4+x131yrNW8aUKx1To4aMdygHIquJow2jKg11eFpOGG7JAO/MVpoI4FAZQhX0olKW+CpD1JohpB0WH2XVRyxpW/9o3/ygtd31AbDuc/8XHj6c8sWPKdtqCnSoeP9xqK8OlKxPJG1o8rzFl9dLF31lH9SldO7t+/YaWul81rJ8fOWNs+auaqpWe32FpfXcuRqEVJSE8TLxTjlOolEWDpRE4SLaESJpnkhFJp9lPnj7s8rxfW5DgQ6OgQOfcvW3Ld/UtW/CAeLCsiVi7x4oI1KCrQdxwuaLmHgKQEYUOJx5RIWgGBLaKtU4r8f//1RZMfmUTIpn1R/jjn+fc99Mqdf//X89d5/Dky+jvBlgOJwHYdqH0OeDaSN4dQYJvXFfCTuj4L349lOvMbrkQjBh3axjQncThpm8CvYCuDwHPm58tA3H1wjQfdbzg3AT7TlmSGzJy93Ug5SOfsXd3DaXJ7BE4kahpBH/34/j/8/BdHDC/5EF6x24wQ27N19clv9tTVfU+/Y3fR8+8GQMI7EgrXRIMs0iCqthFede0103993RWnvAzN7267wYfX95ig7E4a7Oi7DmWCgpMqZBwmJkAM4XfaRm1Kqunx/7vntiNHVz0Dab9XLhsgubqNPCR9t+UE79/VNYjeS6GDDFiwYSNnEwZJXVcCZVrGTMDfTuhJ4vUGIF5KKlVfmtr06ajo4rePp/XLjggancNUYudTigsmOpMaiQI5R7ntTOUT0HsXVIZKxIjPjJO0yojJJBIyKEkxLV5TPPB//S758Y8DgZFN2dc4DrqWNSeqP1i/Zrgp276qYF58eFFJw4Si4CYfyOKuAvz+pjVjH3xv3Q8WhXOP61TKyyOBTgWniPlNnfh1qLCm33lXwpMmSS0G8QehbeDsJIuUpjpr3rnh5OsGyvRdSM89Vy8cBIB8kR9d3HDWb95+/66NOUWjTZFDAoYP0kEQXUmRqFeH70aP9nsGkL5ExinkJs6oSlshOfrJt6dOvu+a4YXvllAaz162x8DyvqEuPPWqb/78wc44H2Y7UhvlJFQL5PL7fuHZbQBVC5/veFrOBOitwRZKMjeJgM6Ygv6LRNqgNN0hqfZmnyatz8kNNpSVFLf3G1DRUVRYEFE9atKEK+LJpK+psb24ZmNNaXtHZ3lbh1FlGVY1Y1oJtIwhKmnENG2gMAr07IC6o41ND4GNQna3W0B69qx9gKdxYRJuJuqnnzPtzz+67ZJHQnswZRzbhYOBoCB6/O0QQxRjaENEuQpJAbfZMb0gX3r53t/87P7Jo0vQPm63yBq82iUoPQDOyJQcgpKdoQn/GIm2/efhu28cN3TA05A0KO8OevReCrnYK0B9UZPJuuLU5kXDEitnn2TWLDoq32gdLFE536YehdlpYFvoYht7KahXQZLCiCYixKAeaAp8xGsZJE1ipCGnZKX/mO/8rHzC116Ggrldaw3v6WrhUIv3hUr6z+Wbj7n/pVk/afQWnZrQ8qhk+4lHdMB7oo6DuQQrJGkQBBQ6QzJtIyYvIz7LJrpESY6hJ/924dG/ObGMPgjsqltjqIMdm1Kpvtc8t+JXixqbL4x6cySZhEggjYzXJglNJxGfSfzpPZ9FySHlPZqHmPEwyVXSTcPy6CM/OuPkh0/O27EPmd1FJzDHF5758Kbf3//szZIS8lgkQThyUCANuDRBrxMUKKGo/cD3cZAF+EmUYe/OIBJnSdkS6woLAwunHD9h1olTJy4dNKRyS2kgEM+W1207EF3AtkuORIi/oT1atGzV6v7vfzD3uIWLlh2fTNnDNCWUm9bxVrhsu7lsuwa8c5ft4o4E2o7AIcpUBjGh6+nyguDbf//bL+8dUO6dC6/YLQEBr+sxQelJ/PcGPf32riwTkAGo0LZMk4T8CkklWhunnnDEX+/42XceLg3u3qKf8GokKFcAQbnnwBEUMfe1Zx+48WAmKNjxQE/hCIegQDViIhx9+u933zh26IB/7275O1Do0oe6OMgABcjw+6vqCoZ95cOqM65/qOLk635t9D/lsTa5dFGaKgmu+AiXFKg4WMgp/MvUrxTzOw0CBfKSlkHoyCrJT6sV0ZUrxgmx5QtTNeA9VjbssNEZXpgfzdP8hKiMpuU0kJ4UkWyVpGmu4/Y+repEsATBactePZdosMUKbUmCxGSvb9aapkkxQgqyjzskAW2XPGNl/dRPW1LH2d4ioF7orRhImGKTtGI53ngVHKPZC2jQ40nH4zhKlPBSY/75k8e+d1Ku+MLCinuKRDjc75XX3jyeUs2TSuPaTwjovG6V/70JTBvU1GTKKs6mU1SZmFbasnl6bXV16Mlrrz37p0/885c/ueuWyx8/ftLwRTjTgzGWwnqQLZ84Dd3RbGYD/jZyc2nn8AE5ay86a/KbP7v3hl/+66+/+NY5Zx77e1mKLZClpKFpvfNt8O6eZThkX9rUidcX1GrrGof+5z+vjIaj2087OsTQ4293xAtqzICkAAFWPFAO9QRRPcGymbOWnfvSizMnQ906KNKi59+05wCevE/qck+Q8WkEOeAMHECnwDEDcCoOMtpe/9Z9BZegHOSAemMwX+UWz5ivzvBMu/nhqsmn/tsTzF9r4np/MvbYPytruGfQHKe3QoE0GIoOvVUvCdq5QSvcOaajY22/zJU9R0GQdQQLAo2c54BU60fag3HSAr2gDrUQxFuABKDxLdCjJKQzIhvFREYncgJZCieGrJB5q9aODgsx/mB00tRTLI+k+7w+Z94ZlpxbirOq0F+MoQAB0ywSV7GHSIjH3LuqZOkGUWQ5DVm36Jipk58dO6Bg4d6OE3cBhICyduOqI1avWT1UUTQiSSA0sAPlaNeRpPR2u4klEwUVphEOUQK9M61EKBice+5Xz7n3jt/9+BfXXHnOG6WlQSRkyJj2CBWUJkcOLl95w0+u+tO9v7vte8OH933KSLft8ZTWfQKQe5IM5cWwaDAQKp0966Pxa2ubi7NnD0nsSNuwQ+BVDinFsgadJQgc2gbTEkSWPENee+m58z755JN94hvFxfZA7YkT8AeSFGd4FbVuhxZcgnKIAIlKTk5JnTxy3EpT9jR6ecQ0jDA0FprjGwU1Fmg+G7A7QYQmiUW9xBJBNLohcqqdBZLN/VObVgyHxgBLao8x0OvtPLLSu8ljNsUJiRDF9BKPZRIvDxONp5336zRIUtA9SHrCJA38XDN8pCAGB2STzDXTla/WpE9LEJKTfeQhBUyvD9c0H/mOXDQhJaWYRYFIgFBXLYt4oaFVsO2FBsCZposC3xH62GvP9tydQXhIcrgGj+gyNNCSTjzcIMG0AaTOJoYHLYyIERRb1nyjT+5/fjWs4O0j98CAcGdIJEThE4+vPc60CgqJrENcw84q28wOQtlBu5lsXHsJQE6BFFEiy9hgxolMw7GQL/rebTdceO8PfnDh00dWFdZB+d5nkUCbneMnDfnk4T/84EfnTzvir0yJ16D3RsNWiQl1xYb0JywGcbGIbH2RN/dYAPcADL5d4Whro5G0yPXVd9LR6zcnsB5+cWzmIAamSReyh3YNlI44lAf/JKgD1JaIIkF6M4bedn1rNrSf9NxLS06JREhu5oYeAd+/S0ID5elLTXpwdXoLmh2ca4NNEGpSGFeJijMpDiG4BOXQAkg3E7shIBqhxXUMDbvaAWceT6bTgtkKO5i5stNbtonMjeJ0Z2sfOLRblpxQz/X8UM4WCb3XOU/vHgzaL/SDhxWEmoxQ2S+9+P7ck2ttchS0bYdUo4yIx0Xhp+vrp5rUs8spjZmeSleVym5ROwGyt8tZmMeQiWZ6gNRpJOqDnrXXAtLXYYSibcvOHTH4selTRr5cxliLc/E+AKQ57UxFhixcuGi8LMvUtm2QD11x3D3saaNP4X3oEyOVTqF/l4SmkVk33fjdBy8449i395V/lx0hFAq1XX/9lb8/deoRj5mp9iafSlFLBdmBbhhVp+FGT829DkdBAOUAyr+hp8vfe+/doXAg6Jw7SOEwkW2QPbxPoXmDFe/MmHX+G+/MHgmv2F1PgXtUFr+cwLYHOgfQvcr8PnTSbs9aKhcHBFCJZWLaXtO0NUqBMlBUhmQaPzSTRe+j206tdEgLasyFTjQ7HjBaavsLkcSFX3YHdnlRXoPKaKwn4gk1CmkZSQonfoOQXClA1oRjVU8ubzi7UYiK7GWHBCC96crmlpGLNzcfqdNQD4aoMD8wdFUrbNexceiy8+BEhl4kGqWmmUJSGiXc6kxX0+iSr4/r/8i14wY8N8VH93pBtW0B3+BZMH/lROC1parqOGsiQFSyZ3uOLnKyRyQFBLRhcuLRFENV7EU3fP8b/zh/2qRZ8KheX2epsLAwetMNl/75tJMmP20kOyPO5CWUhULJ5Aw6xtsBIN32kVDG5MIA74G6SJmUt3T5ihEbW6NFzumDDPjdiOzPXkUyBa2VGhj/1LPPn7d4dVM5vHb3y5aLHcJZgdzpLKHWEko6lD0hLGqhe/BDCC5BObQg49gN9MdBWArJcWTlAHUmWBAth6DgjGr0voa13RIgA3gKh2M0Fm0rhyO71XMDISJyvVpEFTwp96C0oDsNJCeoQUGDWR6zCM0rZ3//cPa0ORY5g3N+UPcctwU0mL6ZG7dMbJd95UC3ske7wVYNCqa8IwkzgWYaCcyRtMJIXAE6KXGipOLJgYr45OuTRv7zivHDXxhV4NsnM3a2RTweD8yeu3Cyx+MJ4lCLoigEtSj7E2hzIisKN0x98/QLz3nysnOOn7Gv7Gt6gsqcnPabvnfpX4cPqXjbNhImE+haXwHehNPhe3P2UgZYGhwhAUGSJLWzI9pv0cK1KJB3R1j0SHjvEYHMYn8Rky5ovlxiWop3zaa6c/73wktTmw4Sg9nDAk471AXMVpQNkMGyw8j3az7vDXogclwcLKA0onBLD9qptF+Gvpgt0AMnzt8BeuK0S2gtnxGQUpagOP7+VEo8Emc+PVXUVtdUAkd2C0V5+dGgR4sIPbXLgo1vx34Qh3qAGhxF1kjSoCThzS+59f9evmZtsz4Jq0nm6oMbm9LpgtlbmsalA7khZ0B3L8G5IGlZJ7aaFKreEZ3klT+8Zepxf7pu/IBnRwboVh81+xKdutRnzseLBpmmyVB2oQzaXRm2N0IP4YxEWomOCeOGv/X9b5/zBjxuv085719RtO6mG77+mNdjL0fvrjIDomYJdPeWveKL2CcCu4u0oibT6cUSOZG0Kj/5eEl/ePxBI5D3ybfuJrCtMtAHjhrq8+4Hcy9594X3em4jl2neXOwEAus6pBB2XDFgx4RSiVmW45ERwyEBl6AcQhAih5nxsE8WhpdxiwFJyZABLIyQlVjhkZBgzUUNCh5DTQbmMq5Qq9i2XxXGbrs7VQXVFUnoCnrU2gVQT6BAW4yzedAgFN8v4wrM3C+1K8FhD8/Z+J0NQoztcUN0gIDx29gaHbwyEhsaZ5TJdg9sFdDOxLE1wbbeyYVMAAGFWi0mydCDNoVXtEfG5Zlvfn/qmAeuGJTzdi6lnXDhPgd+Q2NTx/BE2t6j4QQkJojszz2GxLihyKmV13/vile9lNZlD+9XwGeI6gn935922uSXhR2PY33AD7OM/aFNwjdh5wF7sWgs7M/bUtc0oCN1cBiOQzk5ID1qdGCHI6KcaCyRkCe89sbcszZsaCqA6OyqzO11mfw8DlQa7C+gIb9u2Ipuo1fG/Sv3IWkdx6gQ0K3+buWdS1AOIUAjyxLtLT7GTS8TFvBhFHyoJUFigqsjfJb3aLWN2hW4ChrFzDx4XOKFMu4UluxlPQLVhKHidGdo1HcFDiXKZ3Ki2rgqMwSFEw+wFNVSSEL2yP/aFD3tnlk1310jxAgssNnbDjpA3HwL1jWNabak0hR8t5/3xFwChR2GrnTCZMZPhFaYypgPIhQJt59SGHjjp6dP/Nv0vqFZrBeNRJ1vmL90nGXRfTasBs/c7Yac21b0lJPGfXDE0CL0HHrABEE1Y6mrvnHec4EAXa4w4cxk8ki7a5u5Z8A5dvgXq5Akaf4tW+r719W0FUFy9rQuYsofXkJUpIhXhbbLokBWArmLl2ya/uxrs9E3yq4zBRs3FzvFtgUFyQmO6vp9udKGDQ1jZn6y/OTZC1afOHfJqq/M+XT19NmL1l4wd/Ha8zHM+XTNebM/XX3ux0sxrDv34yXrzpm1aLUTcN85t80xDHOXrPvKJ8vWnj1v2dqz5i5df8a8xeumzVmYCXMXrT8Dzp8xZ+HKc2YvWHxyS0uiZDfKvJvJhxI4jxY1vPbHK6Sl736/yG6pMrweaug+gk7u04oODa4CBMEkPkOCfZXENHSDb5EADrMDcQ6rvkWei+//SU7VmLd3R1BsEqL06kfefeCTmPd8XVWpY4ALx7GB7wIWOcf+BYQx+kYxJZtEvBAP20OK4jIxIV7tAZtQtUQEkitj3xgk/fO2E4/7RxnV1kBcds189jMSnFdc++jbv3nNpNM7TJ9SZAZJTM2QlK5K4xhcArpSEtM6u5PZIjlx6iIOwQGt5HZ4Wt+8V354QtU/jw/I83vbDqMjmay+9ccPPPTJwvWnc+5xIrVtQnfXTECe7PAsNC49LjcIuNjyetiix/7yg9tHDer3fvbwAQNEX7nnz8/e/Pi/3/yJpgZ9NteJkHY+4rizdOjCLtMDExkCZwZsYAtk3acoXBadc35x1w2/Of3Ece/AK3ZpCIPx7sligbuK7+exy/j3ImQ0ptct4vUUED1pEVkyrPwc/YXbfvKNO6ZNmbQWPuULcYPo0pUbw1d95WLHk+xO/cnsi3TY155kOecjTp9+08/2z1o8kuPlGh22ccd0UcJZPCQ/YBtWus1M23InJC+Fr8beE3x75vsh1bLp0J18yLQccEf2A5wNhVvgdniqYHAzLvZJQSTAVdDyeb2SISt85q9+cee9x44btBqyp0dt/kHbg3WxI1DqjzYwD49R9CKbTinEZgoUQoPkQkVHfyihNPq54KRDw0IpoOcfg+LZCQQBhKfwpkVewW7PnAiLpCQxRv2GslUoI9CDarb9dYozEhZZmCQtM3g3VG5TgcZfkCZPgsQVmwQTcK0VITFW5H10jW/a5f+efe7icLo6+7iDBtgILk6S4nkx7zBmBJUcC5oplvHMmPHO+Bk5QXSlgUNMIKBBpAxdFs3GPLHQIBYeGek8d3Di9R9N6/fXE4LKJ/vDSBSEV9GCT9eW66bCcHAOQ1dcnfjuQ+BId0Z7ZDllQU/aIIw5URWeHji4dEmfEm25c+EBBjSM5gVnHPmu32NvNkHwmLLmxLcrdAHJNgbHamQvwOGhNpB1CcqFzCHIMklxgyUIzZ+zcHkhXLKbjvgPH+g2JK1CScruIFxNQMmx5PawfuLTT7x+VkNDN+4QcHCY6fu4BB9eQHKCQO06ujjAlY0ZFyQcZWrcKPZbdn6laRVUWHZBKeyXwbYcAx4zzYIKbhRW7jwUwfmiCmEWlWdCIYYyYRSVwvkSy8ovtqxgMbcCpaaVU5biBRUdCV9lPMZLqeEMMfUYLkE5xABtPgh/4KZMpgrkHjJkaFozAgeCIQWILnkdB20+WyeqDnJQSCROfSLiL+pUmYTrm+xWo+tPARW2LCXWA+sVXUYBxYkX+oS5aUK0qEE8kkQYNDem3xSDOxqjY2Vr2bmjK2eeMX5AjNuJLzREIM1l6G34YZsH2wIe5UU8xktgvzh7TEMSkb28NyDXtHYOSRhGKZIwbEQ527XJDDqrwyqlWhqQRI3EZIlwzRK5RmdkWt/yV686etLDxyr0U0j/Xp9ei+kTT5rltm0XUOht9za2fQOKdJ/PR2xui1QqEb/ggvMXBoNlvWJnsycoya9aN3Lk0IXQz+PoVqj38VlR7drjthVo72gvjEAVyR7qGQ6joQ0kbdjHzpBD7HtLUHakgiVLV1/y4ruvoDH9Fyodtl3QOcj8c3HIAAoto5QJRd09Pu4SlEMINC44VXxpImnQqpoCNScZz+BdtZVDjw1nz0DPHSs9B0ah5hODBUmKKHEtGNzCmG+3BUWqPZ0XTZuFiQCuodw9VJDoEke1c0ZX6FHhlmQLyTU7608ZXPzS/WdNuOvxy4+4/sdTqn93xcjqxyYUFq5ybgRAg+RJ8ET56rbGMW+t3XDy/R98ctnPXp/zw5s+nHPX996fc88db87/+QMzl97w7Nra6Qvak0dEhSjcUSO2t4Bnepetbx6UoiRgQJqa0II6xsa7ANrfIBmkXHM0SEJjQrbDneeNqnj9t6cN/OvpQe8n+4OcZMHa2pIVlsV9u+uYDeK4d0IQem1YJr2qaucGfU0nHTNoGTxyP3hE6xlyc0l0ylGTPrFsPYGO2/YGu5tWmYUS0Q2AFGqoayxVkmK3HCceTsA2aqtGEn47fp2oh1hEG/nyK+9dsnjtltLMlV8AZ73aP+kezkgGbDK/Dk90aRD3JGC7/wXAQZAIuKYWXNFz7F7L5eLAIhi0iL8waqv+qGXatrBNyEABhQI1KJl8V0kMumRxqPgWsYmHxOwgCdt+IClKXUlp/hJNC+2Wl1IkAMtaY2Pr40bfnkhpzfDDPRADlZGoVyem3NE5bUz1Ww9dNOXn9x074CenD8l/eJTK5gxlbFMRYzG8B96hbkzyPk+taZt283Mrvv+df8/7za0vr/jNHxa2/fShdekb/rKZf/sfjewbD21Kf+vnn9b+9Ia3Zt/37f889atfvfDKBZ+0tOyOoWGPkKTUt7491sfQPN60sInOcfHD7MluoAJtRI1LAjoJlsSFFOmInTWk71s3HDvsL4MVuhDq5v4iJwiWSKYKLVuojPX+rO6MTg6zARIANql0ggT8mlleUlCTVmg9nj1YAPnAx48bsJxwI6KiUOxtbC2e0IHA2WBQV2VF1jo7o/lxs+eeneG2fVrODzggXdCYH8sO+sB2XCVIKmy9SmNr9OxXnn3ulB3VbSqgUjqWcC56D6iZ39Owg6yBXARuzna3DLsE5RACVFY9Z9DYuhT11duSaqB/CSGcBd2hWGDO28SQg9C9kInXjpGA1U4CskWSnHWofcbP0Macjsu8O6SgJ8DG4ZWNjeP/Ov/T86JqqFSyd62NjqheYngVIoy4GJwjr739vOMfvGvqyFvOzfE9MYSxVdCbT2UvdbChQ+T8Y9nG47//39ev/9mHn97991Z+3Ux/1QnLg9VDGnyVRXGlyGtbAYmmPDRGi2lHoC9tVwpUmlue6Ddu4mZ/cfFuD1l1B/hmqbYjXtgY1assSZGZzIjSwyGSoMGIBcRQ9xlEMtsTl08Y+fatx4348xCFfgxx3N8aBO2juR9XyLKs2bthRgHx3K0G5DNkllnoaqIyXmuTxgnHHb2lTIgwXnEwobKytKakMHeLM61mF4Aysc/KFy4ciAnFbUrNtJUX7jADWM+yp/c79jy/9x44rJNBpuQI7FRBUgvoZlm2VvriK+9++/lXZ+Hqz9sBV06gjiHKzrEv88zFPgDkBpQ0bpLdG1J1CcohBGhLdKlwQINSVLVR5ywhKUAEgKXgFGKnrkOdbJcKSYIFofKngbC0k1i8uSNUPej9smMvfJmWHLkentGjigv12/f08prjf/Xuxz+cn/5/9q4DwIrqat879fXtvcIuvfdeBBEL2HvXxMSuSSyJiYlpasqfYpoxdsXeBVGkSu9tKQsssCzL9vL6m3r/c+a9xQV2YVHq+j64O/Nm7szccu453+30PN2ewDnUYwuXkagRJVCpXdW3cPHfpg367ffS7P8ZQOmWw4nJAsaEDU3hLn/5fPnNf/x0zRMrfOb3ylWzLygeD2dSHsfWSFQjPAsQmfcRlxQgCXqAOGvqmyal5X7x4PkT/3duYdayPoSc6Gm6XGVYyaxTWIpORSu1rK3Lj23HCMWFv4hCbFqtOrmb58t7h6c900+kKyHNoyPWTi1szU2BVApV9RO1cuzRlD4qkoPmxsSVYwUWCQfDvXp3r4T4n8qWow7BlmhrLsjP2GNqOKrrZAJTpUXNYlUCu3igKmEyIRxSkvdVVuMU8O+kHo5WrFB3ofUy4BgluVaaMY7wzuyBf37m+e/jmDPrcgtADiHTTnK+fYcB+WHlxTd27ZsYXDAO0KIqjok4QTmLAIrNJMlZ9enF/bYbvK3OoDzoua+7d3DFQDfB2ToGEBWnXusp3msMnv5h0rk3vWjLHoStJyHL41EAZV9Y0xjKf+iL5bc/Pm/Nk5v0xMtMR64Dt+jnzUDMV/twNO1Svj+25+xHJmb/frJT/CCT43AL/UMkFr+xe+ueIfe/PvvRj6vDv6hN7jbCK6Z7bNRFk8MaSVA04tA0wukRwuFib4JOvGbA9Bj799w5ImfGYxd2/8vkVMe8Ikq9h7/7BECsDoQzfYqZhNPzsI9cAFWI7ljwiZRIakifVpS95LfnDfjnALuI5OS0KNJQKCTX1tYmCrzE6eapC4JFlEGr4EwykxihQX27lkMaRKJ3zxwkEhLoWly4l5kdWuDmhAHJoq7jvlkCNU3qbK6uxdVkv5N6GNdnsqZeIx+xSAp2f+kWicMEafQymzfErnrkt/84P/pEFAYIFLrYz7MQZ3HQvwVA71NdP7hhYYcQJyhnHVwBIbdwuyjZd+k6CwJfhdoEZiOOhzfVhEBZvVNr3s7l9vvUNuWeF+zTfvFfPmf8QijP7bILFBxwNnCZby7aO/2XL3/62zfKah/d5cocGbKli6ZhJ3pEIZLjmDVx5YfFXb68e3DmM/0EYcHhrSYI+Ib0xrptw56b/eWPSwX7tfs9mWleMZEjqo1Q0UVqXQJpsPPEj10EuO4AUC5JcQdybIVrLp486V83TSr+t9Mhrs/pANn6hpACQS1bNakLa3jWQL4OEhRVYGaf4qK194zr9UyiICAhPBVTRNoEpL3N5wvY4Ih5G7t6dEB4T4jmxN2LNU1nsihF3B5yxnXvxGCkJidWAb/tEHmCNDwhRBjHD2Mtkhc4jplM9vuDOCPtO6uHo+PnkJxgAbPaU8BF964S7IlEkpPTP5k1965FK1Z0iT4BvnjsHWKnadA1UPCv+6bi6CgwxShoBoqzJjqOOEE5y2AZ/ZyiXfbhl33lS+mxhvckb5FTUtfxxcO+FEZf+opy/Qu/5++e+ZO0W/75k4S+1/7VIaauxWdACaKhwlVkBXCiaVbhNF6b1/SmLNlX3fup2WuuufT/Zv/hzvXh/1vK9bk6pBXnJPqTSKLPJO6IQWymk6hhD4nIAoRBIw4zBIrCIEEgE0EnBxWfGuOCLuKin4wvfnqAICwCW3eEAsHv/2vr1kF/WL/pR6vcuRfXcy5PRshLMrxVIIgRrHGTVA0UE5gMbNXleVFNo8FdPxic8Mbrlxf8/nd93a/3p3TX0JNr+IXNkUgKlWyOBL2BBG08CdMkoEqNJCiHiaiLxKZ4oBYHWlLwEVmvhyMlQdFDxqbX7Hhsapd/9JH4BV1Oc6tBmOOc+6sq5GAwRBwy9iKcXJiQ3SzWk2WaIDMuFxIe1QyTM2Z6cWtA2FhhXm4N4xW1dfM0Gkl0uGpyi/s2aJmpgiYNWwt4KlpdgTheUJV5qaypGifvd1gPo3mMnZ4S8GZ0+wzcAFTleMhbCK4pwTWdKOK3rCNwKkTcgG9AWYdKEC40ia0n2KJiUIGIfIgoUNJVM2viM8/NuqKlq0eiTE2UxTOu27DzAEUMRfKbOngeyxL27IJDZo8rsQDtxBoQvrzDwLfFcZaB0uIqacA1M1Mu+83fXNf9/ffitf94XLzoyZ+LE574jb140rO2lOLZlCbtBXGwNAiSkgbGcvYSklemKF2WNwZ6flBKhv9iwaorrnh9/qM3fPbVn3+xs/o3nyamX2/INYW6VCerch2J2GtIyF4HBKSGBMD5wElIIAxr+ylQvrgoGSVCwE+GZiRvu/Ocvv/OsdtXw3ePaGqBMNClJTsLZ3564B5/ddo0KZwj81oSTikkJig/QVCIyuukCYw9zwX0PK6m8qJsc9Yvpw/50yNju/95bJLjSzfH1bb17hMJJG8NjUoyGJBov7dVucV6HSF2jScRUSchSbH2G2KGjYRtDmIyhaQZwcoHz5/y72KR+6JldtLphAS2RVU1AbvmIE6xqycTkE7WjO+oglJUhXE8C5sCOaIV7UyByHMRkN9TWxOP5QXmCciyYBq6CMfjUtqnGhg4XC49Oh0YSoYVBZxOf3xrWhwvoGJFVFUlyckp0tatO773p389b83qCQQ1jZmxlchOE7RvkGfAtSiO7oj9/K4BuCdQ9ONMtzhBOQsBeaxTT9pOObPbHC6paKbgKZxHnWnroUBXgjtkhVLwa6mTYJhkfvrhV1dd/teX/n7zsx/99+73lv/jP+vDf1zdnPFAAymaahML8/iAned0D6GGh1hHcMSE2reRED2aHuKAUobrnESXfubBaKskz4zUPXDewOe72fkl8L02WzdWBWsz/jxn8e07Xdy0GpHaqGwnqiESP+cmIZpCjKCH8Q00ks2x3Zf3L/zo99dMePrvFw984sIs+a0MjsPBvaeqRcJWWdeQbnIcjwQMmQkqZKzVyZoMJIpBzTGaxGFFJmHBTpyGr+l3U3u/PI7a3uvNcQ3WzdMPCiRBRCWPLRonHdaS61EyhxpIUVTGTMOMMHLG1nQlybIzp5SgYNsJfBPyxCA85YRQJIQtmqfVaEF42v8+tixZJ9F8xeULKFQromXj5BIUXWFEFGXS7PUTuyOh4KWX3r589sqVbpdLDOkGOflz508a4l1EHUWcoJylAJ2CdFQFAxTEI/6O3ToCcE9PspPyq6aP3jZx2pXNzvSCPNOV200T0zJ13iPyuD+IEibpRohwhpPwupMIup1ImhOuu4gz4iCusIt4Qi5rhVrclDCCq6TiJ721+pUj+8/q76Af57WzKy8YSPt/Pttyybyg+4Yym5aoZrqIxvmJ6IwwnTYZzKz3FiWTkpsHFsx4/qqhv//N+ILfXJDIvQrvKznVrRF+lUhN4WAyE6L78Fut/gBrp2ggZbhLM87UwSZv0e0mvDesXjWw98JpOXRGupPURH2ffkCec7qm80hQThTgnUdRrHgr+i30ZpoaDgY1DXb6xuEcC4IgIjlpt9ycFMS+hgfskSeGwR09XU8vsOsOgSQdAqtTqmg8cE4chsFZCzKePDAdCYpIONA1minY3J7c857729vXaBpXp+M+HqcJFCQ8dhrHcQBS7bjTLU5QviNwU9qQKQhzftIn5aHXbh37w99cOehv3RIi64OBnRGfrZHUZ1FSmaoTr7QfXCUJOeqI4fIS3h0gvC0AVadmMDr1UHdiJAJ6VcOuGKqSwYVp26cNSH+/i91eBXr2CKWBtcP3120euny/97ZAWs9c4k9hfLWi5QaDtYMF36b7x+e+9c8fDP3ty7cPuP/xKa4npiTybxZznEVM2nrfyUaz3+fSRMkWUlAJR/dPwVBY/fA8tTZetIHOViXc6KyZTM7L3XrbkJxns2W5w1O4TwWw/cJmsxm6DjXeU6xPrZUsRIkSZtKMDmyPcLpgmgYOMTmlidOSFxwSXsNggiyfMTLTFqJ1fSwDUN6Z1nTZpVP+ripNeylTO7KEzLcCj8REU3DdE6IaHAlF+Kwt2/bf/9/nZo6PqNrxbREQx1mJOEHphEBSgAPKwKWzEMs3w2YxC4Wy4botn5Y39hPqvroxV/jTKzcNuv+FO6f98fJuBfMzmoIVQr0aoA5iCA6oK+EAWFMhTVqE+OCdYdlGdHcCMXlGTA60OtyTg/Xhi/p2/bKLxG8AxdtmU36p35/y5sy5IwXDkHslu3be3S978W/P6/vii7eMe3zGzWPu/XmfrEdvtdn+M5zjFuVzTlwz47QOLm0K+hO8quIkEm4iB0oZx3oBUbEUNdUg3jwksAhOJSnE33Dn2Mz3h8g8rhJ7ascyHAMQQgMIiordOyeyFaV9oJ1tsVhQu8bFAh0OHogSTqM9IxFSNBuUlFOwlOyhaJUnhl22GVAuz2iSgvkZHYNiBr///fNez81xf0pJuEk8ySkXpXKob3DkBnxf9FC3O7vPp7O++HVicmK2dfs04eR2bnVKfKOKQJygdDIwVulojkQKvqqsn/zc6tLLf/z+57ffN+OTO7//6sf33P6/N37wwIcl1/xtxYGhi3Y0yEpV1Ybb3PwfXhlf9MCS2yY88PEF4566PLvo7VFC0lddfMa21MZwlduvh6WwoXFhprMIMUyT4ZhWUwj69AHJzg3TeqV9kEdpdezzR0BvNs0ffe/21f/+4eVPvH5V4fd+Pzn71h8MSPj5pGQ6o4jSZWkcdwCU9RkxkBLsBB8Iq0lBVXMwAYoGKGWrKRtbUOC+W42QoCgQv2jHmU3GLQO7LxiW7HgHwt8YfcOZA0EUVbvdHjllts/qycFUipIU/C7H8baITjzWhTMQwUDEBZbvW9fEgZx2WPlibuBaKNHZ36Yu2+w4DqYjmXRaSIyVm/hlcBxRhASHU//pY/e+YZqhEn+w+Vu1oRw73bB2oEEWadEWTKgC6QZH7M4Et2FdOT3A8c2x0zhOMuIEpZNhL8n2/Gvdzkm3vvjpPb9YVvbIq+GUB15RMn/4lplzz/tc/k9erkz+zV8XV/3tiTc//PObXy254tPaWs9sSrcXy+TjC3vRP/3xvMLH/nPjwAdfuHvyT/9559S/3Ti8y4wpxZ5ZPRLCS1LY/rVEVXc5eLIvmSeVE/v1/qyA0lLQM+2OqO+bn9g4Njdx0QQP9/FgjluWROneRDDo8Eyog4r5lAEshhBQ1ARQxlJUC0U1EXZZINw6IxHcL1EUWLJqVF1QnPlxrkwrrJtnGCDEqt1m07C2fkw7cAJgpVFsmi6mG6Ql1RQdhzYlRX2cWcDwhYLhBDg9qQMpUHJa5KcFSN4wT+CgiZKowe9DPZxhwFJglQX4o0R0+zkjB2ycPHn8Ow4bfwBv48rBUX/Rf3iGkbNO2wDE3cLh54cDKFzsPVFncziIBmWQ43kSCh57ivOZlq7Y6oIDjqK/ThUwCY50bV9tcd/u30G0vNBCq+vHgThB6WTIZMw+t8rfryl3yPAwl5LfbOoJGrM57UqiK2xyGSYR8xocyf23pfW5+r8NWX/4+eydf9+5Zt+ktaCooezoRZTu60vphgky/fyqBPLff4wv+NmMyV3vn3nd8LsW3n7eHWvuGXT3G1f2fniAUfXVub1SF7rJsde5gPd+M+k89RDWhm1JMpfHS0oIyAjuDg2WXtSJXZOJ1+UkHFhcT7jeOHdg7pqidBFnLZ3WLqn2YIbD4V7du/tAIbKIcuzeJ4jHt1KcJhVABeEKWvADnK5pNKyo9gZ/KAPsxJmoZ4Q123Z0IbKLj6rBo7lvDlyEzOoSBVtppQ0kM8WBnxw1IYGCfTILcJB7R6fMnmLjFgOEX+N1onGGarPjKkVEufX6STO7ZgkzbaIrpKlATHlKNIatHdFWtCi5b7vYt0Uc2pI/necg9QUiG+CABOmaj1AZ9+sxiU08+Wv7nN1oSc5YgbRaN792ODerXQePGrz6jR3jFPg6fgf7ALGrnId8xDw3CC7EBRc7jG9X+uI44xAGZWfjeZuuqTL2UETXLIiKKMpIyz9sPDUpl7m/wX/ZR1+tuGfbpl39WhsS0Bcax3E+cA1Op3N/rs1WWuyWN/ewuRbxkabNPTIzN+TZxbLjUK5nA/hwhDkY5aRD9WW0XhDSDCJxlHioXjd1WN4XhYQc187QpxKa3R5JT0trQvvYwb0Ovx1aq52YDgJDYtu4sSQDTiXrwpkFR/neiiIgUs7Y71MAkCmQKx4yhOEgMVn0JWek4yy1E1aG2jL+3waW6MAbkSogkF5B2WCDe/c+cPutt76jKo0bnW7eMHWdMNzKG6ebH1QjJzQoZxZO89TwY6Ol960lL/D4tcPZmO063EtL83xjR02pVc6jpQFCRHGJe4NoQGPhYocFoyX0cXQSiIwpKTZbmGOGSUARRgd5gsGCnIaKkFWjizqOaFDrNeQEsdZ0Tnl1wZq75noJ2NyjAwmJPRQypo8YuBo8n3FjL74NfMQnhDXNYTIGShiLRosOipYnjfJENFXWO81V1s1tw312zsjWE4QHuGpOdkYdZL7WXk32ROIQRQJGWBJlynGivHz5qqxmQs64uTx7Kusz62obcphlVb8dOkYKUJZw+nWU7JqmbjqdNm9+fhpuQdFiTY4JpDix01MG64MQaMYECgrG+gmyr50zasS6Cef0+4AYvgoBOJdddEBMgIsCScFYRlfmbRsnmki1h1P1nY4CgnOK8g+jHYu6RRpbOSJY4+radzjuDveL+mYOx+0BxQGhtlaPhXOMMsoDMTn++BZlihOUTgYXGM1Ml6eRNw0F5QT3kLEICk+sJbex+Q4Bp+BEEqE24pMT7NuD/EUfbCo9Hyt2UR/tI0+WGwvS7KVwesaucfFNwIFJDWiqAwoVlGBIqGgixQAFjBeIBFXuUV2ySrIYa3Na9ZkCCJualJxYzwFBOSUtKDG0JIgOdkE3iLirbF8OEL4zrj2+orK6MBzS02I/TzKw0EUdjtcwDR0MlabbnKLPk4iNnmeuHEFAwWFZoFaDvR7+esxOSgoNXH/NlM9cTvalSI2woelgUNAXCFxMz3ROYIKc6UCRQoeFH4OLK0rDAYC7txlUPIoDYsGHv7GzPsPAjDARbE+MEBEJzkWTaMc3/ylOUDoZgKFHBnYpPKCrkYDBQZ0HCAoy4haCEvWE10Bs4TqV7CTEOUjAmZK5YHv1ZduagsUxX+0iPz/f193jqTujFes3QIS5xAafL4FRnmfA5FqKNgJbnTiJJ7KhNA8sSFyX0c6idGcQzG7FBQdkSVRl6aBNaRffvqYJqYWvgHTCF6GTbA6pqrq+S12N0c3ycoYAoiouXbq9n6LoqQJ/CmyNZc/AwVEAkmuYOhA4TU3PTK3jJXLsLcJPI2IhB4eL3FMKdZqDCQbl3xzdr8fe791y/QeRsHe9IOJU+xYxanmyfRwuc/C+oz9wlgNqc6cufoeoZkpkWcZxT0Q3FWtrDtyk8WjO4EBOv6EjQHB4BlQV5J2Hb2PLvShIpo13YYMlMtgOp0OcoHQyQBnXUmXSAHw5QgXs4olmsYEExRptj73JuAAZ9jeaODKWaCBAuuggVcFwj4Vby4aA3jjqmAH4Rmcad3IQGqViUNOcJi5SAelyUNfGYGghkpXkauxit++GNDijNyuD8DGXS6qx2XBHt+NqVT0q4L1tKxdIq+gNTDRGZJsdDDHhm5qCmZ/NnjcYZOqM6eaprw+lLVq8YiTU7tyS2LEaXXvxPtzItg8sh5aRx3eBMwPZmem1TkqPZ4p9hxX7CQfmL+M5XAoodsUCxCUy9cLz144fP/IzVfFWUargKkzgHePaec3LKSUb3xqM+P3NhHIG43hdFyRcvlhRcVXg1g6uWSsFgwnROdN2HE42DnHMhPeHdY5GdI6EDZtoGNSMaNRUNc6ES8eBOEHpZACFYWYnkEa7LAcIT00kJRaZhuLEgy61FCT8xuu4bLsRjkCtDq6hk+TUpWUVI3Yylh5923cHYGeoovjsYVVzUg4SztI/hxYPqkWAoHjqkp38GTs4tjVSkm3lHo+r3tRPPpc61GqBAtcNqK0RanO6EmZ9Nmu41+vNjd09rYB85pet3Ta4trZ5EM9LVNdP7fp6uAYKzssVeL4pOz+9CsJzyN5ZZxqsEoDkBM6gULRpL7LdpOnmm674NDXFOZ8S1Y+DIjtKUDpO8OL45mDE4ZRJKOxVk5IcWwTBWJYg618l2oxFSXZjSaLNXJpo05cm2I2liXZjWbJdX5HoUFYmOdRVSdYxdu5UVkevRV1izCXYv3aJDm1lglNb4XKqK9xOZYXLpa2wO7RVboe5PDVF2iSKSrMVoA7iLGKBcXQUZabZ/7JXl/15myaMS/CLkgq6JeAwiDuikAhnJyKDqq2JSoQnCogKdl2YeoiIwLD7kPqFf7rp4sfGJ0grY6/7TgAJyl41OOCKl7/66zY9awKu4y3gynSxaXKEC+HeMuTifjmf/GNS1x9nUro79ugZC9M0U26/78/Pr9u0Z7re1lyeNkp/ey0FrdGmUWEU/qNM4T+OcFSEazgmQTWJ6S/99x8f+s240YM+4g7bzPJUw8dY6o8f+NPjK9fsuMMkog33k6L02F1gbaVLR4wresBKAWd55YiOzd5Q+OxSZNGjD//gD1dPHboAXn1MlgSfEndVhH5wxVV3/crk3akMshPnRHBWH/+h6EgetsbR4oGbA+rEZsVDYr6KxXOfvzbBwS2P3v0a8ArHz59+7YJPZ81/kFHHcM0URAwFbiyIiPY4RIMFSWClCf5qCWhLmI8Wlm+KjqRHW9/Fsi+QEMownOPmqDIRRV3NTCKrP3zvmQdcHLcu5rVDUEyz38VX/+iXZdXBCwUi20Etx+6ceGBZxC786A7jWDZB2kW18Q9PP/a3foPy57sxCwAiVE11K0cgh3SGs7oxtThDpzzfSrSgZEezUojmJJ7zOOUnemr9EXBsNLxXh3cxrA3DNUx7eD8uXaPX72usL85PrgAd0OH91Y5NceM465AUoc2Dkvg6FgTaIbhB5hQiGX6icFDAwPAidJAY7PbhsIUbR17zMtGpg1YSR+6eA41FUF7PxKmhJxNUUUxnvaHbFQFKFmdCGjEimjyx6RxRREacUOq0ZE84nbGzYnAw6IbglAsnbNQMnxLtE0aVeKhhOGFAQ4/EBP7xaH6YCr9RrXEc4+w5/3zh3XMDKu0CcnXytPIxAN8Wln61bcTGkl1TsHEHB0IL3MkVc1TnPJQ5k9OIzqHGxiGDVHPJ8v5RA3viCsxneHcpWB2cjcOpEBEVh463aTNA1kI/uO7yZWOHdv9YV5r2Wwvlgm8Tn7Xmcnw9pwMRJSlfA3xbiP0844GGN3Z6vDgl8o+pjcCyiJ80INtUJSJkJJr7ckS6MkHilqNzSHSJR+IWe/Do4L6C80VukVuQYCPzXMLXLkGgcxNsdG6iGHN2Ohf8zUOXhM5unc/HZ5NEujCZ4xYlw7vwPA2uw++vuhembj0ecoKIE5ROCMHGwhnpKQ28zKkGaEjDmjLLW4Nlj4UgI4kHmgI5cHrG7qFyksAFNNOl6kzG5WBwEDHioMaEE1xsC1ISL524QR0nF8qgQUWbgCI0R4OMQT8Yo1MGjkrODRvLR7790coJDadxRs++Wm/By6+8cUVEVQvBwlgDVnGl3Y4iZkMPInb5mECPUWKIFM4khqYECvPz9ySnO+vBzp36DPnmAAXSvmEuKHDWXXnttV8mJLiXcpwasOrdlomMOSTIoIOi20cgoT2bon5C8C14zQkBfhzdMYUe5bItF7t9yhAnKJ0QLjBMXbJTaySJBQxsCaCoIISDA2aPBkVwOCsaQ9kBhvPEvlPgGsIkSdFNpzWDB4owlsYWs45FMzrEsQOJeIYAFUpasmtr14Ks/YTqEPj2Kutf653jMbwdhW4Q3uHJLnzl9Xcv3rRm/yD4xClvnWtkLOH9D+ZesWXrzqlAmGxINQ2DEb2DY1C+bbowhqvsIkUxGeW0hpGjhu0OUnpctUlAh6zbycjDFghH6Q0DedN7Dy/cdfG0yZ+IXGSTFvFr0Tr81w5LEZITi6CctFDG0Q5AhVlt5mcN4gSlc0LJTXbupUpTE8c0hiYVm/w4qz/y6NAEWarxBtPVM3P1z5MJqdLvz9Cp6MB+/ZYWFGvzYkg/7BwB00IjYQOJ29lTbvxS5ZB+vUvQFOMoR8PQCe40HI0C2juM6Mm1FJTnSUBRHY1+/7B/PfvsNXtqg73Ahh5bGE8Q4FuOLz9bcf6MNz+8HqhSpg4FwoRMRTsuCCc3GNZS9xatQILCEYmnuiyyiuFDB+xNJ+S0L/R3oslMFscFb7rhquU9umV97LDRClz5hcPxMibDkQggaVGOhWQ/jlMOiitP4DH688xHnKB0QkBNRi1yimXpdq5SNhQDG1Wtun8HxFIjAt8cjCRCXfuMW/3zJEOsDUZSTU4CggK1PNNKR2Kt3g1HHFthUIE0BxU7XD9lxvXbIjWVBoYO6r+KEN0HPAEiZbbq1jg1BAWrygZVKeFp0pbSnec++cd/XLW70ofjnE56OsI3bLMW7xr/7/+++j2d2HtoOm6Cg+vwxZoCTnI1Ht9ulTurBYUjmhoJ5edn7MjpmrgfWxwsT50MeSm05oZrLp7vssvLRd70M0OzLI0JWgjTwnKnQu7iOBxoBlAa0Z0ViBOUTghQfNjRv39Sv14lTl0N4nRiHKym8R0Yj0d5qmqaIxD6zo1B4SubAqmMl+0MKF10UTtUqOCip8TkRdLsCzsVhZ01aYOyMGxgrxVJKQmlkUgAfkNUrEpzKx11mJE+Wq36aPfag8kMIkoUjLPJS1JqwbJl26/8yzNv3LS3jvWH1520ljogYu55izZc8Lsn//xgfWNojGbyMic6ICtxGe6onj7J/MRK2+jQL2yD45ipaw0jhg7dIsqkwbp/PIgG+owHEq8Rk0ftOP/8KTOZFtgsUF3FhiqD6F8TFHDRdDn5+CYy21lhGpYNOCvkCBEnKJ0UuZQ2Du+dV+Iw9SYBqi6oDHRsFjgWKA+GRLNpkfB3qgUlxJhc5w2kUE4QoYptmRP8j4o0dgqVYJE0BcMJQTWSFE3RswPp6c6y8ePHrdIMXcU16NAdah2O1N+tlXrLeetrxwP8ksBzRNc5oqp2kZKUwq8Wbbz65z976vtrSvaPaW5mJzQ94V1iOMy6vjrji+v/+Ie/PqCobIxJRLth8sQwY+tzWIMVo9XJk4/YtxhVkxOTdo8ZN3xrCqXB6L3Th2+anx1BBqWBm6+5fMXAvr2+oEStNk2F4VpLmMstBOXsxUmntScNHGdVvc6a8McJSudFuNgW3u6RvftDzDQ5mkAc4eg+Ca2lE4taayeoOmmgNtlvLWTx3QFYC+cOP0nldZ3aeYWoaMN0iYgGtqJohJq4t0yE6GHNvUZT80C3nzVjdKBGG7hgyqhFNolU2+xOEtZ0a/t8M7YYLrWG1RwJNGCIlnPrYocQNciWemE4cwNIgWoQmyjAVQ3TU6KS2HX9tt1X3v2TPz726JPP3lG62zsU1yiBzxxlGGb7gOdolWk6w6bZZdHaystuvudXv/rLf9/4yYEmc2REoU6OkwnP8YSj2Ayhg8MZJuZJb5QwwSIzIIQGC0I+eJuzM5zrevXI3Ql5clKnFx8rv451/2u06g6EuOi4kEsH0SWLVt584yWfi6K2lOdUP2XYo4UDZInVQnlyU/5QdDy+HYNwgt93ooGb9mHe4R7CKOPRDQAtVn5WIU5QOimwab+IkKoB3TLKVE0JM0MkDtwGAUW0lZi2/ERBQMcbBglSUQgR/awZZ3Ei4A0RV6PKJ3K6QUVrzQqs8YoEd4O2Fj0CP5oeIWo44ioJmF0gfc+qLrCifMfGAf17rgwGAqYgyVZNtmW3WRxzc+LQIlEtzurasP4iKaCQtpSH9AWKRHkhNRDWxixauOwH9zzw+E9/+8Tzd89etG16td/sb5pmBtgAFzgJHNoDPua4Vuc2cIlhxgr3VgcmzP148Y13P/D0ow/+6KePbNqy+1LCe7qavEeiwLVxZpZlHIGF41Rfa4orXDrZOjs6XIknvIDDRL0VEycNWZdi/wbdO6cd0bw82iyew4FdPeeN7Vl62bTJn5laaKvI487aUUqIlaFDakpnGc70hZCiJTo67hAHamN6WzsVW9fPnpQ/kZopjjMMOcTuO3/4oK0y05uZrhDOfuxeG1AqxNB1wYwunvKdQUMklBrWdQ9YEjCeWH7ReB/aJYab7qmMunZU+Lo1EXLa1vP4JshMTKy85sqL56iKv1HiecIBYbW2xreU2CkYqxllRIc5Dmg0tYmyp7DRZ5w/8/Nldz3ys6d/fe31Dz59/fef/PXjv3/n4ednrLrzi8Xbb1qwave1i9fsvXrh+oprvly25/pP5m299b+vzrvnl0+98tjVNz7+9HU3/fjpJ5/876Pr1pddy4hnoMh53JqC26Od3tny2HqkKyYaB39aasq6yy+5cDOUsVOyjxOQt0MMEf5uQezS8YLiXLDYeYcAcQ3cevPVi3r26DZTV8PV1NrnGnfTxe6e43rVt0Z78f4W6XHGIjpbCh3oMGQnVoMdpHu0aeWsiW+coHRigHII90oSSnNd9loOOH8IR9N3ACYzOZBiXAvy1GqQ0wSIp7CvMZITMnQHrghvxFbbjRKUFkeJJEJtmJekXdWNOXWEJKOPswUgC9qwgcXL+nQvWM9UheGUc45hLx52QZzU3oYYWhTmkU43KRdUqV0xhHTGeXo3B+g5W3dWXf3hzAV3/OVvzz/440d+/8gDP3n8p/c99MRPH3zgVz/78UO/efTxJ/7y8H+ef/v+Tz5bdkt1nXJRMCIP4aXkAtWQPYYpcJwgEx6nLZ1u2wOft1HRpKZRM/W8c9ZmJks4e+eUBQqNbwtil74tMNOOC7kpjuo7brlhfnKCfQ1HlCDOJDsLexvOMmBbVQuw1QrT3ER6eNaQE0ScoHRu6GBF9/TKSdknMI0pHZBNUJ5WX70WUr5LXTzOLQcC3XROcOkxxYk7yljWJVbZwBqJoalE4wRaWtWUV+33F0BZP6vWislKcZddOm3yJ0qwsVGEks9Tkeh6dIbXycfXhORwZ+2HA+RPcjioTjkurDFZY0IiE22Z1OYoYKKzu05dvVTT3kcl9t4G7+6pEWc31XTmqcyZ5g2oTsXkeYPylHECKGEDnA5EUyFcR2aunURgd5KNZ0GnLG286MKJq7BFIXbrOwOIsz6sb88tF5437mMj4t8uipyOU46jtfxTi8OJ2uG/Owqg9t/ouVMFqyMt+j/atUNx7R9CVfXsahmPE5RODKyppRDSmJXkqOF11ehoiaK4hwY2wp7Cmt7pRJnC0rc1hIoMTrTj9nYG7jhiDaaMuhZwpkEMXiBek0/ZGdS6NxFij906KwD5qU4aM2Ber+5Zq3mqmLqmEEEEjoWzek4qUE2271DMcGcxhoMoreZoVLAMCIYBRx1yAoe2CpwJ1DnqKLjocFfcYBd/oYMn4FkDooNiq8M1fMcp6U1pFwJPTCVcv//Si85b1Kcwbc8JKFOYaKcNqBVip8cFXI/nsksuWDRkcN/PtbC/DrdNjLZMnnp8U1JyVqFVLuGppkEJ4h2Coom5UFHtFomYPQIBc0AwaA4LKGwgnqNTFLO/32/2g2Nr17/lHh6bAmxgU8AcBG5wUGVDmuEdQRVc9DgUHVyzXEAxB4MbFHPg3xweUs1RjT5zwoIODIg/rcIex8lHM2NJz2z3PfjHWWt+bEh2Z3QV0fZhgrFKUgOl/7us5/0XFWR+GbvcaQG6il/YFLzg7rdKf7edN/rxpol2jYigO1sKR4s2s7EIaRCSCa8H1B/2cb7x64n9fpHGcQdit88KQHyFV9/84uY//fX13/G2tEwVYoezeTqyDcLJQnSlGUxl7JJpCQeuH4KZgLNt8BrmRit1ddDEUHgKuy6jz+HlqC88a3nX6VNzlKm+FKfx4Ttv/u8vGcm05JsSFMg3cVd56M4rrrnrlybvTjnabsYnErjRoYaL2kFeSMxftejLl29IstOFsdvHBSxrX63ZPeTBh5/4GRHck0Mhw8WfwSuvt7+bMV01872/PyBz3PqY1w5BMc3+l1zz41/uqgpccLJ3Mzbg1VYFC6QNSwiuOBkJe1nf/vm7Fa2xVgvwYY4wnlIOB5pHmSKOHGcU5y3C+ddyiqUI/MAbrTPrlViHs16N1R7reBCxO9HH8YXRkyixhddSXvZwPNWIw7RPfPfdXx+1RbGlBMfRSaEzZiQm2oNwpgvHVVM+uYrvTAEUPEdppbd/bYhlY7EyYxXEaInFv9EzBGfdw0Z7Xty8Y1e3ANXSo3fOHoA60S+cMu7zosLM+aGgT4P4gxI5vb15VhN0bDqytV/NwWNUz6HejDpsM8FRmuAoOg2cGns+6vA5a4t5HF8DzsTG+NMECI7O8/zea645fx6QkxPRenJWA+Jv9Bzades1V10+MxL2l6Esxm7FcZJgaTMoEyZUQDzuFHrgQGPhgcr6oVWNxpjKRnPk/kZ9cGWjMRTdgQZwjfqIqkZzRFWDMbLFVYI7ANfw3oFGYzg8OwyuDUP/lQ360P0N+hDLNVpusOUaDMtVNpiDLNdoDAQ3aH+DOWB/daB/RZW/39rdVcdUPHGC0tnRSEgqFbSgzFlz4o8FzhRJgPcSN48TbDs/mggpmLuxalyT054sGzoRTcMydFiyoxucAVHDWj3UVBsFG0kP+4kATGWdnpG7pdHoBgb+zK0CtoPUVEfV/fde+6JsC67jBJMoGq6siqoA10rQodasWQ7PLeV2kslqC/2wyCDONkC7ZXXgYIiiS8RHCQs6/N3iBMvhPlPR7p7oE/jGKLGMkpmTCvwUODxgrVVlBhFsAtHMMJNEvb4wL+OLq665YB4Y4+/c2JO2gAu4/eC2S78cMyB7tsSERmrYmSy7SFAJEZPD+XMocwz0EJa52ENxHDcOknWrPEDJEDSQTZWEIow3zCTUWTi9TYY0xnPLwSPS8bqWZy2H77Iczutv0wl4BDUr6BpOIzw24gSlkyM5mZCIBoJEccplBzgHSB325fNYse7kME3TPmdP88T1DQ0DOFPDVsuDJu7rMzCKsX9oAK1djSjFZu9EqDX0BIJz1m0JgDX5bl0GL7/husveCvkaqly26Mog6KJE4bCYn+wu+5ZG4iNc9ORY/6LPt7hD34GHkwtMmxgJAoMgChJpbmokLocUISy89v777piZ5nTWRj3EgUiyk/03Xn/ZbJ4jm3jBiKhqCGr3CbG1aloq1d+J+tFJQ1T8vy4EVlGyZBVPgNzHrp0eB38gHEkYpGMgTlA6P+TKpkCKwHiZHpw+ezTEjNHxrMh0luKARnq+urlsWqXNli6ZOJgyWnCiaDm2GGeop0Py4eaB2FDPKO/aXN6Iu/J6Yh7OKuTnc+FbrrjgjVGDu7+nBw+EWpYfx+VvDFAL6LBVBfujkbbE0Q4skcH0gXQCgoIzth2SZAR8DfvuuuvG9yaPyF4LCvmETCUC8WsRyrMakB5m1/zhay65bMK7SrhqDzHDhqFqEDmo1FtjakDirN6fziV3sSaDTpGHpwpxgtLJUUdIwp56bw7RiIAreR4blrI1DaMjHUJnL3BZ9Y92+S9duT8wLEJtnC6gQoQoY3fOEToE0wTbFqi1n1HUYAvc5srKfK+uZwNJOSvLUVaWu/6eW697KSdFWEqpBhHTwTBQICrYEgsO0wGTIj5UoF1YpYVG9+ZFIWCmDiZWrz13woiPLrvo3C/AGIfQ3wlEpyiXSJDvuOvKL0aN6fk5ZWEvMYASm9idGq0YWQ24nSKmcXwbxAlKJwYYTqGWkK5ry/Z3T3SlcJFwOHanfeA4Po7jTZvEd1qrhF07CxqCl/z5y8U3ayQhSTJkomKP6kFy0oZmBCMkmBzRBTTbUJdlPK0IG1lbagI9IJ1P73Kl3xDY1TN2bI8NP7r7pn8x3budpyqx4/gJXbXaTUxryQSst3ek5e07CouZ8FYaMTPMRKr4exXnffb4oz96LcNFq6OeTgyAO55ukw3ftwY2nBDkOOi+H91968fEDGxK9MgRkykQx5isne6Ynlx07tidQMQJSueGbUuY9K4KszQlQojcgaXuLeDOeJ0USNrW+40pzy7d9r1a2VNAgXTIVmtytGn5SN3xtYHGqbi4iaA1iBb8eznZ1WRyOWDoz6oF2w7HtGlTPrtq+sR/GeH6fUbESxxydAl8hDUsII52gfMtdYMRnqfg1AhhvmV33XXDy1kpdFvMSxxHQf/u+Svv/OGtb1bs31ku4Qh1a4A03okLXhxxgtKpEWIsYcHG0sENKkvXddywrIN2tJMOOgBywq/TtNH/XFV5z+KdvhGM2YnJaxBfndgVbASJFYcjKolIUHCMAfzlWggLR5oZddaEGW5qd1YTFCBY+oO3f/+1qROG/4czlFpDxZa2FhHAsShxtAcGXB6X1TeZqYuCVvKzh3/w3DmjeqzA1qmYlxMGDltqTq/lPuFxgnRSb7vl4s+GDx841zD8QUJVIMW4Nk+si7ET4UzfYPBMRJygdGJUBSKFX61Z34/ZXKLN5iQRreNFBDTRCVdGpxOmaToPBPXJz83d/Pi7W8on8bZsKusi0Xid6BwjrjZX9j/UNONaHV+3KMC5TgR/WMPB6Gc1QUFkZNDAr39257O9exS9KPK0rkUxdCohOBnAMTu4dRUjZXfd94N/XX3JJBx3ckIGxR4OpMax09OJEx4GJ8dV/vgnd3xos3NbGdGjXctn8LAuyPJ4sThFiBOUTgowyO7ZzdKoapaf6yTNnKFXQqnKjd1tH7g9PE8FkxeETlMI9zWbyW8pyjVDZyx/+v2K8CRDFHmf6SMBiCIzgFswRsKSn/AMp1fjuqXgrNhj8cBfWJsTiCIAE9HsxKAmoXwtcWl+rlmhtnLcz78TIDk52ft/v3/4rz26uN7k9VqvDRLBNGQgtonE5HCWhUZw1VaBocM1RnAfn+jMn84M3O0Z11PBVVXRibxANANMqSiQoKGbZnDbzkcfuOZvd1w+4T2O44490CuOIzCqd/7y66ed977aXNMsUspCEZAu4H0Gp1vpH91x2xoZZbVkns6Vj+M4dYjncidFEyGF85duGalRIUGnPEVDEl0SvMPoFARlTyCQuVQN3/Sfd1b8VDG0gWBYICU4IgjCwapgdFGj2I+jgLeMMhpkXBxMQhqDTfvw7IkbOHi6kZ3tqXvqiUefKu6S95yq+hpwrLQsaBBXXLQOF0SLHjHuX6NzdwLxWJtngpXv6EIRBUgKIzaimYLh3/vIj+/7282XTXyVnvgZO4ej08jZ4UBid/f9134wdsywLzQtErbLUL6sYoVyxlmtlxZaji2DaU8DoFrzTXVjhxZ6iONrtNYycXQSMMbEjT6z/6o9+7orvI1r2UsD6nsxH50fON6khCkDn6tp+tXPPlj60621tmIFWJpmgnqJqXmrJgYOh5UcVIBHgWji6qqooEQwVDyOCTCckuCH1O1UM56KijJrfv/4A38cOrjbv9VgVb1DALvLMM4ipCsuH48EDVuV0HBEa7WdGVHZiJIzA5xklwgSNzNYvftn997yfz+47sIZ36GWk5NGkmyU7r3vvls/Eai6xymLJjWhEnFw6nHUtZTdU7MDdxynG3GC0gkRYCzp/TU7Rzfztjyd56jBgVGBgs2T49KhJ00RnWwAOXGs9unn/fbL7X/6y6xVt1aYtgzV7o7VgCnRQbcxE/ctxqXIooquQy0owEPQHxpnXH5dJkY42cHheI1IzEunQe/euQ2/fviGv04a3++PhlZbjrQMV5RFOcLBi9EBjFH10ZKGnRWY1wgUEdzAUNPCxGFnW37/yx89+f2bprwG5OQ7w/wpjsA4ScCBxUN658+6/+7b3vY2VAbgJ+OAkaCL7q8UlTnMgw4U15ME0ADWfnnHDxFjAMop9jOODiBOUDoZsOVgq056Ltld0990J9gZrh8NCtYyqh3o4sHyA4oCl30/aYroZMJnmmnv7o/c+OC7W/7vy63KJCbkyTw2xmPrOxAUHC4iUM5yrVfWZR0YRwHpQgwcowIqRjJUkioYTV2SxR1ZlPpjXjoVunTp0vzLh3/x7ysvOefXVGnebpN0MBgqsZLqoI6GHx1ofTq7YRJRRJkBgmoG9cKchAV/ferxX1580Zg3QCZO5R47mOins1ye9G9jN9m1V058b9zIPkso03VNjxC3200iEawDfC1n8RaU7wY6u2b5zgEIhq2kSu9ZHmLZEcPgBaISAYwqdkl0xAgjDNPkzbNw5GPINAve3F57108/Xv6zFQHSM8AnUlmzEdkwQfGFwaZGWz6im87FHgKYQMdwo7djIYwtCCJPBE4nHhYy+6TL27snihvglhL10fmQk0NDjz98z4z7f3jlT3itcb7LpoeIgUMtWhuIzq1GsIdB14JQMBr8vYuS3/rLbx781fCBeR+DMcX9EU4lUErPyorD8cBjo9vv+f5Vb9htbJ8sUVJbV0U8HhfcMS2pw1a80wtGcXGC2I8OIz7N+PgRJyidDKA07ev3VBcGiC0RFCsnm4q1hwwu1YH95x2BiQSF6B3zfIZgbSTS66FFOx/+7ZzV9+3jpXzqkQhHgxDjSGzciEw4k7eai1HoW5yl8MDp1laBR4cmyqAcOaKF/cSuNNZM6J33RaEk7YU0b0V3Oh8gftrd37t49t+efPTBFDd9hZih+mhrHKZcS0p2XqimRiSZ7b3usinPvfTMY7/p0yN7KaQJRv6UgkZXku30BAUxdGjhrKuvnv6hP1SvOuy4uvHXvahWj89pSwVm1W8QsQsdRqeY6neK0bk1y3cQUIxd5VWNaUywycTQCW6Ch1MjceYFjsE4FrDcmYYpMNPg2VkyO2WLaXZ7fcWy+17aXn3tfkdGss6LlOkNhOcaCeODQD44ojNXVLtbLSh4xCej3cm4AWBHamU6z1utLbJA9cxk27JhRZmzEyltit3u9Bg3btCW/z7zi8enX3DuLzlqboZLRpTgnRVi8k0RzsjOnP/wT3/wi3vvuOzJxMTEXVBGTgchtWbYwvG06uxvMYPluABp7L3hhgtmjBs3crluRIhhaFBGz/56AHagx07j6ADiBKWToY4xd3kw4JB5g0sUBernUojCycRpNkPhwOy2zHTMtaClHcEkhmonss3FtjZV2+HCGV+YDvh8af9bsuu2f2xSriSmK9GpUOpUGbFrOKjOTnQSjQa2JIE9tRySEnRISjCCnDWuhBGXFrYWbgvaRBKUHIQZTmJXHEQyJGIIQE5EFxG0EOtFGjf85vyRL46U5b3w+HcK+fn5jU/98tb//fG3378zN01/hah1dQ7ctokZFrn9est8PEJ6Yy8ION7kLceZSBBBDmPcF00OjicwqRE7Qr7As9Hhyzhz5tgriuJMrNYO7Vhrx5tizGEYuKgf6ys4bVwjPI+yAb85B1E0G5hgN3xdIHZB2ztlfN//vP33Ox+8dsrQt4CcnFYyqnM6NaBcmzS6Jg1HFYgff1KdBauxCCeqndpOilwn3fTo3be+zpnhKneiG0QmKgeCaULFC9KgjfCeSCeZOsgLVOpMu9UCja2n0R2+Zai7HT9Rw9RDDYwOdbE1ZR++Ex0A3HYYOqM7HsQJSicCtniolEqqqotYtUXFjqrleEoSGhmNGWJIVbHT99hNLqcRjYwlvFdWc+mna7dcKUrJyaBHv5U8h3iHpZAkICo23QcGq5mE5RDx2UwSESXiCtSRPN1fctOkEc/kZyYtgbT6TnYrQ7yNCyaOWP783x975JorpvyMMxsXUaYGcZ0YWRJIJBQGoQNFjlOSGS4Dj8odCSESEBMMDRIXMHg46BSdJaFofGIOWYV1Dd2xJThKrb92ONaqtTO5UMwp4PTYG9HQ4FobNsIZIOqQ76auEocNO0IbGnt1S/rwl4/f8dMnHv7h77KyskogzvjY6QREhcPEgwRCJY9GDcIPIngynWUikFDikWJnqZV8pwSQ5qxvt5T3H37owTf37t4JQhNdoBcXTTSJ2GZ4T6TDxQnxGJVVlFkgRVTDgeIg2ccQyjaAz7S0QDF4p/Ud+EbLd1ocfqf1787mjgdxgtKJgAU6eoYFGBVwVEHDHUvnR+nK0YHGQtWI3BTSzmiCAmRMXFkTmvjM4m031rjS8/kIzjyC+LUkgVVLbxFvjPyx4x4UouNU3KpJHEaYGHyYBGUFjqCcmMl6hys23D++11+n9876tBfHdcqZO8cDbE359aO3v/jac3+6c/L4QX82Te+GSLhBS/TgppRISHBBN1zQTiJQ7wcH19BhXrQmIdagAhC11j2KrUhM1F/7iL4bj+CQkFiSji62dgkfAafCfQ3uR/1a96w1XSBsKgfGg4NP+gMpCeqSe++++A/P/fuRhy6eNOS9pCTaHPvMaQeHESUCFFFMKzR3EH7OOKnO+o5FhlAVYHlqKWCnBqDTmq++ctTrkycOX2QtNAn5F215AOLbRnhPpENZwZa9g4TaanGzJCoauG+Ali4ea6o0fif2/pZv4nnr353RAUmz0qIjaNHgcXQSyIxpEidoAphrS++30vkdyW4O9I/JiL1JNVLgJ+6gd0ZimV8p+tPs1ZdV0aT+YeaQeB7j1kJCWsez5fzYhcJEIoL+TTvRmIdEeOweMkmi6tUL/TXLf3rB8KcvKsj/sIhSr/VAHBZ69cot/ftT9zz5pz/++IFxo3r8XddqtwF/C3PW8jDRGqhFlltIIzbzWkYWZ1Vha0BLHuE9PGI+tjhU2Ehq4NdRXMvaGF/LfMu38LtOcJCXYNRaOLdF36E2h90kHB9qTE3ml9z5w0v+7/l/Pn7PD6+/6K9JdvueM6DV5BAYGEXGQdBb0g+PJ9vF0hFMs5URpwFOQjbfc+eNb/IkXMVZXU2Q55iPbYb3xLnohoVRkoutNig7HFynTMC9LSwpO04AO4mt0d9SDqx3x47wu+V7h4elUzmIZUd5bjSx4ug0MCkNJLnsAahnGSLPg0qJ9ut3GKZKNMrLlY3hzOAZSlBwn6ElByrHloSCYwzO7pYVrNvAH8uetMQVRbu1eB/b1nAkSHSovSi8i4SAoAjMTRIDSsN5Sfa3X7hi7GOX9i38tCg5Tk7aAhhz7YKxQxf/9y8/e/xf//7N9y46f8RfPS51OTFqGmUhbEhAmEXIDiQGpmZYxATbLSiRwKHSwpyDPDpEVlGRxU6PAXwKSYqVz6YJ4QE1D3lJmQb8KJFILIFQA7tzKAE6S5jmNWQxUN6zW/KHP77/iidee/lXP7zvtulPFednboa4RK3gmQVmGBqIvomD17EMRJ0hnlzH9KgzofZrDbO3LMwpBeSHMXZA3vu33XrNp0qoybDLAuQtmPq2wnsCHTMhtiYeY06XiBKGNGeirn2zTQ14DsBzPEi1BO8Eh3uBgWM6vD/2XQLnh4flbHdWXGPOhBrwQTV9DMQJSidDMmPBrtlpDSTsj3A6Lk4WlQSswcaqlkcFEhomSFJDSE+vj2C188wCjrPZrpFus9eWTfBxUjpnMk4yQIFyLQ2HlqkCh3Ftie+xyQkCB+5wYNgMGiFOXiVpgebyG3rl/ed3Fwx+YlKefcl3aDnzbwxII2XcgO4rnn7sh7/7998eu+vO2y/7ebfChPdlPriLqY0Bu6CZThsYFz0MygoNHxpabEI3CG+ZPuylb8kvyD+QWRxL1ZKrbbkWRHMc6tYcdvDgwNcIGDc4KmHC6RrhzYjBs3C9S4qsvPC8Qf95+tf3PvyPfz3yo1uunfxsdqpnGxjCU72uyXEBOJ7AAbfieCjNPMgqHLFr6mQ6jtfAGeBwvJBhDYWOBeeUAvKm+ZbrprwyeGCPDVrESzQ12GZ4T6TDxRx5cNEjyiAjqm4QXTc4HQIUC1qHAawXLDURNE23lj6wFozkou+3XOy7+M3Dw9KpnChYw5k6MuL8tAhbHCcPoPDdz+w3b3nirS9/TO18nk9IBpUmEpceJCong3i0NtYt6v3ra4JmI153gAwwmue/fOnEhwamOzdCWWxtB04r6iB+r2wPXPPHTxfe63em9GZUEHBtE4wBBxVfXKQg2mceq+hZtWo0gGC0cEQ+oIWnYdcAoiVyVg8P1Yhg+LRCyVj7vXGDXriqMOvTLDdXG/URx/ECCCXn87Gkssq9fZcsXTVi2cqNww8cqO/pD6vJgZDm4TjRzosy5g4QFuyhb6kzYeZEMyg6iyeWWW3BymM4ALHBFhrs7WNASIAFabzAByRCfckp7t1Dh/TfPHH80PU9uueuzctM3g2PhM8k2T4aIB2FLft8N15z7T3/IbxHBiIIMg+G7psPh+gYoDxo8C3ULBIJVC+Z++YNHolbFL15aoFpsHxT+Y9/8qMnH2v2aR5BPrkNvMAEQZ6wFY5gqzKJGAbjSCRSmOla+uF7zzzk5rhNMa8dgmqawy659qHf7K0OnkMJL+HMwRbgNhKoiFqk/KwQyg7icC6nWjP5IkxR+eTda587aov0UUp9HGcjsBB/pLMLvveXWb82BLNvyJ4t4CBFJxAUhbOD6W7det1SDL4mKKIiE29ymHTxHtj2ymUTHxybn7IQBOz4hl6fJGDryQrGej707qZHtlZELmailBSUUIFSYldsUHtv2RLlmxEUUfMQwzzg7ZdP5tw1quiFm7PyloIh+O7ssHiSAfknBYMkeXf1vtzKKm/XLTsri9eu39x3z94D3Zuagxm6pjslSYbqFc+bJhNxPSxUbzG93VpXtdbfmLEGeFLAZKuUGZrAs6asjLRd/fv1K+3bu2t57+4JuzIyUnbnpKbWgCwHwH0t8GcJIO3E7RWNk+6899c/YtSZC0RONzmViRoOTIHYRxuZOgRIyIN+Y2kbBb6l1XvQn8EZNo1yBhQxTWCB3Z++9Z/fumUO18A5LQgGg9n/m7Ho3k8/mXcO46jVwgtpE2W1EPbodIBjAB6InbWJg+nJUVAcUQaoc4KIk7spF/FnJnDr3vjf//3TznG7rJsdBFQei679wRPfP9BknCcwU8ZOu2hYrM993cOJFv0oYbTCh2iVV4jW+doW4GbrMhQFfhpgJV0LDmcUh4G1+IVnUWAAsUMLWr0Lxy1Z4Yxeggc4nXfpIjVU0NuTFr3766NuFXHIa+PoHIiYZver31v01Cxv8gXOgM2WaFSSRodOIiybyOzonac21kwa5CSS7Q3W/mFMyi/OG9X3rQx6SvcbaRdQZqW3G5VzH3xzzk/9euowidhljVeIis3QcJ+DOt5hJeUQUFMkNkMjzXbdmu2RFbBBFZqQJjcqIY1k+Xz7L+2d/t69w4te6J3sKoVyeiaORegUgLxEBinC0dngV1Mb6xvSa+qaMmqqG7MbG/zJPn/I7W8OuIKhsNMXbHAyQ5XwKXjGFEUpIkii5rDbwrJsC+Zlpje5nU5/WkZybUpKYlNWVmqFwyFWO53OZshD7WwkJG0B0soRCARcQJpFiBOybRaK9odZVg5EmeOiTVBw+6CRwZP2CwUAn8Uj+oudW7/he0xmDAuHabfbI/Btzu12N8CrrfunC9hKjPGvD4XsPKWYFrgH38Fww89oGmCjKqUoZy1pcEQ6qEQ9eE0ikvUO+INHU4K0tdlsVvzh9WY4HGaQDlqQBImLulC2jqtLEN6B44cSI5GIE56ViM1mySX8tsJti7YIcaqqWuHHH23gkOvwoyXPWtD6vLVfvN7y2zrHZ6M/o8eWtMB0OHguSQTCg6eYri3+D0ISoVjCLVVTKZzjexmOOIE74FSmqITBO4CNEVNRFCbLcpTxwW943QFwrcN7BI74YBxnP7AA/21n1X2PflZ6FxWysl1GM9XECInQRGuBo6NBZn7SKCSRJDUQuqsb9+yj549+KoHjGmK3TyuwcP/sq803Prtm94O6nFsIVJwzYwRFADGnDAtL+yKN3QhOjRGvDegIVAmTvToRZJ74uGYz3WQlt43u8+rlvZPe6e9wVB6r4MRx4gH5i4YGM9Him5AHVpOXF849cM/vhyx2EwasUU+OKllUctYRHCo+HBoQz7c44ugkQEUQRycDKOnAhK5ZK/u5WbkmqWaT5CS8jt07xx7jiYtq8TolAZtoX1pT180fiThit047djOWvrJ0T7HJ2RJMTuRwzaqWbhpcofSQukMb0KODTAiuKIqiz9vhgciBYF9bZPafLh716x8NzXlpgNO5P27kTg8w3XGQLbgwdq3Bby863E4AfjcmJHANiXBM5Tgf/PbH/ITARcBhS0k83+KIoxMhTlA6IVBRdxPoxol5nhWUaw4xUWS4BoS10NExYFCR2MDqa6JINwWUXrXNpCvUak+7nEAY+HKdZO1rjuRRe4Itupokhhf+AlGxlk8/BnRei7ZtmqLVLqqFGyI9s+UvfnrZ+L+Pt7nmfJf21YkjjjjiONMRJyidFB5K668e0XeOM1S7j1LDZByOyUKTfnTg6p8i9sICSQlKKanzt5T3h8unvRUFm/6/2tKcG+GcWRqRIIhASixygpP/WKxV5Og9ltZiXuAFnWhqpDhR3nz/9In/G5eSsCIr6/gGw8a6IywXuxRHHHHEEccJRJygdGL09sjrbxvWa77oq2nGvfNE7tjLmuDgUWuqrcoBoUn0fFXTOHxXOJwUu306IZZVN2QEGZcCbEvgcO0Mhns7YLcNhx03x6An4AtbTTgO4siI3YwoEwuzFw31yJs6Ogi4hjFXhWnmbmnw91lW2ThqfkXVuLn7qycsrWkYvaku0rPWNLNM03TGvMcRRxxxxPEtEK/9dWJgt8guXT/3hhmrfrXKL49MFR0krB/dFqscb+38K2l2ovAycfJ7N/7j0j6PXJ2dP4+extkQ+73elBtnbXtgTbX3dt2WliUZIiWmn0RklZhMIJ6Ik6gCEpbYA21AFTBeDhKUCMmI1FT9e8Kgn1w+IPOdY8ULNyVcXR8q/mRt2eh9VfUDq72+rgFVS9FM085MQmVKIpIkNWUlCBUDCnNXnT+gz9IJqSIu/HVGzH6KI4444jgbEW9B6cQAA2kUC8LKaWOGzCJEb4iEW2Z4tQ/sBjE4g9g1QkRdJE0c7VKyf+8IuOWJ+jg9MDXNpuu6mxd4iZk6xRVfcVGuKB8BMbaYydH5Nm6zjxvFEQ63a1dDA/JSKo5GToDgCWvLyvr/5s1Ztz/x8qdPvlXa9NjCZv7mrXL2hLKErn3L3F2Kdid267rDU9R7q5Q7enkk6Yq3ttb99Ik3Z//5D58vv6HaNDNir4ojjjjiiOM4ESconRxggJu/XyR9+INu8kJq7A8b1ox0+M+pRLXrJCya1vRbHDRqcDqhcF8CYhKRA0STGghnJLs/LeHGLmsM5MZeeVqgJCfba0MRJ+NkS2ZDVCcKL1gkymZQEpJUayyKNY8DHQBn+KCD25aLiDzxBAySoDKiOVi9O0mojvo8EvX1puexhaXXXjnnwB/+XZ36sxJ73ykR3p5hinZrM1NRM4gDvuMwdSIzk4iUUd7UxGo+JX2RWDTuyZ3slw/O2vSbVd5Ij9grzyjEx890XrTkbTx/4zjd+LYyGCco3wFkUbrj+skDXhtRkL2DciZDY40bh1ONAhnhrJaFFjGi1nIS0cGkaNw1ELC6YLjvvHXbRoOwnbbBsgohEpAPCYLzjWWWoyKQLogrpxldExN2QmT8sVuHYLvPl/rbJQu/P2PNqsdqFP8Um11KFa2ml6MjxMtE53C3kjDRBTPzi3Vbrntx/toHS8Osa8zLGQMgrkjjOpURay8ueB0cB06IHTtNnNsBxs9ypzOuJ/rb+L4WF7t0BGL3MY+tfG5xsdsnHafiWy3fODx+Hfk2+MF0wQXjsCwcV1jR//E8A35RaX6r8hYnKN8BgDHSCwT61d3n9HlfoJrXEJCCCITXBSLr2HqC29lHezo4a3t8bFWJDphlokwCRM74alfVeYvrfKetFQUIisBMnB9sKd5vBE4lJMgDgTBD9aOzM9e52phWXOljqc+srLjt+R0N91UlpPc0HBIkArYsxZpljoKw6CQmp0PKBggmq5ld5Hxr075LXli25Yb9ppkS83baEVU0lQ7m8yWFGMuqMs0u4NLhenQvgDaAygbvg8PpUh1C9DvtEwK8Dt911jCWaZpmDvxOxUHGjC1oMxzoH+7bwXnApZgBM8tyEHb8DXGx3gHOUr54hOvJYcZy4V42HLMCjKX5/ZafRHA2cO3GB98Bz8v18D04F2OXjwC+A/zZ4QgEOjrfHf3DNXfs+hHxx2vgbLF3u9A/uJb3JOGzeB+OMjo4P/jutoD3wJ8zEGCZLMgy0MFlTzWrdsC9Q+IIvzFdMGzo8N1WWsWuH3WDG/CDYcIwthkWvI7vwHcT0pwAvxPxHI7tpt/hAL8YHgx3gukz0+CYhA5uJaCL3UMji/7QJYZMs6CZsa5hQvKCJJjuZ34sb9gtjTMD0O8R4cVnY2EFmWs3Pvj+BF9UrtqVY3gHymUKnFuyCEfM03bL0+EAvxjGg/GKXT4IvA7vxfxKCxKSAUcsr+lBKDt4xHtwxOdRTo6QabiG8uWC9MltjJUF+J0Gz1n5H/N2CGLPJICfFHDJcI5pgLKJ+X+0cmPJF9T/4Bl/MlzCsnaEHHYEbQYsjs6JXSFzzPjnF/6nXhT7qlQmTkUgdoMRRdQIzvKJ1qnBwFrGmJIIJxONIpEJkRylvvzO8wf95md98t4GwvPNNhv/hgDBpmtUddCNLyx89IDhmAph9zDKg9bRY3sLcfAXf0cF2qIScIItQIgWaqFpJjH4EMkmvtVPTRj085v7WQN/W25bSuC5jeXX/+zz0sd96fnFutpEPFQlTBOIariIwB99Zeug5CGSUU8cpo+EOReQKg9JFGUto3nn+r/fM+2JqTY6F8lizPtpAWPNSfs0setrC5aMWLevplttQyjNbUvUeiQ7KycP7L52VFHu6hSHA5egPjg2B9Nl1bqyQV/uLB3Yv1ePylHZXZekpXFttj4hML8qKrxJH23aOIoj1HP56LHLspO58thtC+DHVdaoFs7bvnHQop1NvStrwllSJGz2zErZP3Jw8eahfQtLXDItz2kla+sO1Pf+ZPW6CWVN/kKNlzjd5CXCcbxTb9YjlBcN3hQS9FDTo7dc/c9u1FG9eX9N73mLN168LBwuwDZDwYTaHOWpnZOpzdSUIT2yVk3p1/3DgsTENte/wcHRr344+1IgEennjx21ZExG8hpIl0MWE8K0mbduc5+P1mwee87gYbWXDSmeVUcpv3btpr6LVm4Y5snLqHhs+tQ5h5cZUOCeD9aVjlqya/2AvsWFeyb26Leoq9Ppf2f9lnNXbN81PKAqTocs6pLPrUdEk3hyPLV9Cgq2XdIzeyMQ60O6JiEM0lYtNGjOxrIRK1dt6q3U+JKZzRlO6VW866eTBs1L89i3gWXHpdnBKxPeW7n+ogUlm0dcOOmC9RcWpn6OcVq+fuvYz0pKhqTmZkSuGjn8w2y7HRcsPGR8Fjyb8J9Pv7zIH1Yzrr10ypwCWd4Su2XleSXzJW+vrO2/rKS6/7YtDYVNQV+K062qvbsW7B0+oM+67gWZG7tTCslz9CXikbSt21F2yXvLtg5iJnNDDUs3KccZjKcuu8C0UENk0tihs6/qXrSgNhhM/Gh1yY2rdx7ooTGJAy0AtRhR4Smnp3Xh6/t1Kd45OD97exeR7IHv4j5MVnnH8B44cCDv+TkrL0xISbLfOHn4u6lO534rAK1QVladMWPtykvqQk384zff/FE6x1XFblnv2AfGd+fufX2XbtkzbNPe/T0agpFE2eUM9MlK2T25Z9flPQq6lhS5aCN8t91yj+Tnfx9/cWGT11/QJz97/bUTR6OeiMRuW9/Z66/v8f6clZfubIgUaKKTSabPaBQT7DpE1MmaIw4joqkBng4qLiqfOrT/Wz1SnZWxxy1Zq6zx91qwZdPQhaW7u+8LK+lhiZIBOTk15/XquWVkXs6KDJdUBt88KKPwTe7tRSVD5m3ecVHEzqcTXlMNqnOc3a2mJXjqLumRtxnkcUMqyCI811pXJM5v9PVeXlo6Zu2GbT0am8KJDtHePKx7/pbzh3Vf1CUrqzTrOPY3a5eRx9H5UGSnpXdPH/MFCzcGCEcJFGQCui86MBacYHVjWCM5wAlAWOA35QgnysQnePJeWrTrqnU1geLo204tOFHkdEOHGgnDJdCxIGBpiN3tGOwikC2gGr0SXRsn9M3bAu855AWrmpv7vbt00xWmPavICNqJS3USKRLdkUuxdeBbBiG404SEY1QwLZlM/BovNBNX95dmrj7nACizmM9TDlRyVeGmwn/M23TXTX94+Z9vrNzzULVhG5ecmdE1OYH22FFecdVvX/r46Qf+9/mTX+xqHAn+W9d43V9W7b3ovZLNT7y2ZsMvfC5lBNxvtzZUAbXsWTt3jvxgQ8lP31q39t79DjIE/B/UNZWgkF9Yu/2SB/793O/emr34iYb62mkp6SmFKV26FW1o0i556t35v3rkH2/8/MOFq8ZjCws+g+HnE5NT99U2Tdrf4J2+r775/P3N3kmV9d5zKgLmxftV6aaS2tBlpVXe8yKaibU2qjvsuV9sq7hh7f7aSwPEPlajjmERhR8WNOiQZs0Y5VNYz6AgYCtKmxU1L4jMmh17p87da/xixqLtj69XlG6H+10LornT5+++pqbxpjrePRou2SHh+B11vryNVfU3VESU8TUMjOyREMuaGwcu27n/qnWVTQPsLpcN5NGpyWmDvtpZd/luH5vu09m0etMzsc5wT1y3q+bOf7z+0TM/+vPbv9i0va5n7B2YLtzSfVsveOK/r/3hvflLf266kqZ4+vbsHslOHTt786Z7fvLYzP+++9XuGzBPYnkg7fTXDV9dWTe9zjQGwm+Mj1BH5JzPK+vv+veydY+vqAnfDkbziKUFmsD4LCnZMX3x9rLrFVEcAO+zZATfu3VPVf6/3vzwhw8+9/yf31i/8eEGKXlKcn6fvnpC4uiFm0rufPK5l/781xkf/3TGruoxOF3femE7gJeKYc08Z2G1//atQfXiRpM736/SUX6FjGxs1gaGvOogw6dIaBgVp9O102deurkmeMWBkHG+3+QnNCtsrFflJizZue+Ov73x3lM/fvKvz73w5ZLbqiORwlgaIGhjojNj4YGq21bUN16iCQLW8o+Qg6DTmTFv6/YrtzQHLiIayYxdxjhL6+v2F/93xpt3Pv3iq3+ev2HzI2HZOSmlW7fuuts9bOmm3bf/7Y05f/nFc+88OrdKG9Qix4cDv+mNsP7vbdp+1ytlZT+ZsWnLHeURq3WjdVioT9fS6yP+4T41PNprqGMVwT59Vbn3uo112kW66Bqv6ObICC8OqQvRApPnsOUD2Si3JWQWPLtyw613/ffff39l0bKf+qTkydldRxUmpWQWbti1+7zH//O/n939zxf++sH22mtwmYTY9xDc1sqmvlsbQrd7xeRLG3Qy1a+RsXW+8PjVeypu+dFrrz/xu3dnPrC1kfXC7+ADGMdPS5rG/eKF9x59ed6qB0LO1DGZvYfksMz80W8uW/vQ0zPe+91nq5efA+W/w0MFOtwEFUengO/8bH7D8w5Wv5foMSVhEp3DmTsckBVcaxb3tYR6L5yjBRKYTjieElWycdWaNuTdVdvPLWesouAUr7rKQTAosiVLn34zGJpGHEaw6rJ+QxZD+Gtily1AIZN+urL0nF0BNlyXdeoBtiFDXZkHdRnGUgIBOBbsugr1N1zh1g4v5OBcJxIPhlKyO1btqRtwIGSNRamP+j61qPWyoheW7LrtxWVrrx7Ud3jFE+eO+ls/N93kllllkGhyjSn2W7CtecKbMxdO+t0r7/cxrz3vKUiTD8EI4KAkWsfMBCUlPWlNfTBx0Z7w+V16yuvh+hF7NKFi3FgdyZy/aff5NaK7P0eVAz6JtOyvY4LsJL0wa975Hy1Z+cOcvC7S7Rdc+PH4QtdKSO+dYSLyUD3N37jHN/7Nt98f98ncJff7GrwcKL5FEI4gvHvNH2+66peyRETIDR5eKkC9VKrlSJcvt2t3/P2l//Ue0rtga4Fo1R5pgKOO6oQE8YJM1457r5/6AmjfTQTkCKqmHDJdIOeNHpnWHk5UW8ADCYsQm72JuOWFm/cM7det2xU5g9L+CrcOTh/3gHKOgJAEBFdKkHdY3QkgNqrPIEZQsLsU0ZYA7OQIMlcLYVd4m4OYbjuvOqOb8gHxdskpnKTLZHBxv0W3X9D7Q3i2AgLHgpQOmVuy/ZIZb8269unPZ2n7TPO3eVAGvWB0X1m057qSam3gI9fe8MG5fRI/gzrHXi+lXbZt2zv95feaLntl2crbinry6/PSC1bBp0XKJBt8w56g8BguA9LVjHCy2Sy5SZ0iul6ateCq7tdPWwvXZ0PaHBR8OKdBzmYP8cSlWHTcepZbtZekPzdz7c2rqwJX9R471X/91PHP9eG4jcBwqpvJoOT99ZFhn8xffO6Sks1X1OpGNpc4+V9gpFa0bh07HJrJMzmshKcM7T33++cOfBuUVQ2UfNBSJCxpuAEd3Q7eDBv2/eo2yEtNufem8/7ZN8W2GKyfAn55UFBdd1YEBn26cP55Lyxd8ugWw5d/66Rxz0GYy+BZUaNU9In2RJuY6GaUtt21ZeOkZpstURZtqhhrO4Pn6TvlkZxZ87feuLOk+ppJoyY1TZs86h8ZiWQ1kKtqk1JPg8EGv/Lh6kvXb9567V9efC3lnusvexHybHU+xx2+34h9U5lvRJVKM/i8LnRPXU3Pldv25xcMysMWR0suIdlxs8JlBTdcux+CIEFBSCGh0KiqZxf8yJOcWvvr6UP/lyMG1xmC2wtyHbBTarUEgYw5Xvpq8XUzFi+6bdig3v67pl70Ul+nvBxu1aeTPmpdhPSev2PPoJfnz5ny+KfvPvJ4yvexu/G/8D1svaGU8ytuqocuHtpvx/m9xj4Ptav9UHjkEt7s9cKKFZfNm/XVNNmwR3593bkvwXP7Svws/+3ly6eFA2rR9y6+eP60wblz0wjZCUQ/a2XFmCufefW9ye9u0K8qzFF2gv9d8B2UoaOihU3G8R0ACITaV+TWDC3O30yYZmpgQHWOEUUwre4QUcNFzMBhxYgJYGDhmgl6UwctwPEkaPKps/fVXLRkn/eQGvGpAEgyhBRq7S0zi78JON3oluxeNyk7fyUW+thVC9tJJHv2Rt+4kOxK02gzMeVGEgKNFBRAb0FaCEA+jgXZDBOd8iTAu4jGicTGK4SpDcSQBd5vS8jfdSDSA9LNFvN+ymBCzebj7d7L3pq34poJY0cseeTaUT8/J40+l2oji2wctzOFk0t68fSdS/ok/v7OayY8L7lk98uLlv9gnTc0MJbPZiIvm9S0gawkyZ8sXncuMICc6NuPALetvLbbvkZ9DLWny8QQTA9ulGoFw5Rnrdo+/MsVG6/umtdd/eHVV794bpeEZ/II90kilTZmUbp2MKUfT+riefoXd9/2gmBPcC/f7b921vqy/iVAICHPQqk2bpub4zYlcdx6J8ettglkTXWT6n/vndc9+amJu+69/pIXPJQ2wvdAXJg9KICd48INUH3dnEDphgSRrs6UuBWpErcywcbtPJqSRKOlCjbeJiqssGu28slnn1xREwxOaC372JzITNMwKVRaTZu1eWEdXqMCBcdM4Cag7Y8gKFDCpLAg2jUqwilOmI8aI8Ybps5UEvHW7QVjszGX0hIwapt7EvL6lD49/lE4oG/DsooDozdV1nQD72AvhC6rqisH5fXvsfvC4sS3wf/cPFKzrR8hs67qWvDU8MEZsxKSdbXKW9sd/GPZEQ3qMjVqOHimWJsrYhrIBtOcCk9H9Bkarqlvzv5g/pLryhjrgmFqDUZkjpqyCKXCIq5gaVzvrJo/ZdHu8ivOmTxt808umPjUCI57tpjSmakct7KI0s8npNn/fv20Kb8f2LfPkq0bN/b88qPPLtjvU3IhHdsvy1Q0WILTIJK6N4GQVZB3axLgfZj3ssxthjC37FINf0weqwU2EqmAGsAmlKMs8NuL0rcuznf/8sHrL/5x/4HD1yxcvePKRSV7roBnLDKSrOvwFYfJ6U5TFIQ29RmvY8+xCHpRpJBRFjmp8HqT1i5ffNHGvVVXTZoydcc1F4/+S59E8lwXSuflQfjyCVk6kCP/u+XS4U+OGNprfkNT/eAPP/vksj01NQdbYBD4Li9j2fO2rx+Y4kiOPHjFpRuABiW+9fnMSXDvkBYXiKueSOnuNEq3w/vXRIiyxcuFuADVvbyobnKInlUejtvm4DhcOoEthKAvXLP94rkLNtw8dejk3T+55PLfjnPZ/t2D0i/ArU0GAtndTt+9vn+XPzzxvTv+4uF570vvvH3Dep2Ng2/za+GbfllndVzIMBPEcsjsLU5KN9ntdHV3kftoUnGvN1PT0xs21FSNXBti2JrmPFDXUFxWd6BvcdeCuvN7586EvJibTsg6ENRZI/OEZyYN7vVeuLHO5qvZj5XjDunxOEH5jkGmtLZvXvp2ylSQPM0iJtipA6UFhAF/YHMBdmtQHH5NBCAxTAOCguqTF2h50Bw8f9OOC6oDgVTrhacGlmKF8CFz4tqT7KiGj/5p+Yf/MW6gCpnNLtT3yc78qmcqOdg/24LqhmBmfVAqCoFCciQKQMYaSRCqamEh+jWHbr34qMCudR1CF+FtRAOiJ3IaVPEjJKRHOL/JEqoDShF2G8S8nzIENa3rq8uXXp6R7QneNKT7zOGgoECJ4QZ7ByMF50YuKLephUmvjx/Rc8HO+lDfhWVNF4DisTNWb2Jtlnl1Mz+zm3Gg2lewcWfzRCQcsccPYmN1tW3zlh0jnPa0bLeUrAkRznAZBggQIYvBJqzcu3e4KjnSJo8as2hwCvc5aOx9uDkgfh8cGhwDW7e6esicqedfvGFPbahvacme0VxlZVvdJASYSOrLSxbeXGPzuwtHdvlMsNHlsXiZTqCzHNNEyc/hiL1j1tYOBwUiArqaJbtN3/nnjpzLCZrn1bc/u708wgpiXizwOmfyBs8JhMNmdR5HSOK+lJzJUZ613ToDYYQaqigoAicEIZzgieGgnjq9mag2I6KJahDYDuaRRaThqIOh3pOb1ctLxYRcb20IdD/hjYjhiYgNHkVoDnA6xXRWKc1U9kL8qUzL7pyc9bO/3XHjPROK+86FewbzMxoGMhWUTC7kRKE+gK8HoTRIomLyY4q77Bo7ZPCqJZs3jJ67b+elkMcH5RWq8QZoBZNnPJhrq2WFL9+2raikZM2FPftk6BeNyn8fZGsukANslbLSG45IgLx5Trr0pkunvnTfdTfMmlTUtzlXoWik0OYfAYi3wQhPnSGHzRmSmQsKFr4ndvsQKLJCwiKjIcGmm8zRBP4OjjOJfTvSR6AL7z530qtpLEFZMH/DJdt8of6QRcwehnirAiebIvY5oN8jviEz4HOQt6AJreZlSFd5c3N9r82la87Py7Xr507uNTtRZMvclNbD8wfjjDKdI5AV54we8tqtN183c9Cg/jUOzn7IgHHsdis1yeBlOzZ3d+n6vvEe8f1+OTlVukMY4lf9rbtbDgF+x8U41aa7VM7P0xRNwPJzsMKF30hSfF0XlpZOS+MT3fePHPreOJ7MzYiNF2nxC0cdd6o/38N/cseg8R9Ul+xMX1tadiFIRNJgkP0k1c05VbdKgxRE1KpkYPxMIIuBTLt7v9th9+33N6TsC/pTfJCXsl0QiciDeOgR3TSaHVChwG9AWiiQgevuurDnn159dOpvzhlctDv2rmMiTlC+e/BNKcwsSVXVRlXUwQhT4lZ44lZN4rOHiASiy+McHk4lBo8tKwIUTSfBomfHThYpPWHOTmXSzCoNxyEgmzkV4LY0EUeY99hMXqQc04mEbfU4FgV0HI6X4aFSG5YEK/wuDQf9aiQCqkCEe5JhEl1UoZa7ZeNdvYqW4C64sfdawALt8wUzgnyNncE7FJ9M7FoS8agGcRrgFXRxGEjHsRDhcUNGE74fBkJjEE3lic57wErKhBMlx+Ky+gz1FLegIIlYUV57btjryyvOTintnpa8GS4fMtCzNVIprRrfq+tnCZppbl6/esI+ooIxTiGmVA7ikh65fGjhVpq4q/GN0h0XgpbBWvxBQDryB/ys4MPy8jHDhic0Z5vNpZrOmzpot7VkLR9s8OWW7t4/VHCn+/rnZS6Bmm5la8WKgN9oKMwc4IzjC9PW8hmiMS9QMXirLONsjkP0FcTNPXfH3hu+2sEN7p+QvuLhId3fhVrswcGFIBN6kl8DKU2IOEhQh9o+1gyt2SodkV2Z+IBo2qVQIKxOzhJfO2d4n5dXbwn2W7Sh5u590VkNEFSg+oJoRuxguLUGDD/NgKAZQtDUJLCALAGMLRaoQwHG3rSB8bMZkm7TDKtTHqd9eBiUMiNVdOmS0JqR4bdcGnE0VTTbTS4hnJrisWRYEljTkJR+tfu2BLq8unnP+C213uydDQ0OuInfNDNttLwbx63L5RxYszaom4ZzlYhBjEJq00FISTb64/xCxOa1Gw7DpzR+f/Sg5zPsSfv+N2fbjV81G1Pg21YLEJCSMOW9EVVqNkOMocES1pR5e4Ucud165mTv6mn3bYJvHDK4Exz3DjwPbCrSXaaLb+2b9/cbJvb7X3aahF00bfabJsKjDVISi0hBopAgGjK6hjERW9HwiO+L+iQkHfiYxBlCgLqY3QijQTyCZMA1M89FVg3qUbjlQNCWXdIQHkZpOSU2gfnsOqfzDVAfa5sARQRVtynUlLVk0pxAGITNtqXU381rJhdk5afu7iOQlXnRgb9HPI9baFyQIsy/q3/e7+4eNfDvQ9MTcKDuQX+5zSS9dE3NOdU2V+rYvilLeom+mf1Hj9iy28we8OqS1ePbqgC0ALQy6G6FZ2IjVrwO7zYipNLfY1tl08CsXgV70zLE1YfrvMPgG9sreRHJz26YsXrPcAdj+eUQ0EZBZwwLZrUAAE1WSURBVLWygzl4GsompKU7jtbWEsnb4E0ONQUTUpxJkaQEj98DOsVtT/BmuroFtm1rKvpw1fZzFnhDRVDmcIaU2AfyupDYyvOpaytuytpWerWFOEH5jgEEA9QfV1qQlHDALgtRIUFdjb0n7TVNtILCaSQkC8UfrNp60X7GDmmyPFlABRnRqd1gBg7uiCknDGxLgKPRwFqrBhINfMsa8CvhuifghZd5JoRC9VDNm9M7z7HT8nwo+ICiuxjhIEEoaHZMCyQ/VtN7DB0qT1Eclo5QFK2atd9QPaCRcRpgB1L6xABq5a6a+qaCCDH5gpzsUidtf8wFAu8VpaeUCDZXoLIxlNOkaOl4jQtJJOAy1NxUveTCrr2+3LJzR6+tDfpYjFfsUVJRAQZkzYaRDl5KnzJ62IJQsHGXy2XTgLaxIWQIv2PvvjR/KJIuOxP8SSkEw9GmgULAvUh6Ctnlcdq9kUYj0WjUccrowXTD7+43jDHvrNxxjRCqD0+fPPrzQncqji34GjxPDCpwNe603C92VA5fu2XjqFVbd498Y82WwbNXrx+04ygGoHUeKYaOc3bZdWPGfcJ1FUveWjP/ggPh8Hi4hfrT5HQIDDOYibkMsAYAUPxJTVx2yIjVrFsDCQR4NbBlD2kOWBj8HscJErBHqInKdnsgQjzbgITtYSxxXSiU9c7m8umrK3YkdU/k1nXzpGBcNckpb546YtDsApdAZrz//vV/fvW933yydOMtpdv2D359fyhzKRiIBYeSMdNvV3UoJ0z6OvWxsRRbJjmmRszsJLbrpkvPf8W7r8w1e9WOmyoZK4awAgXwmgaxkybJowOr0RvgvTXNzRk6E8Xe3QfuyqMJB8ck7dixQ15e0ZA9r6qhZ3JNTZ8V+9XetftZUWmjkLqqrjJrh3cf6g4cm3QE4FvW2pEhU5H3h9Ueb+7cP3nNqk2jlm/ZO2nl6u3D5C27DnY94dJIkHQQHGYyTWtXrpMp9XXNT9zebEbk+mAoi7ECLAToH/KJ4Oj7I/IIYSiKVU/jDQ4bmynEWaoP+rIMSRK7ZeXUQN7iDJ12+39RxsGFYq2EB4kqxJGrlEjirG1lRYbGNfUdNXaDHuCD5/RJWx5qirhmr9ww1gvsMeb9CDBBwHdZqxng0br4NeSymubiZkVNzs/LqUg+xrg3CBfLz8iodfJSQ319cxrIYmYBBDBF8WopekBghj8BKiPJGwhJOOAnSfsEtctXJduGK4qWNLCox65skVkzgAoTyI6Jw7uuSE+n2ofzZl36j1feffSNWctueG9X7bAvKhtzqhlzbAGei7IU+/QxESco30GAla88t1/3LYIaUqMdITxoJuzF7UCDCGi1sM3uXFETGPfp7ho0UG0qmRMJEH6+OWI4NZ3Yoj08bcg3lFM7qM0IRCEkckBQBGKHCjcu26+GmvUedvvqH40eMQenW8aeOAS6iFsJWp1a1jgcnF4Nxs0iKqjG2jfpRwK9ti6C1rNAUiI8laAagunV4QL6bQEFXAiqqkuzUWKXRB/UANslBS1wgk22udNUv+Fw6GgsQYkLRhIXEIMqp+sVtw0f96FomN5Zm7dNaAiFDpLU0vDOrIXbdk3tU5DfkG8jHxLmD/AC09SQpWe4eq/ioNTlMQ0hDESp3QGSMZiQG028qQZFReKoxh2Sbs1Qy/tg2Zqbl+1pzrxwcNHM4d3z54OcHGwZArkUNCAgOsdLC7dX9H72/Vk/ePHdj598/s1Zv/33K2/8/L1Z826L1PraG0djAarYEG4mJNlkhVOIlCORHbfdNvWlSm9NZMZHK763JcK6wHd4XdUUkDQdzrC9zZIUbJsAAD0BigKwfrVCChgrxoDZQKnDkab2qPECJwAblMXS8vJhz7/zxo3/e/6TO/7y0szH/m/G7D/8c/78GyW3tufBSye+3SXJan1i2ER/cfecZ3969UV/n3TumJ37DKHfR19t+95fX/r4/2Z89Mn/ffjpwrtDNQGcadFSuM0IjnNBEo/9kVEbAA4ugIza7YIBws/Gds/6/KJhfWbPXrJ56Oele24AkgJ2ziNSUxCCvMwUiCJkoOBTVWfE4FhGqh3sDzvYerKpLtLlXzPev+93L77ztydefv/Z3/3v7X/97l8fP/Pzlz565icvfvj0s5+vvmZ3mOBaHkeUBYwXHkiim3y5fevEJ15+6Vd//3T2009/8PET//j440c+XrLgYmxNifrG7mcTlBiUeQHKazvGj7EG5paFprCLmIpo7c4uCthlhbuNAklUVSBFbQCk30QqIDGqgS4wQcAErxpxRaAek5+cUuNi7Fhy3B6Edd6aoeXV+wvGp6Ru72lLKnG5XEpvQpZOyc+u3Gc6Bqws87aedXQodB21FTbEHSFbALlKVdIilMoJCUIt6PuD+dIegKl77SbvVyM6D885sQUFyjyvmR73gpK9Q5564+M7X3j9k7v/PmPmI3+Zseins5avvLAgP7vqkhHDPu9HiDXgFUhg5YWDk1+6/6aL/jll5NCtIY10/eCrVXf+3+vv//nZdz/+/bMfzbmmvqqqCLvJYp89JtqOfBydGi5KAyPznDtoqMmL1QcoK1CCcfxpW7J+KNCEKxGV+MXEwk/X7zt3a5i121d6otAEysQbUdyg80Gx4EB+FNvD9RAjInjA2b0qL8BdnlDNIDzoFZsWqBxXkDNrKCH7YsrvcJiixIc501Sx3cQEgmJSrH1Ti6zg95C+HBPgB72hisShB+jwa/gGbGYQHZJVC0OvpwrweVOSJGwHF3RdxV6DY7LQIFHkkKpLqsnpkHyo3EwmJRimvwFNQCDFJZaMysxZsbSkZOg2WR6DShQNw5qtuwY1Er7bpeeOXaIQZbcsUb+vuYFzgDqC+8w0OMUhOXSm6RLUDo/VkkQbKBVFVSEuzoCg0NC70eTFd0kbDigT31m1dWivtMx190wf9noBx0UHU8QA+czjCFXIP3N0r76VP7rr7gWPPvCjuT//+b2Lnn7qN/Pvve8HK/IzEo46Ew2yH7NOCIcinC5b39Ym2VOWXTV07FtfbS4rnLvzwHXNlGaI1mx9CpyE4qAOK4wWIH5gx3Ba/BHxhJo4B3d5AywrlEET29/Bm64qGvBigfhDgYLdlZWTqsINl66t8N20qZ67uPeAPhWPXTXpzxd2yzpkPZ0kSveel530nzunjvzxrx65+XcPP3jn2+eOHrPLVJq7LlpWcsfbXy67e73P19LqYACR16DqTSKiFT/MOw4CyUGAQGh1XYSAA5Os/uH0817MTvTseW/RwssrtMi5DSpJtEGJsLEAxswExwhnaIau2MJhFceUHJSt3K55yqBBw+qHjTynauDIyfuHjR5WN2RsfzOlT9/CGpIyrFpz5Qj2tmUR5QICpDgOhLTrBo7b/MpDP//shYce+uIfP7xrzrMPPrT4wYuu2N7nYDclbjSBSQcpTa11EtqBKGqmIeoUWJnVQGopAoOZJhh5eAEuAdkGICyYiZhQJq8yDT5qUEkKm8zkDdWQ/IFW+d1B4CvBpaxo3jq8QWh29chPLM1JYEptLdKOcN3gMV23hO3JOUu2bh8O/g4ZLBsDhpVCrKEAHRlleEYwoMLFeEFgumkPUXrMSmQA8t8IR+wuScYEseh1E+RPg42XdtbXF+yt840tOdAwfVFd3U07TDLpqksu2nX/TZe83C+TX8hxnA/9Q5Ka3aht94jk5Fd+f9GkX/77xzc//dAPvvdRv4F9qiN2edDbi5c8/MrCdbc0er04QPpgy+vRcJQMjaOzIomQUBcbV5rqEOtNzoQShsNjsYC3WYk4BMwULWMLFVP7xkr/6BU1vtFHayr/tsDCDDVMZ9mBqjQwAKA3LWBhaPFxiMMii2UXl/NXQgHiUkORLnay7LoRhfNaCtLhgHeZqTZbo1vkfBLoXQHnC4HWslbSjRWRlq8dDegTP48sxITwoWbDa0CV0IIbeSkJQWBYqFiPW6l9U0D9MpKbkbpLC/iMvftqCkLHWIMC4s3tqWnODwZ9tuKctPJMl82aju3ldZojoIzokt1u9185qPf7it8Xnrl9K85qSWlubk5YU1Y1sbhbj0i/bO4rZ0TWIZaGU5ZNUEXWYMgBXYvrXYQdsDEtdZ/XWpOiXcUJ92SvznL0kOJMcmiNMg02Xg21NLhOmwnp/cq67ZfvbTZCPxxWPCOX0m2xx1oDslLjqMAbKc0120cnyu8OTHL/eaSN/qO7i39hUIpnBvaFx/y2DeSYkPURpyxGDGKNHcqhtPHWoUPfGpSbv2Tm53MuWtHknybZXCkRYLQiLx/MV8EmQtXWxPXFBO3QNWUsmYYyBPaOidiG4RB5E5fZRPA8Z4oiZ3Tr0/uLRx++73f333f1c4U9++3yhvlQd1n88rJUGadcA7/7GvCYCNeUIkr3pFD64cW5/P/96tKBP/n1TZc8PbLvyMo1+/ZOXbB7y9SWAa8ehQtiy0GYs9i3AM/yPAQVh8W36udgvSjdesOEfv+ur2/SX1u84aYaiQx122Q5QWnC1i0TEkTLy06sMlS/vmTZ5q6QL7j+jIV9mYn7fnzewH89NLnnPb+d0OMHD5+Xf+8NF6b9ws5759tDSmWPrKwKeL7N1gcID2diI4/dqbl4/auRSdy/Rnq4P1+QLj09IZX/e/+8lM/Aj5XWMvzTNYPneAHbVtu1Z81UdJZWHShymCaX4XDUQZqZvKnoosCpug5SjUynjdYKnCrESQL21eHCUQRkLVKYmVbBqRFlTenOfNFFrLFIMe9HAO5JuD4Irv3RauyMUB0g3VesKR+QJCfJvXJ7JGxtDPZdI4QHrPWaPRKyUmocYqJ93a7yCeWq2m4rH7AclNEjAEHWe+Vl77IRFtm+s7LAr6o4bvtoYeT2VFamUJO685KSmyBfqkBmWZhvADbbHLrywpGL/nzvzU89eMP0V/g0c7fX4Wvqn564PF8ky9JbdR/he+AgZEMdESrBpV0p/eTGIvcfH7hk3CN3XH35swNGnBtYvr1p6oatewZXs+oOjcVrN0Pj6LwAAdayBFqRnZ5UafBYgUDVBOSkA2t9YB+0bOpEYCrx867CudurJ0qK0m5f6YkAsHtPbXNjOqE8lLmDzCQGLKFIrBgBc2S1onAmRxQwpqJDZJ6If99FfYo+65Zw6Lonh6PY46lOcwkHSNhnyDwSHXgRViitrx1/McFQgWqziA0zoCpvslAOGHtgB8EW5XoqkEppqDg/bX2eJ6G2tLy87+r6UL/2Fo1CHAAjs3DNpvOMcJNt3IC89W6rss94UNCCaGqCSUUewk/Hdc0qKUq0Lft0zsJeVRHSc8amTf33VPv7TRzYf10mIVv9QE6Y1cnGcOEHbEUwBue667qmekqb6ysT1+6vGFhOKS5IdUTiwjWcLZG6vKRiYJMvmFBckLU7w8lb5HInY+4Plq2ZvnxVSfGw7t3nXz00ewnKs/XgIfBSHj4OutqwmRENLLMXjLcfCEY9Dl7E8MQ8tgtgT0AyqKnyApVVq3aOM41YXiq3/95zRr8Rqatkry1cdVmECf2I5JIgKpa05MJzqSkJClTP1aAWTlI0gku1t44nNsjZAqGILRIMGB6nIwQBxXeD6CoST1XdwcxqFy9vSSOBOdef1/eDvEQusmHt2uFVDfZDWiwbG1nCh2u2DPp8T2UR5lPf6IwXHBPRMCItc855Y4rn8U4b3VF5oGcdpbhMPNpx+DyudIQ2LhouHBiAhEyjHK+CIYZ3YKFSpg/NnXfuwIEfzpu7uPeSveFpQcmVLGjUgLTh0xjTehbk70t0OOpL9+zrsc+v9tsXI0FIJnHcBaZ1IqR9gDp8O/1Syu49lSlJTs+BvsW9d4G3gzNuWgPjAdyJBWyGHhEVH2MNuAouDoC1ZoXEvLUAwg9XCRN0xqHRO8IQw/tsG+qD3VZtLxuaR+3e3m4XLtJomIKhAdn2+sNBWzCsYroeYjThOeoNKg7FNER7oksFJmcEGFP75GTvThD4utW79xbu9Gk4xRa7jA4BPotpMaeyufeMmUumzP70y1G9t1TgUv3YIuxYS8iIGj0tb3djo/DiR7PG/v6/L9/zt5dff+A3/3v1tn+8+XZPrinIyuuru63YV4njf9pp9cRqZZvEIzAwI21jYWpi2e59+4rLG4KDoRC3HnN9CPYRkjC3tHSEwWjK4OIuu4C478HrtpBkOjU7lxjimwfwbOWInNTPR3bpPYevqycLV64e2qijqEfTG8nX7gBLm7W5qv+Xexu6gR7BZQFQFsN9KC0fkSh/Oa7noA2SKov1tfU5BnHECUoc7YPTxdq83JRysOZKtN8BddaxCYrCOQgP9XIRKj8hXrItrWgetqJBGfp1n/AJB1/l92fU1NVlEx4XJUG0lMkW3YZhZ0QFjSvh4FidEl1gEFYlUGiXFt08qv8SVJQxz20iWZLqBnUrWMcbwUZqRKAmi+9G11JEOl5UWp40gfRF30ANu2Q70DvduRlqFm224pwsoCJO4fmSq887d443pHn+O/OLK3bWB4aiYUPFB85q4sfzDX4z/YNVZeet3L77vJ5dcyqGdk2aB1oNjQjU+HVeEQ2BmJzllzpo08Vj+3/GN+met1fuvPXdNet+kFvUU57aN/VLYD8+k6MC050yMSmnIFOD5Ci20eqRfXsvFpxi05w1Gycs39cwoT6E+/DswNor7kGCTvT7ScrqspqRM+cuGp2QklHVrbj/Ek9eHtgGxq9pqhv92herphVSufGJq8d/TsgKJFAtcWiVSSYaYAPbuJttzK4TnKVrdWe0pdDbBM7ZBWuup/t5HDd9CAb3cq07d+LQz0pW7c4G43yZLrlcOLADCKg1jbOwS/dG2elsqKuvyS+raOrjZdbePxg/DKO9xhvMq6mtTrVL9oacnK4VLqiweoFUEaqJIokQSQsbCUC8imhm/aQE8t7QrtKmSs027KX5Gy/cZtYdNDY+Qev71sLFP35u1ryHV1U39IX3txgzDgTe1uDzESXUzKW7PDgvGQdsUq8k8QZHmVsxUT4sdg/8UzcpD7QcaF0McI9hK9MN48e+0yvJXfL6hzPHbveb/TQhU4DkwNZMvSC/aOfIgcMWVtf605/74MtLttQ3D43uL7QAZQsIEB53uvdVhHq/N3vvRY31kcJ+3bO3FOebpTizJ/apw4GshSUqYcOpYAtPCuYZkqm28w67pggTofaErYPWnkXgovLUxBKXlfsGv75q/VW1ipF62fCxc1MFeT3cM5JdCc05WZnbfX6/s2RX+aDmCMuA6y3Po3NvWr+yT33Y58jqklcDrC+UB0a3d3Lijr79+i7Z3lDv/mTh8il7miODwC/mLz6L8cZvuwN+fcCsZetveG/JynvX7q6YGJI5nNEC1IulvTFryRBa3kCvGdBn3aR+/TdOHDiqZtzAPpVje44sn17cfdsFg4ZuFuyye1Hp9pH+Nlb1RaDaxjyCU3QHAdcMuxrcP2lY/09V3RBenvnl5SWNjSNwJeBY+KxyAE7c7zVTZu7Ye86c9Ruvy8jOMUf2yV8C5be+G7wXFx/mQGIMaiJ51qDiUX1B/5Gf9UnPWzdvb1WfOZv2nbM/ZKUZvQo4bnmDt+8LM+ff/cqHs+/bvKt8YIysMlxTBTivoWn1piz6FLfbFTF8bY/5ORwd17pxdCok20ljUVbqFtFUmkEHQ9lGGT+27sYGDJQsfMYE6amKGEXzymrHekIsLerjxKKaMXnz7pp8r9efa5qgAJBKoTo6tEhaRRSXa4JihfNIwbBwhmCEyiYN6/d5Vzsuqnh0gDHwju6RsjzLIW4RtbAqmKC8sZ8IImvpAKrAJzCVsOLd4sAPlDP8JnoxoFKO1VCLkqAdgmc5oCkC1SKpibYtfVPIJriJdu+Uwk1pw+Ceye8OGjxo9Z4DVf3/9fGcGz6orrxgiUYG7GCsR7nf3/O9Bm3IB8s2X/XJwqW3Qo1fHDe030d93Q5cLwVbe3HxBBOH/6A5g2soAvrF/Qat75GUsXvO5i3TmkzbuInjR20DTYrPQMoxynOcwFOGM1QQKFyhkYMLVhcUF8xprqlPfOvjL694p6T64kWNhYP2+JTiTYwVf9LAhjy/fsdFM97//BIlGLEPGzRo/tChhdtwmuJOxrJmrdp+WdCdnjtoSP8qPyWeL/0DQAuzgeg+aib9V4dNbEmwMaboEQM0MQ6ykpzJFSbXc4/CisvgGxsiZnfcYfpAdCO69sbkYDMExxsRPUXXwwHJ2ojpIE2BOIbGjhn2Rb+07C0b9tclkHBYtskCkhOMp57rsVfnpaVtDDbVyZ9vWH/+zArflMWM9VkE6f3x/siw9+evPL+srCynMC+zpFdBEi4Yp4YZLxpUp7wRNjhmYHsmGgbTTmnVDy+Z8gmzu+mHa9Zftra0fmhLuEWZhROychJ3NgTO/XDtjuvn1muD1ppmwUKFdPuoOjB+5prNo7J40T+ie6/N8IyVFWEmShyng6XCeW+WwDKNMigvqsmbBo6iPsQu9HXLey4fP+SDQHNdc31Yl3UxQYpgUyog1U7qB/Qpmp2bm7tl5fatQ1+fveCW10sqps7xjhmwWGG9Pg2NGfTfrfx5z8//6rrNJZsH9ivM3TF5UNa8XOLH8WBt1ohClIqSqUCFxxA0QcjbrWn9IN+KtjHWDWSk6+5QCCeZWK0WmClAhnWmq2JElgvhfrd14GclpPMrXjLwv7v3T5vx1Yrblq9eP7K4a9HyiwYWvJNtJ1XwbUhbR+PwvoVf2Tij7oPFK8d8vqf5oqUaG7IFngdZ6fbk+oYJn6/eMS03IzMwZlje6iBj2JJjdHXRpqETRswd2LtXyZKVywf8d/YXNzy7peyCTzQ2GPK495Ig6/tWWcPE5xYsu2ZpyZbR2d16+IZNvXBVXlE2LiAorPOrPSq8O/OdzFtx+ch+r9180cDf33zB4N9ee86oJx+YPvhPd5079Jlbp+fNyElL8W7buXfoLl/4kMGyeA6yYohagJNIRAWWh3l4CFwuV/OUAUUfFxXkLdq2u7zotdkLb3lzU+Uln4XYwHmM9ZzPWPf3Kn3Dnl+++vJ3Pph1u82dlD106KDPeqaRL+Bxq3XR4EKcIPi0kOg1ylgAv68Oy6K7evfvudCQPeTLVZvHbg6q/YGAoCyYruyEMJeWlrCvKTBu5dbKS9fWKCNA3ouBnPf+ssI7bs6Ced1tDv1A18L8XWZCQkwtHB3tFc44Ojmw+XWWT11TYIZ3V2rNabrk4Qn2Kh8DHFNAcGUoJBzhmUo0XnAtK28aua2P0gcKDi4EZAn3iQC8j+5iLHne1ro+ms2TCxoFh4cA0AbAiWUL0EUpk0hkqJKFid1hI1Io2DQ61TX72uFJuHDXMUexY7i3mub68sHFn7y2bHuW6bIX+02bgIMJiakSXtCAWUA5RPID38axLhZvsb6P5xTSApe65wjURi2CEgk3smQ3VeVIfek9V4z6bACle+E7RyiTkw34plllmiU/nD7i/95z0GsXb9g+4O9vfXJbmttTZydG2GFG+GZd9jSqwfScnNTgZcPGvzite947rtj6Ds1Y67I5fU6fGrQrhloB+QI1SS4balrjR/ac989ZK0cV5BQERxd7lqRQapFBlKQkWyTS7A2GdTSM8B4MB+TpgUemjP9oXnIqnbN6w5gXPvtyWjJPRzo5ozkk8xzUFlPDQTUxN8ETuHp0v5nnDS+e1Tu6pD53IGT037R2xwAv4cVFdTuK1j63+hbiawjyjiQBh4gImqpl00D5z2694oWitMxKxgd5l2lT95ZsTftZXenlnFI1WtEM3pBTCLCX0OR+Bau/P+1cVMhHLNkPgHySmFttCuppDm/o4KDMKDBdIE23XDa164e/nGMWJDdVZHLhSj3AuvFujsOxl3X3TBr/6UvaHM/80q2DVmzfeUeKI7lSNDg1Any1MdSU2qW4YNclY/p/NtBBcFlzQyFOXgR2LEYaw4qZRJQYCYFv6XWmueSG4f2WvfdV9chPFy+/dFx+fimkJW5cV3bLuPEfN4bm2+et3TC5ZNPGnHSnvSIs252lXl+RLiS5f9Z79EfDk9NWloOMF8IDdl0gUni/qtrHYLngmiGuEZmZSYY37FR9YWDQ1lgfjGPs+5EK05xbUhPp+eWmyvQEQYTaiYm9PLQ7xymVjG22X9HvuXkb2NVbt+/tVfbBp0Updk8tJ9ojAVN3BiKBVNku8MUDMrZeNLb/7JEZSWtATtpt0YxAvF160PSqNmHepp3nbN68KSccVuo0MUngBV6VvAf8N04f+wmEcW21qkqiwPsl00/+8uKbk5L4SD4EWtE5u6dO4RPCWigrNcGlTB80dOF140d/1DXBItBWXsLz5rRuqcu8w3p1+XJN6eT17396rVsWx8hqoMbNmbZNuqtLbkqxfN3oUR9e66AzgSi2DAZVgTBtyh498MUvmHL58rI9PeaVV3Rx2D0NTkYVWdX45oiSFeCpq7gwd/fFY4d+OK04Y1kCxwWhLCWVlpf39zfWOEcP6LWgICNhTTouytKqmxLC5fMSsnJ8zy7rP5y9p/uSkm19csYMwXFWVpphvjTYbJEkpSqYbCQGwC888nV+ITCMcK30weljn5mZkXrN3JVrhm7ZNesmt5OvBelUJV5QgxEtUVX1LI/TEbl09KR3JvfJehvKtaWj9oCCt1OHmRio9bpYQsBJnPhOLL/+qwZ2Wdm8d/+S1Vs3DV2wcd3om8YN3k1kuaxApLunjOz7+acRvzBz/ZbRi0rLChNTEquDatAV8PlzhLCuTh0x9ss+mVnbcqPc8pg4hCnH8d1CD5ewc3h+zmrODAWZBHV949h8FXxZqjs6eBRq1Dqj9b5Q8crSA2N8DNcxOqEQSvx63o6m+l64pwmwKqsEWp3l1vFQJ0JdgrPJJKB6tTzeu+5H54/7tCt1dXjvm94c13DtmD6zR/Yp+IwZTeWcTVMFhxOqsR6i6cmEGrhgnYMw047TWuCbwOk4nKdhEoPXiWCIEJDo1GZNCLPUFFETw3U7fzj1nA8GimQpFPCjdjOdTGRCjX+wKG54ZOrofz984+WvThg2tMTu8kh+zp5azyV6uqU4m2+4YNLn995w+X/GDyh4M9VBsZaJyUqC5ICSLpg7u6e5FzgZ28lHCR/W7iMjinJX9kqSZ08d3O2zdBH3zrOmMZuqNxhKF+m2Ao+0IkEnOP4HWSQqOX2Ah+6+bGTvtx66+dLnLhvRa1WC26X5BXeqxkupWZmp4Qunjlpx+3XnvDJlXOF7vWVLYaLyptQfiXRzyRt6uuWFjqaGHS5FCWbbXYT31qqcvzFAQwFFDQeJTZZROHXgi/tz3cICd4Fra6PeRBVRTzUcXKpmN5MVWU8JCswFxAOb45FlHgKMuxQi/m7ZWRvTZWElhdozXLbi0AJM0zG9ey47r0/WjK5OtjBdYjuB1FktZPC8OjonedPNV1786g1TJnzYKzNprxhqsuneAwlZTsF37bnj59457bzXxhbn4DLu2I1menCMRVPjzly3c1WBy7YPSN5Bsp9CyP5zenedUZzgWGXU14k1VVU4IBXj6S/M88x88JbL/jl9wuiFaQl2qamptovqa0zpm5FReeelUz+aPrH/O6mSVAnkBMNv5jilvT2SHetsYWMvxB03cdDtPK3PT3QuT7Px62RCjlh4LJfSqhsuHPdRnwzXx1k2c5msMsxTyw/uqTMxK235vVMmP/fA9ItnjO/TbVuCTKgaqfHY+QAZ3aMADOWFnz5yyfkvn5+RtDArulDXIWnZGhLIlYsn21NSs5ea1FYT1Hm74EhKNzhbIpUSEyK8x22IbhzXw2umqaTK/Kpcl7TSpYeDshpOFRQ1V9A11+DC9ODVk8Yvue/6y1+8Zfo5/xqYaFsGFbODu3BjGLpQeuDWSSPfve+6y1/t1zVzsyhFHEKCUEASpKxpw4qq77/+wrfPG571JuTFIbtxdyXENzU7Y/ndl0z/3x3TL35rbM+eu5KZYeMj/iSZ6o4BXXMr7rhoysw7r5r28rjizAWQt9aAbMgw3myoCxQ6nSuGduu2GBIBd6Y+pCUJwwWauPycwYM+L0hJ3FJbUUHSD21MMNxQwvJSkr9Ksdu2mJS2uQgbvEcb5BFKrjq37/P3Xjvtv+P7dV0JZVIXQj6XpGmeLikJ/ivOmTjvsTtu/eekPnkvATnBheQsmQNZMbJdzgNdEt1LpWCoFD5utXjAfZ2JZPfYvoUfFNj5+Y3bt4UDDQ3YmkXTGGsCkvPFHTdMe/G8CYMXJsh60Fe3J0n1VkvFeSklN9906Wvnnd9v5i7HoTsgHw1HFMw4vjuAAi58VBOa9sgnX/2ynCUOMFUHlaP6tV1olEK9Eu0FIxFOJjoViEf1myNc2uLHrhv7+ES7iC0WJ6QVpdk0k3+/esflr6zc8WATl9yT4xwcZ6Jct9adsXOQZE41iO5xMdq8p+zugelP/9+kEe9AWI6LFKDSm6+yvi99teXy5SX7L6jX7N11Z7ojKIhCSqiRYI+BNRsTvodLKETXScLomkQhblBABuGowXgS9CWagdIbxw55/7oB+R/0jdZMTki6fBugMcYFk0DbpDbqJAs0IW6cp+UopEm00TocBNjGhmZWXtQpJDlDJt7Yst5WwuPMkB0qLbCDUOThZmJQo8brKFv7QiwdEsOWbyOokA6ZsYHhgIPgB1JbR0iSj1KHDrU2Gfy54XNwrxmUpNLyHQT2odcoJFOWiU2D51tGJpoa8EeRaDgiLwEq4NhXDpc1L2MJ+1WSqUvEDUYXNxfUwBJYAQGSZYDRr8tirKYlzIcDwiiWN7BuiouwRJlWtDWOCeVlN2OpTNPSMkWxwRldTvxgmHFsVjKEA9I4KajhEjOUiSILi5R6ISy+bFD8Lf7hXVwtIekhhSQCAWjIcluLgB2UmTrTdEPJ6xHSdZIeEfe63bjSv1UAME/tcC8REi4fEpbaoYaK6QjS6cusgnBnW12LKKxcQ4hlVtn1wq5hodzhoLWYFyFKk+rCWhfRJjQA4UBDdbBG3wIcXA0Xs4DQ2FMorUiiOKHqa2BaNDDm5IFPQa0gCT6Ig8ZwhT0vhMfnItZ4JszToxonTPdmxnIrITsdjMkgEyJU3TVc3A4NJUQYF86rBTnE2UxcqUIKOYkl4qR4XJpRA1sOdS0NaktBHcIIz0TAwLc7OB3DDRFxRxhLAsHJRuYNsoithHUuxupwb6ejPQsHO7C1dNzEDzILB/GAyJFmHBwMYURCdFCOobzIDSopbKSa3S2KlUDWDsnjFmCeQFrmVOsk265Hqrva7QcwWLHbVl4QjRRCnUiH/NoN947IrxbAu3DMiYh5DOU7LaxRnonW/OUAEK9mHGfWVhmorzc9ISdJT7TRZkiD1rN1LB0CcUz2KQqfaLNhXLF1yZLFA4TYJCirUB49/oAqcSLTbZLkzYVvQTgPWbDuWIgTlO84KkMs/4G5yx6etSdwKy9mO5l59K5BA8oZjvFAC61wEmgMnvBqkGSEmxquPmfIvx4fIj+TyCWi4vxWwIL/VV1wwG8+X37n8mbzCpUmJYlgSqHCF/PRWnQhPPBTYyoRqN3XnTa/+dwFvf8wsjATm07bVCxHAxoViGPOG3O3jV1cWjlhl8b6NVDaReLtTqAfMuOgGgJaDNdKwU0UY0ExRd6vi+FgKIkZ1VkusubSiYPnXFmcvhhqabjMeIcL5akCpDHo7ijDg/AdoSQ7ClRY3ySdWwPfAQd0+LKjvgv8YsuBdYp/juY/5hcdvhvjGM2tKDBPMOzt5k3s+aOGqaPxj8XxqOE9FuAdOGUZbWibYYb7mKcIvN9muGPhwPdgYcL7+LvlGvK8Y6UHxqFdP4gWfzEcM08PRyyMiJYjor34tORx6zB9028i4Wj5prWZYuz8mGgVDnwGxyO1+Sz4w3TG+0ctc+DvYF6C3yPSG+5jWDGeR82L1ojF8SCOJ36nA4cENo7vHkBgpVf21V36q4+WP+7jM3urILKxW20CWw1wGi+WYyDi1tLyImcSW9BnZrmcy966rvixAW5r3Mc3NniIHabpmbGo9PK3Nu6+q1JMGqTpssDhmi2HrJjWOqiUaGLESPJFVt8+uPj3fzin4EsIQ4f6OdsCFuQmQjyra9UuC7bvHbB2V9mgkrDQNaKZWYSzJxhUshlM5JnOYSFX4K/Pbd/X0MWdtPvcbsWbpw3LWJtO6dZ8qFl827SII4444vguIk5Q4iDl4XDX387b8dB72/ffqNnScKpe+6A6sXpIgdxDNc4ab8GAwMtIEEIR373DXS/fPnbAX/tw3CF9tscDrBnMDrA+T7238IGSJnpJREpMZoZm7ZQTnbiLYtsiui3nlAhqzYHRCdI//njVpJcGurG1/NsDwsI1MOYKEJIyp1nPrdrfkFndGEzy+sKekMoEuyCRhKQUv9PpqetezDUO8PAHPITU9KLU/20IUhxxxBHHdx1xghKH1S/6aU3w4h9/uuTxajWlD1xqXy4sgoKDQUWrNcXkdKKaBhEFmZiMZzn2qrI7xo399+1dnW9mHGNjuvaw3zRT/r685JIX1+y9zyfm9qGGKIhchBhEI7gMPXwYfLUEEVtzrPNQF6Vqzi8vHvH7HkWpm4YepU/2mwLTCeIjegkRI4xJ2JmK15MYUxMojexkzOhGrc3B4i0mccQRRxzfEqjd4/iOAwdIFSc4V43JsC2mhhZUiEpMgSOyDsTDVIkiguNNImnYcoKTbHGQKHZfm9jEQEQkDQYQF0OjNX5b4ZuLN9/2p81Nty5hrDcO5mJf96UeE9jlNKci0nvehqrJJnN1EUxV4DmV6LzV3UoEIEMIXFwOB6jitGfeCJoyUXaM6Zr1zgB3aunJICcITCcgHwFcvCqT42q6UFqNLpHjcKBbCKdcxslJHHHEEceJQZygxGGB2WnV9H4Fc9wsUkY5k0WwS4UTgABE9+hBQhAd/gEiEyMHuBAIB/94y1Hch5VoslMoC2s93lu+/vZfvbX4/nfKAtctbmYT9plmXx9jPYGAFJqmmQcuu5XLQheC6+s1NmDB5vIL9gf4ETp1uEQgQbhyLe7ZSQlu3I+ziHQ4moTyMmEQsCSq1xfb9S+mD+i6ok867mQfRxxxxNE2QAfRBcdRaYrj9MFqoo4jDkSFaeY+9MHWn3y2d8+tgcSMBFmRiKyZRBNUi6DgPjcmbiZ8FCBRsfb10YKmRDQfbxr1Trut2uVxN9glu+K0J+EeZQrP8eCJIzqQDUMHlcFMxkWaZZFX0zZU+vv4pYR8kzJRMMPwRggDlYCMyETCRdNokKicSFQ5iVC/N9SD1H92w+g+f7l8eMF6bMWIBSWOODoENFhwoIAOz4boDMB4A467C/ZMhWnus1Oahy2YuMffEfGC+OJ020RKlcQ6RoVUovspdeKU+TZbXMGvhHv6wiMR9APuOyUfZwLiBCWOg8AC+f6u5gsfnznv8Z3unEG65iIuhSOyGQGSooDDGTyx7XDaA88TwzAsUoH7+/C8ZOoa7u7O6TwvGFRrAK5DTdwMDJdftbZpQY/YREI4TjNFUZU8ssqIIBgRYuc0bKghOoXvmiKQHw33PQeCglOOeT0p4t1wSZfkvz5yab9ZQE5O6T43cZy9QOPMWL2LKnqKTxZkNwFBVIFZm3yE2IQQIS5fe+ujdAY0MpaQGF6XSDReJkJSgDry0VCftYO6TVwXpGFDbyJHJOIqqqa+9EaaeOhu1abpTyf7vhpHKjYMMoINkpo6tdw+eNhMjks+YkA/6kI1UNrTOLBpoC01vZ4kdV9NaVZDnKScWsQJShyHYF8wmPPLmasf+rDB/J6XS3XJqkSSFCAoYoj4bBqRdGsLjnahxKYBcyBaVh0GiAd2AcEJlHr4y+EKrDHgeiqI2MxmrPToBuhIEcgIM4jIdGvMCXAVYhC4FvYR2eMifhPIiUBMqb5sx7lFqS/eP2nMG1NSv175NI44jgUwQCJr3tWvbMVnVxVUVxSIDk3QSchUBVtYzum7g+szfAV1JW8gJN/7TY0SkiA4OBVWly1Z6+HJYOBcOF7ppIyR6ihwXJizfPV5xtznzwvKvEvO7LoxddwlHxBbd1xM8KwzwJDOvKZVDaSzXro7UrsrpzIta29Kv4s+Ty0unENpjrVAIPgRgo2rp5S+8X8P52kNGZFwvU8tuHZ17pWXPyvL3UqtF4G3lviboYa87e/99Ua1ZufY/KJeOxIv+uHzVMoshfsHF0uL4+QjPgYljkOQ53DUTO1XtDgp6KuSeIPovEaMaGMH3D02n01UTOLWGLFrJpENgwhQnrFSqgsRokohbCoBXzGHfCLKYqIOCInEmUQyQlarjdVaYt3B7zLidEkkEgkQInDMoQWrh2a7P75oUNFnQE6+0WyhOL7TcISqyoYEd689r7Fi8+jyPSVddlRsL6oo3zKmbOFnt0SWLrqG+QP9wLDhTsstO8Ae3K029g4L8NsqGHjEe1Cbl3EnVy8UB+3AokHVn/35lp0f/OEOo2zuKEIO4C7SBwtSyzPgRHwOjkfo5BY/xxpwjn5wkUE84jOxy4cAr7u03V2aNs27mu3ddalRvnkyV7F2Igk3ZsPtI57B74HDd6KzdsGN3WoddnR4r+WI1/EogmszvHDdSqdYnPEbrdNQwLiaZhXG10pz66F20MAasoJli6Y37dw8lVbsGCWVr71AbdrWm7Gsg5uLMbY/U922erLbpw7UU/qYzvO/v6Bg0JjZspx2IOYFgWHGsAhe6hDCuukxZGdISs1tJqIdt3c4GC8Itx2OLWnSOs4tadWSFgfvRz8Rx/EgnmhxHIE94XDhj15b8pt5mny1X7BLCRGcPWMSn80A8oCLILYPRVBBG3DWpnmCScExa0yKEFu0slk+RLcfAnxGNLDtRYeqDCMG5YGc4KgWHNeC/EMjIs8TSY9U59LQRzeOH/j8tH5ZW+LjTuI4XphmKC+wcsb9zcvevVzJ7FJXOOrcuYZgj+xfv2YY2bl2uFtO8KZMv+/PfMHwt4Is6HaEQpmUBROYE7tBdD/RJEZET9hPPLgMeJCxYBIJVWVR0W5qOidS03DzNtNJSuePrPri5UvAwJlZ5131Kek6aiYVs7YxlsATtT6FSBJupSKQcFUq00HIXUm1hEj7OS7fWtKZsRoXi0QyCB9OhnIhM03XqCOtCoxvDbbEVLNAamZdKJslmrq1p31NIFXwpPmr7Z6KLO7ItYBMszk5WPLJ9XvmfHB/piRmOML1Ed0u1juvfuwXQsaEj1u3oJjm/hSi0QISakqkAm8yZ3oDpcl1cEthzJ9FwgecRHDpJBC2EynZR5xJBxqgkKaQSDLcSyOheg9xShFiS4Nn7BDeFFz2HYpyVTKlSg4LeJMJL+qET2kioqOaUrefsVAKIZEC4q9PJEzRiN1dT8TkfZR62lxuHgy/pIc2Tm385LmfNVdUDegiamFfsMHBJlz8v9SxP/0lePER0pzA/FvPrX3rmV/Y6gI9xYmXf2WOuvhlZ9A2lzidhqZpeaKIm0GGHcQXYsST6a2BTE5rXHMOCTZIfHrh9mZbzw2Y8WmsNpPSxlwImoNCnYskFO5nzFVJqZdnSjibmJE0UHaMMDlARJtKgvspFSQ/sfXEStQh2z3EcWzECUocRwAKve2/q6tu/sWKjY/X2z05DoUnNuAXQREIxzEqAlBKoXQCscBKD8U5ONHRKNasH7gjxaYJtwWT4BRm7BDSgKCYRKccAe0N39ThOYUYkofwWri2i9n4yRXDe716y4gua9vaNyaOOI4FFqnrWf/FP5+g22ePZ30nrEsZe8ezxJ2n1K2efYW65I9XuIRwyHnpk081510wL3XnF5P8q9aON4JV6fWSVyseOGg3qwzJzcTjT5ow/n2iufaVbV5wVUKkZlBKfl7N/m3l6aLOkjIdJjOrd3dtqNrbRXA7FTOzqLQ5qevMonOu+qixZHXPYMWWCan5Xb2EqbJ357Iepq4INLP/utQeI98VczJLCSkWiG/vGGXnmgm+shUDBF+V6PIkaWpqz02uARe+z1K6bq83SiakvDLnynBvOayncJLns/Isb37m2trLLnqrB9cDd8A9CCjXPKurGuub+dRDNQ07+6aNmVDtWLMmqy7YICdf8/NfObqc+wIYUauANpnhLnTHlxfQLbPH6L7GHJvkVrSEbuWeUZd+3Oyt91eULL25R5adpxG1cX95ZWpGfs9Sx9BxC42gam/cuf4c/kBJP3e4LsEkcjCc2muru2jsl0J6t9XMwwm0bOnE4I5V53IN2/IaFV1R0vqVZvedOEfu2reW7N08KbRt0ThaW+qpEbqENIdnR+HgsW9JhaM3tEVQGhnLl1e9el9g0dvXNmXlG4VJrmbfyqU9lCETPsi5+MkfwzP14W3rx/pKZ92t7/1ielKwWZDzB23zZ/ZalDDq8ud960rGhxsrR6T3z9xbuw3USb3Cp4y9cFU4wbWleeOOG8xgvZw3adrzhORu0TVfj/CGjy5U968dwNSQXXInNzl6jl0s9Js8nzTsTw3tXHtB896N/agW4aX/b+9MgKSu7jz+/vfR/77v7pnpuZh7hnPQUWEACQIKiKhRYxKjWSvZjWarkopJdmvddTdVJpXorrtGjTFRxFuiIiD3oaMIAgMzMA4zDHMf3T19X//+n/veQKwkIknUrSS1/0/Vq/73/73//Y7vu37PWhaxVtZm+0dOA2dZ5UFvZeteYGpEotJo6f0zMLp4DD4GTETiwjqho9rEHTPnBJUUMVAEWSCxMO9CyesSTgX0TKvHeekrw3PJgICVTgJuo4X0lJlWEeSpzggRDFZCkE0VFQoSmRRBkU0AiULTimlASmbASxbAYSzQSVlni6dGa8iBV+9Y1vKkIU4MPi2ouT0jaU4pOlTO6SI14a8ez/NOVQQZB5045bMVMlzWE0zrHlqydr27aHLHxq9hp7a0pvQoFZ+knWOv7VmrnXxurWXo6AJV9dHJ7HQoc2jTaq536/LkgdfXFfqO1OfD5/RYLEWMTYxzrJiB6YeKj0UmxvFwPKGImrl4em8be2bfNfTBx74U37VlnRjR6rWRoSbt2MFrxJ4T80TAe4A0sjTywv33frjz1fXRooWKu2zp+PSuZnDwxZuSx44s6ceis6xTo0vyk1tX0p3bbjyzY8uKw8QEf04VZB/wfaz1RM/pntzg3mvCiYPz+FDpgGnWnYcTnEO0sEVaiZ0pRxUT6EhN09ziGz/86uTeh+/K952pGS5UxCeGhexo5ykvMGFY+OyphcHuXSvww79eljnWsTQ+MiSkGXcRpIZK1IOPfjm674V141HddUqqkiYThTL83V+uFd9+bIMupVvAUFdbYueLt8SPdy6I4yW5jLV2sC8mikOphIBle69IHXjs1v7OjpZBvimn2JVoXzKJpfIXb7VF92vKvt1GH9q1XMsIItZ21bbErIoJjbKrfDJuASBqRuF6kuOO/sGE15PrI1TNlHsvZRkfLQb6gMlMJrpfuM5+5qVVYwce/8pEX9fs/BBOAUsgl0r11FAdv1zK5DLlmOAm1PiROdjW+/8u88Fja8ZSg46cYkmPncvSY8OpIMiN1oYPv3LL4NHt66ZHxiqlBHBN9XRdntj1yGp7z7Z5TGSI0/nSi84sMrg0hkAxuChlgjTWWuru4ORMAucZIFM80GVlRlpcys0MeJ1x53egCTrn3fntGWA6RXuQ2XrUQoKcOmMhlgWkLAA0AZnAM4CgEtAvCSQpr+E6N1Rqdr+0/rI5zyy0lpwyxInBZwDTc0mbXsy6YGFM1ufpADvVP4c+tfvGbN+JJlkN5Fnf4iME5aD6u/dcL2cjPn5eW3/pmjs3Ntz+jafC/sDoOM9SuQpXLGm1ZMiM6PNjhEXNSrLE+YYqlt7weGjp2oed7Ve/qjU09PY7fFOWlmuOzr7hmy9WrLx1JwBmnc/aA5js4s7q1gjd1r6/fN0tHaTdHINpgpMU3MkWlRr9+N71VG50jitoS1QtXnO46rpvd1kq1+SyWgWnRAlzha5Scv/J6iKQzZE0KAihubtmr1zzq9oFbW9aMMsfrjSMqUxfQ/7kO8tpPaiw9UtOY3b3uZytPKpkSYqKqH4sOelEQc+dO7GAGehaXjKdFrAVa96ov/WuR6quv+ERy2Vtm2SaH89nUiW4ovB53ZQvNi/dX7Hq9iecNU37o73HGwaHT7eaArZ47ZKrtjVct+aFwPzWjqjZD/pEoiatFOqU9EBDQpyqYgIOJXDF1Sdrr/vSK20b7thY27jyQ6U/GUhE0mWe0mChbtU1xyuXfX3vVavv3u6qXzBwscJd19Mh/eiZFeG4Uq7WLh4oLVk6zpBlYZHhFMtExAJkHS14rc9qbOypa2oZkAEpkoGGoblfuOHpigVXvZzMZqA/ZgapIpUmPdMNS9c9Glpy7f/ggnPP2MhkwJlPW9yCMw9U0h4bCC8f7ku0ad72ePm1971asuaen7vWrv+lMKflGOh5v1QdODGXV8ViVfuyPaUbbn7G39ragZFsUccYiTH70vCb/83OkPpLYggUg4viwl3pG1tD+3zY5MkMrPJJlBnQCuqCgSn+Eu6SwABIllzYgOKDnHEq6hKCAoVSCSAUkXE4AhRgpSlLwzTNFmRGnu6pN4NNX1x05TM3zmnsuqLMECcGnwlCSYwF9ELcJpOsnjxwcE7khf++49T+TVdGxXSBrFnxom3+HW9GxzI2dfRIXVCgs+DKtftTjsW7qbLWPYC3jWqqs4iV1YyzQBTzU0O1JNCtmDk45G1d/Ty1cN0rZFPbYVFnBqRcTnMCvMBz7g9B8LJOzNMUJpO9VkUNO3O0mrfMX/4u3rrhLc1b1oOZqHxKKuQYt6cA9MxcrfvN+ZZE2urjSS+en1ga3797/diHvdyUmT4JaquP68As0tN9trwK5GJF29vlS776OOe5fJupoukULNA/6ktF4kQEIDTS8/o681T3LL+tQbKVN5OUOujgeYJiVJjo0jGbrlusMDhV7Dk4H5dzHi4we8DTfNs+xlp1CNRddaR0+c0783lZp6MTHgkDxUzlgk7/5Te+6JxzWQcV7lfk3p5mpyjywfK5fXRo/ruMu+p9kqX6OI7KMFiBofUoPH+eVvQUKebHA/K5421gYnChhbWTgKZzRRrkZa0gg7G+Euyd36zGJ3G3zVeOZhZ9zPgiGqSqFbqX5fuOLppwqDK4MhRldc0hCCZlyK5qBSxmL0oFBwpLmzkpnU4QWcahS97GY0Jt09smb2UqlRr36IC057jSyKxFt29kZt/4ItZ+9QcY589JE1NlOkkDLFgxoWamywtn32nzs1kmWN3QaauYv5/wuzo89ev22Zwl/dnwVIjKxRxuV8kw17T2naJj3ts2R+hEHgjpIueLUc7A9PBfeObW3yqGQDH4RBZZ+aFldc4OVU4lAcECRqNnhMUl3SU4H+S8jDk/NgWfccgEBYqKuI66fUSg4ARQcRP04/K4LB9vr3Q/9Z2V8zctrxb6jAGxBp8VWGBzWGbEiUt5VWZdU9G68h2pUMkuoqH5ec/qDT9jF69/iSAtnZmBgZI6KSpoPmtMDNR1F1lWxKWojYv0BUKaGZjpkqQprfNxcSQYIxUTVVE1BWoWfnh+MGgAUIm4yzw24vUoogSsfBgASwZEIgIojJUlwZhVhdrIayvttvC+YZBIYGoiRhIEPs14StNFKemPRbudCiUUT0bC0tZD+8SzwwNnbBXlm53XLX8ea5nVnwFFHzHaWYKzRIoKzTnJW+tOY7ZQ4nfFCQJ1hRSmzy4Sj3e0s2QWJuK0K3tsX7vy/rM3s+OdlRQ3RWSws7a0XeXyuu7Aps7WRGmeSi+5rheobjRuYmZdC/hcuBrNVLgT4wGa0FPueSvfBxzVC59VwzI5Bxsetgm6XsQDDQNx1hPJywyri6TVnEjyvkxMwfJqjiy75oR11sr92aKQnDh0oHVk+/NflXr2rcHkqIepqOmytiw7oBBCWuw+1DS086E7Js/sWp0EyZmumj+gXDu4fblp/Iyvhk/RtrNvtYLtj19LHNx6ZVAvsLSYE9KjfSEYDmeVnANWciwFnNPxYP0AAJ4sfCa9GD5RpqejdpOvfJQumXMYw1xICElSbjDITw4GclZaU8vcsYnMMJuPdfsZU1LHSpzjAAgxALwz042LGdk6Fi2EYH6FcaUNowW2BH5nmhJjYbOULxCcyRInzc74EJiZJWDwZ2IIFINPBCbi1Oqmyg4vLfUSsghrLag7BuVUn+wuCfRHs3NQl46O3AVFg+bpEBqsBlI6iJIq0HFVE8RMJJgMb7ujedZDP9xw+XMb3MzZ/6s1dgz+f4GJok2ZHCjnObYA/I2dpTfcvan2ph/+a+PVD94fbPzGJipQdSTHqqIWGzJTxTyne735GCaqDFCqp04888WQaapCwbIF4HL3AV7jiuGBAMHwOuurHsEodQIVfrqeYtWJ/goCyznifl9GLAvEUsgQmtlMZ0fCAUrhBJ4qm8TNzXFaxghsuN/JAZyx2zxpnBby4nSWBQqlh/1lg/Vfu2fT7DsfeLDx6w/9h3X1vz3BNN62l6GFuG1ioBmWkH7AMWmutLIPPtrHuhFQ60kOJKpA59Z2/7mUoxfnRo6LU2fPHXk3f+bQyVwiGcsUYTFQTAyZ8UIiQEgZExYfsuMErXOCWZ1gpAtTfNOmIb3oz0xPllsK8aDVJKRoUzV8VlSoD4GcMs1nyQKHWUgMWEglAjBC1cXSTCJXOq3zGOWrGcU8lYMpe0WXfdW9T5Ze//1Hi4GSsyKlBsdPnVioR8arCb1s3Lz0nx/z3vwvT08EKqdKs52h6aOvNXJ61n3+Hs6jaZpfGjm0VjxxeF6K1qOxvHxu+OTp+GjP8eTUwDmZjGYViRZxLTVSAYMLheR4tTJ+ukYnmQTprURG2ZRsNmunpnobzFqexWZVdWMKjqYbowwJl4bP1AT1bAC+uyxh52OpRELjbG4szvsUxVJTHNMZJQ3fRw6ES1Wg+aRizsbiOCAsFrmoFqyY1ndleOi9JZyWNZs5KqkDPLsEDboz+LMxBIrBJwIzWrXG5epZ7DK/LWSiGZyCla/PwEw30AWRgrZRtzIBtwhNBjyspOHIMBvP5c3ZiWNLucQTD6+q/8n32su2QWGCrFyeb3oxMPgMoAJbJ1SzGA9zmaKW0kvnnRGA7xSaxorjeA7GM7QatWwCuqZiYFq12GXsbMJWGotfznTv/bJ2+OC1dDptl822LLCWpmK5Iu6MRZ2cZpEAH4KFHBlH18GwKTxOF7gkKfICoTjZQrqGj4+W6CwucLDWTiTjJLCyMeBzJnSQxxKZSWtcxRlgcucInMlYJT2OaeU6kRE4Pp4nK0FWN2WSlXRqotkCRNaEklEmFRR1KxApPkEx1BS874+mCP8WXY+Z9cldl7H97zTzijUauvm7D5ffes/9czf84wMNtz/wgH/NPU+NFWumPGkzySaKAVrN2XBaz1llxc507l8QLJxt10ePrR09vO+bXiDPlsMTDTJQLMDqSgHSjYwjwmuWqxrtzkq0uwAwyoTHR5rrssfbzL0br0kP72kVLXyaqG7oIRiFFTLH5lD4oFuo9Cdr3PYEmU7KJqygATrr1+SpuTSt8nQwdK7S7ckjmwWsZFEZTPioYgK/Hw3ynbOzpzcuzdFYfqxp4R7nF//9wdBXfvot87d/+j3bl+97gqmYdyLGAk5PhAO6JFVI8XCdQ005TRbrNOC8Y/A0ionSLFg05dc0XVdtpijgkNkalC0lhUI4UqppKmt3zo0BlR7yYaZpNVyUOFEGZKSvLpgcWCac615jOv3Wcgs2ZWWUJNBVKCizI7Mc8cNr8HdfuYlPjLXgFAVYiysOBHveyL8+HYZAMbgkIZMpsqYy2OmXYxOifl5YXMr9Mc6HudDUAs+HRAmLqwBX8hKXnupvzI5tvmtu6Gf339b+1E3NVV1Bw3aAwecLlhGLglbMCgRvjRG+5gG472MFCIaZc8Ks1g+OkKazhZGILfbcs9ef2fdGu5N0UyklpEnelgiQuTiRzyuEnKd1s28M+FvOYJg3i45PAq8yjbmSBcyZocYn/JHnnlhJvLdlkVocLUuLSYvEgQLmFcYyrCUi62oxmomrUcYznXOU9gIOHwJ2z+G4Y3ZvIZpwpne/sV587iff1V76wZ3HNv7TqujgO7WSlLGGxSQ5TpRmZbt/FDezF10ks5hWPZEP+6qmUtO01NjSgVcs3uN3fGE3VnnFDhBoPKCVtryV8c//ICFhqlLIsDJpLpCh1t4pwpvUTr5fHd/447tjv3jqPrZvvJ7TJBWoBTpCMooYCI0CVpiZKYQEHcnahyl3Xc9UHMNie3a0p1948lvjOzevyudSuKe29T2+9vLuwcM77L2vPHxN6vVH7p144z//Ybqnp44E5jFrXWt/Znpk1qEtD94wsP1H98W2/uKbqa4TzlNcWb974XWdum6dEX0IXYfabXpidnxsJJiQHKcqW27cbPFe+ZbJveCE3dxwGNhbtjB0dR8vuiQ1nXapOG4tTEcDWC5JkCb3uELy6J51KZPBs1lOl4WSfikYOgOAHY1rm4kD6TRwZlkHLtvnfggoW7/TE+oCjPd4Kpe1SbufvE559jv3Tr7+8G1gXLMB0hmjvBV9UySfH+/8oGXitRcW53rCdoYOilnaFZOtZaOAq0X2Xww+BYZAMbgkMPNRF9WUfNDgsRzBKPxzHImOVkLWAYEBpZjLjpkZcs/KeQ3/9at1rQ8+uHTemwt4ZJzJ6NIx+NzRCwUlyrHcAdbm2qmyni4Yz5CV0D+k4Km97Ki1bdmvozWO15Pmwj5hcf3z/FVXP52oXrwxGZr9BpD5cIqgZazMvk0MBnakHN7TF44FNmDLlfgXvuOdtXjTqKts90iF/128qXGQIILpJF1xDC9rfZl1NbxjwZgIrWIpkrQdNpc3bWVCjUcxC5cAXke3edXaXwvzLE9P0pFDvWK66xRjP25qv3EvX375iK6bNQ/LnmDK5j/jrJ63XaBNoxcu/REz3TuUUCgWfGcLgabN4IrLN7PAiwadoimvqKUobzKBQaUk+Ea0hHk9JyjHk7Iw7Wu9aft01eLHTrlcm8Pu6FF6tm+fe8llL+e14rm0hd6vVVVvoitqd8Djxy9cCrD1SyPWK5a/wrS2P5G02fcmWOYIKF/0fHDFvz7kbL1zI3A2H2ICi99nnPOOJCJEDx1JHcIq5mziVt/18+Ls9W9aXAterqGoPdxEb9dUZOT9dHnty5a165+kG+bvgteZEX2IfB4n43F6iiTqXyUXr3rZUl53FPlDp0En8TwfLlRX7ZJ9da+brc5hSSda0slUiCRJhbC4xwk04Blma7qiSGZnw37G37AlZXYfg/sudMHYFJyydym28t+QlfV7pgEBhVjgjLDyjucnZy3aeM4U3Dlicr0vzl+6O7p4/e6so+qkfeG1r7GVrc8qNv+bWbd3q7Riw6vJuqteoktbXiMcoa7jF49fBn8CF6qyBgafDMzo2Ac/OHvXYwd6fhCzuQNoMUA0yJWgSCDL8owFWFT/RGrXoiLjbABouIbswQIJU4CCbJzAvTTDgKLmhb6iTuqZggvLTTgL0yeWVpV03HTlgo5mGz1ghxUYmNH8KY0xBgafChifkTlzK4xnaMA16tb5xPimaRoaoIlmt8wUgPA4FL2p3x4LHcpD0WyRItz3e4vToevAHxuM7wI8TAGAQ4tZInGA7I0ggVCADq3ljQatoCmxqEKA9s101Zy/tmiD/wl4Ng2eAx5rKsCw6FqoQOXhNg630Wq7F21pRP7QCWgbhYHuY4M1oT+6HxqdB/5F50X3A5MigPdUhMkaXZdHBTvyh88yswpyErrfq0BcOI8dvhpG1xl0HnQ99I7Q/UIvHRk0QebrTfAX3bcMt9H7/23rhV3XC9APjZpX4TOZ0OJ8v1cpguHRt7Nc2I/O+7FKDHxvTgUkG3AtF9InT7fH971+RSwc5ytW3PJjpuX6Z+Ex6DnQd0PPgr5rBrqP4gDch5YjINB++Be9L/QO0T1b4CXhM6A4wKJjULcQ/C46MqkP35cI4wWH4sWMINH1aRXDXDPfGP03+PMxBIrBHwUmQGxPNDfnR5sPPHBa8a8CBI7DlAdUmKSRQMGgQMF1ZKIeqgsB5qkwrcPcBxA6FCdSETAEAZO0ohE4KFiKkYQgFoYbLObO1lLHB8vn1R2t9DOj3t+pJRkYGBh8FkQtXV/c/PB3irFz7ZnYhED6qw+Urvn7hzBX0zEoGGYEoMFfP4ZAMfiTQIt3Pbql4+6HhvV7CZoqASRFqDoUKTNTd1ALyvneQhFHg101jVZ1mVGVHCVJOVJW4naGGXPZzP1XB3LdbS01Xc0+54j/fM3FaP40MDD4XNH1fNnY49//rqSkWyi3ZcQ5r30LV33FWzjuv+hYHQMDAwMDAwMDAwMDAwMDAwMDAwMDAwMDAwMDAwMDAwMDAwMDAwMDAwMDAwMDAwMDAwMDAwMDAwMDAwMDA4O/AgD4X0WZCCsceketAAAAAElFTkSuQmCC;" vertex="1" parent="1">
          <mxGeometry x="200" y="180" width="552" height="245" as="geometry" />
        </mxCell>
        <mxCell id="LIb8iuB4E54POhkS-eWw-2" value="OMOZE NURSING EDUCATORS" style="text;html=1;align=center;verticalAlign=middle;resizable=0;points=[];autosize=1;fontStyle=1;fontFamily=Verdana;fontSize=18;opacity=25;rounded=0;labelBackgroundColor=default;textShadow=0;" vertex="1" parent="1">
          <mxGeometry x="445" y="367" width="300" height="40" as="geometry" />
        </mxCell>
        <mxCell id="LIb8iuB4E54POhkS-eWw-3" value="Partners Across Africa" style="text;html=1;align=center;verticalAlign=middle;resizable=0;points=[];autosize=1;fontSize=17;fontStyle=1;fontFamily=Garamond;labelBackgroundColor=default;opacity=25;" vertex="1" parent="1">
          <mxGeometry x="510" y="395" width="170" height="30" as="geometry" />
        </mxCell>
      </root>
    </mxGraphModel>
  </diagram>
</mxfile>
